<?xml version="1.0" standalone="no"?>
<!DOCTYPE svg PUBLIC "-//W3C//DTD SVG 1.1//EN" "http://www.w3.org/Graphics/SVG/1.1/DTD/svg11.dtd" >
<svg xmlns="http://www.w3.org/2000/svg">
<metadata>
This is a custom SVG webfont generated by Font Squirrel.
Copyright   : Enigmatic Unicode 2002 by Starving4 Entertainment dartpuzzlersorg This font is licensed under the terms of the Design Science Licence httpdslorgcopyleftdsltxt
Designer    : Darren Rigby
Foundry     : Starving4 Entertainment
Foundry URL : httpdartcanadatripodcomObjets
</metadata>
<defs>
<font id="EnigmaticUnicodeRegular" horiz-adv-x="1194" >
<font-face units-per-em="2048" ascent="1638" descent="-410" />
<missing-glyph horiz-adv-x="512" />
<glyph unicode=" "  horiz-adv-x="512" />
<glyph unicode="&#x09;" horiz-adv-x="512" />
<glyph unicode="&#xa0;" horiz-adv-x="512" />
<glyph unicode="!" horiz-adv-x="384" d="M0 106.5q0 -106.5 106.5 -106.5t106.5 106.5t-106.5 106.5t-106.5 -106.5zM0 1536l30 -1216h162l21 1216h-213z" />
<glyph unicode="&#x1c3;" horiz-adv-x="384" d="M0 106.5q0 -106.5 106.5 -106.5t106.5 106.5t-106.5 106.5t-106.5 -106.5zM0 1536l30 -1216h162l21 1216h-213z" />
<glyph unicode="&#x22;" horiz-adv-x="725" d="M0 1493q17 -85 85 -213h43q68 128 85 213q0 128 -106.5 128t-106.5 -128zM341 1493q17 -85 86 -213h42q68 128 86 213q0 128 -107 128t-107 -128z" />
<glyph unicode="#" horiz-adv-x="1408" d="M0 341h162l-77 -341h214l76 341h299l-77 -341h214l76 341h180v128h-154l137 598h187v128h-162l77 341h-213l-77 -341h-299l77 341h-213l-77 -341h-179v-128h149l-128 -598h-192v-128zM405 469l128 598h299l-132 -598h-295z" />
<glyph unicode="$" d="M51 405q0 -277 448 -277v-149h128v149q448 0 448 277v171q0 256 -409 320l-39 9v396q235 0 235 -149v-85h213v128q0 277 -448 277v107h-128v-107q-448 0 -448 -277v-192q0 -213 410 -278l38 -6v-420q-235 0 -234 149v85h-214v-128zM265 1088v64q0 149 234 149v-379l-38 6 q-196 32 -196 160zM627 299v401l26 -6q201 -32 196 -161v-85q0 -149 -222 -149z" />
<glyph unicode="%" horiz-adv-x="1536" d="M0 0h235l1130 1536h-234zM0 981q0 -192 320 -192t320 192v384q0 192 -320 192t-320 -192v-384zM149 1024v299q0 107 171 106.5t171 -106.5v-299q0 -107 -171 -107t-171 107zM725 171q0 -192 320 -192t320 192v384q0 192 -320 192t-320 -192v-384zM875 213v299 q0 107 170.5 107t170.5 -107v-299q0 -107 -170.5 -107t-170.5 107z" />
<glyph unicode="&#x26;" horiz-adv-x="1450" d="M0 384v384q0 192 192 192q-107 104 -107 235v85q0 277 489 277q535 0 535 -277v-213h-213v170q0 149 -311 150q-286 0 -286 -145v-26q0 -63 63 -148l675 -765q28 49 30 124v213h213v-299q-2 -119 -80 -204l108 -137h-264l-23 27q-146 -61 -424 -48q-597 0 -597 405z M213 427q0 -277 384 -278q175 0 282 39l-538 601q-128 64 -128 -106v-256z" />
<glyph unicode="'" horiz-adv-x="384" d="M0 1195v64q107 0 107 64q-107 0 -107 106.5t106.5 106.5t106.5 -107q0 -234 -213 -234z" />
<glyph unicode="(" horiz-adv-x="704" d="M0 768q0 -853 533 -939v171q-320 128 -320 768t320 768v171q-533 -86 -533 -939z" />
<glyph unicode=")" horiz-adv-x="704" d="M0 0v-171q533 85 533 938.5t-533 939.5v-171q320 -128 320 -768t-320 -768z" />
<glyph unicode="*" horiz-adv-x="907" d="M128 1332l29 89l195 -4l56 186h93l56 -187l195 4l29 -89l-161 -111l64 -184l-75 -55l-155 119l-154 -118l-76 55l64 184z" />
<glyph unicode="+" horiz-adv-x="1024" d="M0 683v170h341v342h171v-342h341v-170h-341v-342h-171v342h-341z" />
<glyph unicode="," horiz-adv-x="384" d="M0 106.5q0 -106.5 107 -106.5q0 -149 -107 -149v-64q213 0 213 320q0 107 -106.5 106.5t-106.5 -107z" />
<glyph unicode="-" horiz-adv-x="1024" d="M0 683v170h853v-170h-853z" />
<glyph unicode="." horiz-adv-x="465" d="M127 105q0 -108 105 -108t105 108q0 109 -105 109t-105 -109z" />
<glyph unicode="/" horiz-adv-x="937" d="M-85 -43l896 1622h213l-896 -1622h-213z" />
<glyph unicode="0" d="M51 256q0 -277 461 -277t461 277v1024q0 277 -461 277t-461 -277v-1024zM265 299v938q0 149 247 149.5t247 -149.5v-938q0 -149 -247 -149t-247 149z" />
<glyph unicode="1" d="M282 1237h247v-1237h213v1536h-213q0 -128 -247 -128v-171z" />
<glyph unicode="2" d="M0 0v597q0 213 410 278l204 31q196 32 197 161v170q0 149 -301 150q-297 0 -297 -150v-170h-213v213q0 277 512 277t512 -277v-256q0 -213 -410 -277l-204 -32q-196 -32 -197 -160v-384h811v-171h-1024z" />
<glyph unicode="3" d="M0 256v213h213v-170q0 -149 299 -149.5t299 149.5v298q0 128 -171 128h-299v171h299q171 0 171 128v213q0 149 -299 149.5t-299 -149.5v-170h-213v213q0 277 512 277t512 -277v-213q0 -256 -213 -256q213 0 213 -256v-299q0 -277 -512 -277t-512 277z" />
<glyph unicode="&#x417;" d="M0 256v213h213v-170q0 -149 299 -149.5t299 149.5v298q0 128 -171 128h-299v171h299q171 0 171 128v213q0 149 -299 149.5t-299 -149.5v-170h-213v213q0 277 512 277t512 -277v-213q0 -256 -213 -256q213 0 213 -256v-299q0 -277 -512 -277t-512 277z" />
<glyph unicode="4" d="M0 299h717v-299h213v299h94v170h-94v1067h-213l-717 -1067v-170zM205 469l512 756v-756h-512z" />
<glyph unicode="5" d="M0 256q0 -277 512 -277t512 277v597q0 277 -405.5 277.5t-405.5 -170.5v405h811v171h-1024v-811h213v86q0 149 299 149t299 -149v-512q0 -149 -299 -149.5t-299 149.5v170h-213v-213z" />
<glyph unicode="6" d="M0 256v1024q0 277 512 277t512 -277v-213h-213v170q0 149 -299 149.5t-299 -149.5v-448q0 171 405.5 171t405.5 -277v-427q0 -277 -512 -277t-512 277zM213 299q0 -149 299 -149.5t299 149.5v341q0 149 -299 149t-299 -149v-341z" />
<glyph unicode="7" d="M43 1365h778q-342 -249 -457 -568.5t-204 -796.5h215q34 248 155 655t451 676v205h-938v-171z" />
<glyph unicode="8" d="M0 256q0 -277 512 -277t512 277v299q0 256 -213 256q213 0 213 256v213q0 277 -512 277t-512 -277v-213q0 -256 213 -256q-213 0 -213 -256v-299zM213 299v298q0 128 299 128t299 -128v-298q0 -149 -299 -149t-299 149zM213 1024v213q0 149 299 149.5t299 -149.5v-213 q0 -128 -299 -128t-299 128z" />
<glyph unicode="9" d="M0 256v213h213v-170q0 -149 299 -149.5t299 149.5v448q0 -171 -405.5 -171t-405.5 277v427q0 277 512 277t512 -277v-1024q0 -277 -512 -277t-512 277zM213 896q0 -149 299 -149t299 149v341q0 149 -299 149.5t-299 -149.5v-341z" />
<glyph unicode=":" horiz-adv-x="384" d="M0 106.5q0 -106.5 106.5 -106.5t106.5 106.5t-106.5 106.5t-106.5 -106.5zM0 746.5q0 -106.5 106.5 -106.5t106.5 106.5t-106.5 106.5t-106.5 -106.5z" />
<glyph unicode=";" horiz-adv-x="384" d="M0 106.5q0 -106.5 107 -106.5q0 -149 -107 -149v-64q213 0 213 320q0 107 -106.5 106.5t-106.5 -107zM0 746.5q0 -106.5 106.5 -106.5t106.5 106.5t-106.5 106.5t-106.5 -106.5z" />
<glyph unicode="&#x37e;" horiz-adv-x="384" d="M0 106.5q0 -106.5 107 -106.5q0 -149 -107 -149v-64q213 0 213 320q0 107 -106.5 106.5t-106.5 -107zM0 746.5q0 -106.5 106.5 -106.5t106.5 106.5t-106.5 106.5t-106.5 -106.5z" />
<glyph unicode="&#x3c;" horiz-adv-x="1024" d="M0 768l683 -555l170 86l-597 469l597 469l-170 86z" />
<glyph unicode="=" horiz-adv-x="1152" d="M128 512h896v171h-896v-171zM128 853h896v171h-896v-171z" />
<glyph unicode="&#x3e;" horiz-adv-x="1024" d="M0 299l171 -86l682 555l-682 555l-171 -86l597 -469z" />
<glyph unicode="?" d="M0 1067v213q0 277 506 277q518 0 518 -277v-299q0 -208 -207 -249l-185 -56q-78 -22 -77 -79v-128h-214v160q4 160 164 205l190 49q115 47 116 120v234q0 149 -307 150q-291 0 -291 -150v-170h-213zM341 106.5q0 -106.5 107 -106.5t107 106.5t-107 106.5t-107 -106.5z " />
<glyph unicode="@" horiz-adv-x="1536" d="M0 427v682q0 448 682.5 448t682.5 -448v-597q0 -184 -256 -192q-256 21 -256 171q0 -171 -222 -171q-333 0 -332 277v34q0 265 384 265q171 0 170 102q0 111 -170.5 111t-170.5 -149h-213v43q0 277 384 277t384 -277v-470q0 -64 42.5 -64t42.5 64v534q0 320 -469.5 320 t-469.5 -320v-598q0 -299 470 -298h469v-171h-469q-683 0 -683 427zM512 619q0 -128 170.5 -128t170.5 201v110q0 -77 -170.5 -76.5t-170.5 -106.5z" />
<glyph unicode="A" horiz-adv-x="1382" d="M0 0l521 1536h238l521 -1536h-256l-137 427h-494l-137 -427h-256zM448 597h384l-192 615z" />
<glyph unicode="&#x410;" horiz-adv-x="1382" d="M0 0l521 1536h238l521 -1536h-256l-137 427h-494l-137 -427h-256zM448 597h384l-192 615z" />
<glyph unicode="&#x391;" horiz-adv-x="1382" d="M0 0l521 1536h238l521 -1536h-256l-137 427h-494l-137 -427h-256zM448 597h384l-192 615z" />
<glyph unicode="B" d="M0 0h725q299 0 299 256v299q0 256 -256 256q256 0 256 213v256q0 256 -299 256h-725v-1536zM213 171v554h427q171 0 171 -128v-298q0 -128 -171 -128h-427zM213 896v469h427q171 0 171 -128v-213q0 -128 -171 -128h-427z" />
<glyph unicode="&#x412;" d="M0 0h725q299 0 299 256v299q0 256 -256 256q256 0 256 213v256q0 256 -299 256h-725v-1536zM213 171v554h427q171 0 171 -128v-298q0 -128 -171 -128h-427zM213 896v469h427q171 0 171 -128v-213q0 -128 -171 -128h-427z" />
<glyph unicode="&#x392;" d="M0 0h725q299 0 299 256v299q0 256 -256 256q256 0 256 213v256q0 256 -299 256h-725v-1536zM213 171v554h427q171 0 171 -128v-298q0 -128 -171 -128h-427zM213 896v469h427q171 0 171 -128v-213q0 -128 -171 -128h-427z" />
<glyph unicode="C" d="M0 256v1024q0 277 512 277t512 -277v-213h-213v170q0 149 -299 149.5t-299 -149.5v-938q0 -149 299 -149.5t299 149.5v170h213v-213q0 -277 -512 -277t-512 277z" />
<glyph unicode="&#x421;" d="M0 256v1024q0 277 512 277t512 -277v-213h-213v170q0 149 -299 149.5t-299 -149.5v-938q0 -149 299 -149.5t299 149.5v170h213v-213q0 -277 -512 -277t-512 277z" />
<glyph unicode="&#x3f9;" d="M0 256v1024q0 277 512 277t512 -277v-213h-213v170q0 149 -299 149.5t-299 -149.5v-938q0 -149 299 -149.5t299 149.5v170h213v-213q0 -277 -512 -277t-512 277z" />
<glyph unicode="D" d="M0 0v1536h725q299 0 299 -256v-1024q0 -256 -299 -256h-725zM213 171h427q171 0 171 128v938q0 128 -171 128h-427v-1194z" />
<glyph unicode="E" horiz-adv-x="1024" d="M0 0v1536h853v-171h-640v-490h534v-171h-534v-533h640v-171h-853z" />
<glyph unicode="&#x415;" horiz-adv-x="1024" d="M0 0v1536h853v-171h-640v-490h534v-171h-534v-533h640v-171h-853z" />
<glyph unicode="&#x395;" horiz-adv-x="1024" d="M0 0v1536h853v-171h-640v-490h534v-171h-534v-533h640v-171h-853z" />
<glyph unicode="F" horiz-adv-x="1024" d="M0 0v1536h853v-171h-640v-490h534v-171h-534v-704h-213z" />
<glyph unicode="&#x3dc;" horiz-adv-x="1024" d="M0 0v1536h853v-171h-640v-490h534v-171h-534v-704h-213z" />
<glyph unicode="G" d="M0 256v1024q0 277 512 277t512 -277v-213h-213v170q0 149 -299 149.5t-299 -149.5v-938q0 -149 299 -149.5t299 149.5v384h-420v170h633v-853h-96l-67 149q-50 -171 -349 -170q-512 0 -512 277z" />
<glyph unicode="H" horiz-adv-x="1109" d="M0 0v1536h213v-683h512v683h214v-1536h-214v683h-512v-683h-213z" />
<glyph unicode="&#x41d;" horiz-adv-x="1109" d="M0 0v1536h213v-683h512v683h214v-1536h-214v683h-512v-683h-213z" />
<glyph unicode="&#x397;" horiz-adv-x="1109" d="M0 0v1536h213v-683h512v683h214v-1536h-214v683h-512v-683h-213z" />
<glyph unicode="I" horiz-adv-x="554" d="M0 0v171h85v1194h-85v171h384v-171h-85v-1194h85v-171h-384z" />
<glyph unicode="&#x4c0;" horiz-adv-x="554" d="M0 0v171h85v1194h-85v171h384v-171h-85v-1194h85v-171h-384z" />
<glyph unicode="&#x406;" horiz-adv-x="554" d="M0 0v171h85v1194h-85v171h384v-171h-85v-1194h85v-171h-384z" />
<glyph unicode="&#x399;" horiz-adv-x="554" d="M0 0v171h85v1194h-85v171h384v-171h-85v-1194h85v-171h-384z" />
<glyph unicode="J" horiz-adv-x="1066" d="M0 256v213h213v-170q0 -149 235 -149.5t235 149.5v1237h213v-1280q0 -277 -448 -277t-448 277z" />
<glyph unicode="&#x408;" horiz-adv-x="1066" d="M0 256v213h213v-170q0 -149 235 -149.5t235 149.5v1237h213v-1280q0 -277 -448 -277t-448 277z" />
<glyph unicode="K" horiz-adv-x="1109" d="M0 0v1536h213v-643l484 643h247l-442 -617l484 -919h-252l-371 741l-150 -203v-538h-213z" />
<glyph unicode="&#x39a;" horiz-adv-x="1109" d="M0 0v1536h213v-643l484 643h247l-442 -617l484 -919h-252l-371 741l-150 -203v-538h-213z" />
<glyph unicode="L" horiz-adv-x="1024" d="M0 0v1536h213v-1365h640v-171h-853z" />
<glyph unicode="M" horiz-adv-x="1536" d="M0 0v1536h299l384 -1173l384 1173h298v-1536h-213v1109l-363 -1109h-213l-363 1109v-1109h-213z" />
<glyph unicode="&#x41c;" horiz-adv-x="1536" d="M0 0v1536h299l384 -1173l384 1173h298v-1536h-213v1109l-363 -1109h-213l-363 1109v-1109h-213z" />
<glyph unicode="&#x39c;" horiz-adv-x="1536" d="M0 0v1536h299l384 -1173l384 1173h298v-1536h-213v1109l-363 -1109h-213l-363 1109v-1109h-213z" />
<glyph unicode="N" horiz-adv-x="1109" d="M0 0v1536h256l469 -1109v1109h214v-1536h-256l-470 1109v-1109h-213z" />
<glyph unicode="&#x39d;" horiz-adv-x="1109" d="M0 0v1536h256l469 -1109v1109h214v-1536h-256l-470 1109v-1109h-213z" />
<glyph unicode="O" d="M0 256v1024q0 277 512 277t512 -277v-1024q0 -277 -512 -277t-512 277zM213 299q0 -149 299 -149.5t299 149.5v938q0 149 -299 149.5t-299 -149.5v-938z" />
<glyph unicode="&#x41e;" d="M0 256v1024q0 277 512 277t512 -277v-1024q0 -277 -512 -277t-512 277zM213 299q0 -149 299 -149.5t299 149.5v938q0 149 -299 149.5t-299 -149.5v-938z" />
<glyph unicode="&#x39f;" d="M0 256v1024q0 277 512 277t512 -277v-1024q0 -277 -512 -277t-512 277zM213 299q0 -149 299 -149.5t299 149.5v938q0 149 -299 149.5t-299 -149.5v-938z" />
<glyph unicode="P" d="M-2 1536h642q384 0 384 -299v-341q0 -299 -384 -299h-427v-597h-214zM213 768h342q256 0 256 171v256q0 171 -256 170h-342v-597z" />
<glyph unicode="&#x420;" d="M-2 1536h642q384 0 384 -299v-341q0 -299 -384 -299h-427v-597h-214zM213 768h342q256 0 256 171v256q0 171 -256 170h-342v-597z" />
<glyph unicode="&#x3a1;" d="M-2 1536h642q384 0 384 -299v-341q0 -299 -384 -299h-427v-597h-214zM213 768h342q256 0 256 171v256q0 171 -256 170h-342v-597z" />
<glyph unicode="Q" d="M0 256q0 -277 512 -277q145 0 256 19l90 -88l170 47l-107 106q103 73 103 186v7v1024q0 277 -512 277t-512 -277v-1024zM213 299v938q0 149 299 149.5t299 -149.5v-938q2 -51 -40 -89l-232 235l-165 -51l240 -240q-49 -5 -90 -5h-12q-299 1 -299 150z" />
<glyph unicode="R" d="M0 0v1536h683q341 0 341 -256v-256q0 -256 -213 -256q213 0 213 -256v-427q0 -85 85 -85h-213q-85 0 -85 85v470q0 128 -171 128h-427v-683h-213zM213 853h427q171 0 171 128v256q0 128 -171 128h-427v-512z" />
<glyph unicode="S" d="M0 256v213h213v-170q0 -149 299 -149.5t299 149.5v256v5q0 123 -197 155l-204 32q-410 64 -410 277v256q0 277 512 277t512 -277v-213h-213v170q0 149 -299 149.5t-299 -149.5v-128q0 -128 197 -160l204 -32q410 -64 410 -320v-341q0 -277 -512 -277t-512 277z" />
<glyph unicode="&#x405;" d="M0 256v213h213v-170q0 -149 299 -149.5t299 149.5v256v5q0 123 -197 155l-204 32q-410 64 -410 277v256q0 277 512 277t512 -277v-213h-213v170q0 149 -299 149.5t-299 -149.5v-128q0 -128 197 -160l204 -32q410 -64 410 -320v-341q0 -277 -512 -277t-512 277z" />
<glyph unicode="T" horiz-adv-x="1237" d="M0 1365v171h1067v-171h-427v-1365h-213v1365h-427z" />
<glyph unicode="&#x422;" horiz-adv-x="1237" d="M0 1365v171h1067v-171h-427v-1365h-213v1365h-427z" />
<glyph unicode="&#x3a4;" horiz-adv-x="1237" d="M0 1365v171h1067v-171h-427v-1365h-213v1365h-427z" />
<glyph unicode="U" d="M0 256v1280h213v-1237q0 -149 299 -149.5t299 149.5v1237h213v-1280q0 -277 -512 -277t-512 277z" />
<glyph unicode="V" horiz-adv-x="1382" d="M0 1536l521 -1536h238l521 1536h-256l-384 -1212l-384 1212h-256z" />
<glyph unicode="W" horiz-adv-x="1860" d="M0 1536l452 -1536h256l171 870l171 -870h256l452 1536h-239l-341 -1212l-171 1212h-256l-171 -1212l-341 1212h-239z" />
<glyph unicode="X" horiz-adv-x="1364" d="M0 0l482 768l-482 768h247l384 -627l384 627h248l-482 -768l482 -768h-248l-384 627l-384 -627h-247z" />
<glyph unicode="&#x425;" horiz-adv-x="1364" d="M0 0l482 768l-482 768h247l384 -627l384 627h248l-482 -768l482 -768h-248l-384 627l-384 -627h-247z" />
<glyph unicode="&#x3a7;" horiz-adv-x="1364" d="M0 0l482 768l-482 768h247l384 -627l384 627h248l-482 -768l482 -768h-248l-384 627l-384 -627h-247z" />
<glyph unicode="Y" horiz-adv-x="1339" d="M0 1536h256l363 -768l362 768h256l-512 -981v-555h-213v555z" />
<glyph unicode="&#x4ae;" horiz-adv-x="1339" d="M0 1536h256l363 -768l362 768h256l-512 -981v-555h-213v555z" />
<glyph unicode="&#x3a5;" horiz-adv-x="1339" d="M0 1536h256l363 -768l362 768h256l-512 -981v-555h-213v555z" />
<glyph unicode="Z" horiz-adv-x="1066" d="M0 0v171l661 1194h-661v171h896v-171l-661 -1194h661v-171h-896z" />
<glyph unicode="&#x396;" horiz-adv-x="1066" d="M0 0v171l661 1194h-661v171h896v-171l-661 -1194h661v-171h-896z" />
<glyph unicode="[" horiz-adv-x="597" d="M0 -171h427v171h-214v1536h214v171h-427v-1878z" />
<glyph unicode="\" horiz-adv-x="1088" d="M-3 1575l867 -1630h227l-879 1630h-215z" />
<glyph unicode="]" horiz-adv-x="597" d="M0 0v-171h427v1878h-427v-171h213v-1536h-213z" />
<glyph unicode="^" horiz-adv-x="768" d="M2 1067l275 469h43l277 -469h-85l-213 213l-214 -213h-83z" />
<glyph unicode="_" d="M0 -128v-85h1195v85h-1195z" />
<glyph unicode="`" horiz-adv-x="384" d="M0 1429q0 -235 213 -234v64q-107 0 -106 64q107 0 106.5 106.5t-107 106.5t-106.5 -107z" />
<glyph unicode="a" horiz-adv-x="1024" d="M0 256v145q0 265 427 265q213 0 213 102v43q0 149 -213 149q-183 0 -184 -149v-86h-213v128q0 277 397 278q427 0 426 -278v-704q0 -149 86 -149h-214q-85 0 -85 149q0 -171 -265 -170q-375 0 -375 277zM213 299q0 -149 213.5 -149.5t213.5 201.5v221q0 -77 -213.5 -77 t-213.5 -137v-59z" />
<glyph unicode="&#x430;" horiz-adv-x="1024" d="M0 256v145q0 265 427 265q213 0 213 102v43q0 149 -213 149q-183 0 -184 -149v-86h-213v128q0 277 397 278q427 0 426 -278v-704q0 -149 86 -149h-214q-85 0 -85 149q0 -171 -265 -170q-375 0 -375 277zM213 299q0 -149 213.5 -149.5t213.5 201.5v221q0 -77 -213.5 -77 t-213.5 -137v-59z" />
<glyph unicode="b" horiz-adv-x="1109" d="M0 0v1579h213v-619q0 171 363 171t363 -278v-597q0 -277 -363 -277t-363 170v-149h-213zM213 299q0 -149 256 -149.5t256 149.5v512q0 149 -256 149t-256 -149v-512z" />
<glyph unicode="c" horiz-adv-x="1109" d="M0 256v597q0 277 469.5 277.5t469.5 -277.5v-170h-214v128q0 149 -256 149t-256 -149v-512q0 -149 256 -149.5t256 149.5v128h214v-171q0 -277 -469.5 -277t-469.5 277z" />
<glyph unicode="&#x441;" horiz-adv-x="1109" d="M0 256v597q0 277 469.5 277.5t469.5 -277.5v-170h-214v128q0 149 -256 149t-256 -149v-512q0 -149 256 -149.5t256 149.5v128h214v-171q0 -277 -469.5 -277t-469.5 277z" />
<glyph unicode="&#x3f2;" horiz-adv-x="1109" d="M0 256v597q0 277 469.5 277.5t469.5 -277.5v-170h-214v128q0 149 -256 149t-256 -149v-512q0 -149 256 -149.5t256 149.5v128h214v-171q0 -277 -469.5 -277t-469.5 277z" />
<glyph unicode="d" horiz-adv-x="1109" d="M0 256v597q0 277 362.5 277.5t362.5 -170.5v619h214v-1579h-214v149q0 -171 -362.5 -170.5t-362.5 277.5zM213 299q0 -149 256 -149.5t256 149.5v512q0 149 -256 149t-256 -149v-512z" />
<glyph unicode="e" horiz-adv-x="1109" d="M0 256v597q0 277 469.5 277.5t469.5 -277.5v-384h-726v-170q0 -149 256 -149.5t256 149.5v85h214v-128q0 -277 -469.5 -277t-469.5 277zM213 640h512v171q0 149 -256 149t-256 -149v-171z" />
<glyph unicode="&#x435;" horiz-adv-x="1109" d="M0 256v597q0 277 469.5 277.5t469.5 -277.5v-384h-726v-170q0 -149 256 -149.5t256 149.5v85h214v-128q0 -277 -469.5 -277t-469.5 277zM213 640h512v171q0 149 -256 149t-256 -149v-171z" />
<glyph unicode="f" horiz-adv-x="716" d="M0 939h119v-939h214v939h213v170h-213v171q0 128 213 128v171h-201q-225 0 -226 -256v-214h-119v-170z" />
<glyph unicode="g" horiz-adv-x="1109" d="M0 -64h213v-64q0 -107 256 -107t256 107v277q0 -171 -362.5 -170.5t-362.5 277.5v597q0 277 362.5 277.5t362.5 -170.5v149h214v-1280q0 -235 -469.5 -234.5t-469.5 234.5v107zM213 299q0 -149 256 -149.5t256 149.5v512q0 149 -256 149t-256 -149v-512z" />
<glyph unicode="h" horiz-adv-x="1109" d="M0 0v1579h213v-619q0 171 363 171t363 -278v-853h-214v811q0 149 -256 149t-256 -149v-811h-213z" />
<glyph unicode="&#x4bb;" horiz-adv-x="1109" d="M0 0v1579h213v-619q0 171 363 171t363 -278v-853h-214v811q0 149 -256 149t-256 -149v-811h-213z" />
<glyph unicode="i" horiz-adv-x="384" d="M-17 1440q0 117 123.5 117t123.5 -117t-123.5 -117t-123.5 117zM0 0v1109h213v-1109h-213z" />
<glyph unicode="&#x456;" horiz-adv-x="384" d="M-17 1440q0 117 123.5 117t123.5 -117t-123.5 -117t-123.5 117zM0 0v1109h213v-1109h-213z" />
<glyph unicode="j" horiz-adv-x="384" d="M-154 -405l1 170q153 0 153 150v1194h213v-1292q0 -222 -214 -222h-153zM-17 1440q0 117 123.5 117t123.5 -117t-123.5 -117t-123.5 117z" />
<glyph unicode="&#x458;" horiz-adv-x="384" d="M-154 -405l1 170q153 0 153 150v1194h213v-1292q0 -222 -214 -222h-153zM-17 1440q0 117 123.5 117t123.5 -117t-123.5 -117t-123.5 117z" />
<glyph unicode="&#x3f3;" horiz-adv-x="384" d="M-154 -405l1 170q153 0 153 150v1194h213v-1292q0 -222 -214 -222h-153zM-17 1440q0 117 123.5 117t123.5 -117t-123.5 -117t-123.5 117z" />
<glyph unicode="k" horiz-adv-x="1024" d="M0 0v1579h213v-1028l395 558h246l-345 -501l360 -608h-245l-250 413l-161 -226v-187h-213z" />
<glyph unicode="l" horiz-adv-x="384" d="M0 0v1579h213v-1579h-213z" />
<glyph unicode="m" horiz-adv-x="1629" d="M0 0h213v811q0 149 205 149t205 -149v-811h213v811q0 149 205 149t205 -149v-811h213v853q0 277 -291.5 277.5t-352.5 -136.5q-47 137 -324.5 137t-277.5 -171v149h-213v-1109z" />
<glyph unicode="n" horiz-adv-x="1109" d="M0 0v1109h213v-149q0 171 363 171t363 -278v-853h-214v811q0 149 -256 149t-256 -149v-811h-213z" />
<glyph unicode="o" horiz-adv-x="1109" d="M0 256v597q0 277 469.5 277.5t469.5 -277.5v-597q0 -277 -469.5 -277t-469.5 277zM213 299q0 -149 256 -149.5t256 149.5v512q0 149 -256 149t-256 -149v-512z" />
<glyph unicode="&#x43e;" horiz-adv-x="1109" d="M0 256v597q0 277 469.5 277.5t469.5 -277.5v-597q0 -277 -469.5 -277t-469.5 277zM213 299q0 -149 256 -149.5t256 149.5v512q0 149 -256 149t-256 -149v-512z" />
<glyph unicode="&#x3bf;" horiz-adv-x="1109" d="M0 256v597q0 277 469.5 277.5t469.5 -277.5v-597q0 -277 -469.5 -277t-469.5 277zM213 299q0 -149 256 -149.5t256 149.5v512q0 149 -256 149t-256 -149v-512z" />
<glyph unicode="p" horiz-adv-x="1109" d="M0 -405v1514h213v-149q0 171 363 171t363 -278v-597q0 -277 -363 -277t-363 170v-554h-213zM213 299q0 -149 256 -149.5t256 149.5v512q0 149 -256 149t-256 -149v-512z" />
<glyph unicode="&#x440;" horiz-adv-x="1109" d="M0 -405v1514h213v-149q0 171 363 171t363 -278v-597q0 -277 -363 -277t-363 170v-554h-213zM213 299q0 -149 256 -149.5t256 149.5v512q0 149 -256 149t-256 -149v-512z" />
<glyph unicode="q" horiz-adv-x="1109" d="M0 256v597q21 277 373 277.5t352 -170.5v149h214v-1514h-214v554q0 -171 -354 -170.5t-371 277.5zM213 299q0 -149 256 -149.5t256 149.5v512q0 149 -256 149t-256 -149v-512z" />
<glyph unicode="r" horiz-adv-x="972" d="M0 0v1109h213v-149q0 171 294.5 171t294.5 -278v-128h-213v86q0 149 -188 149t-188 -149v-811h-213z" />
<glyph unicode="s" horiz-adv-x="1109" d="M0 256q0 -277 469.5 -277t469.5 277v149q0 236 -470 256q-235 10 -234 100v50q0 149 234.5 149t234.5 -149v-86h213v128q0 277 -448 277.5t-448 -277.5v-106q0 -259 448 -278q256 -15 256 -106v-64q0 -149 -256 -149.5t-256 149.5v85h-213v-128z" />
<glyph unicode="&#x455;" horiz-adv-x="1109" d="M0 256q0 -277 469.5 -277t469.5 277v149q0 236 -470 256q-235 10 -234 100v50q0 149 234.5 149t234.5 -149v-86h213v128q0 277 -448 277.5t-448 -277.5v-106q0 -259 448 -278q256 -15 256 -106v-64q0 -149 -256 -149.5t-256 149.5v85h-213v-128z" />
<glyph unicode="t" horiz-adv-x="716" d="M0 939v170h119v342h214v-342h213v-170h-213v-598q0 -171 213 -170v-171h-213q-213 0 -214 256v683h-119z" />
<glyph unicode="u" horiz-adv-x="1109" d="M0 256v853h213v-810q0 -149 256 -149.5t256 149.5v810h214v-1109h-214v149q0 -171 -362.5 -170.5t-362.5 277.5z" />
<glyph unicode="v" horiz-adv-x="1177" d="M0 1109h256l282 -862l281 862h256l-409 -1109h-256z" />
<glyph unicode="w" horiz-adv-x="1297" d="M0 1109h213l145 -716l133 716h213l124 -716l153 716h214l-248 -1109h-213l-137 623l-136 -623h-214z" />
<glyph unicode="x" horiz-adv-x="1100" d="M0 0l397 542l-397 567h247l252 -439l252 439h247l-396 -567l396 -542h-247l-252 397l-252 -397h-247z" />
<glyph unicode="&#x445;" horiz-adv-x="1100" d="M0 0l397 542l-397 567h247l252 -439l252 439h247l-396 -567l396 -542h-247l-252 397l-252 -397h-247z" />
<glyph unicode="y" d="M0 1109h256l299 -860l281 860h256l-502 -1293q-71 -221 -244 -221h-158v170h131q74 0 103 106l41 129z" />
<glyph unicode="&#x443;" d="M0 1109h256l299 -860l281 860h256l-502 -1293q-71 -221 -244 -221h-158v170h131q74 0 103 106l41 129z" />
<glyph unicode="z" horiz-adv-x="1024" d="M0 0v171l606 768h-606v170h853v-170l-606 -768h606v-171h-853z" />
<glyph unicode="{" horiz-adv-x="682" d="M0 683q128 0 128 -128v-427q0 -299 341 -299h43v171h-43q-128 0 -128 85v512q0 171 -128 171q128 0 128 171v512q0 85 128 85h43v171h-43q-341 0 -341 -299v-427q0 -128 -128 -128v-170z" />
<glyph unicode="|" horiz-adv-x="298" d="M0 -384v2261h128v-2261h-128z" />
<glyph unicode="}" horiz-adv-x="682" d="M0 0v-171h43q341 0 341 299v427q0 128 128 128v170q-128 0 -128 128v427q0 299 -341 299h-43v-171h43q128 0 128 -85v-512q0 -171 128 -171q-128 0 -128 -171v-512q0 -85 -128 -85h-43z" />
<glyph unicode="~" horiz-adv-x="1152" d="M0 640v43q0 256 341 256q171 0 203 -85.5t138.5 -85.5t106.5 85v43h192v-43q0 -256 -341 -256q-171 0 -203 85.5t-138.5 85.5t-106.5 -85v-43h-192z" />
<glyph unicode="&#xa1;" horiz-adv-x="384" d="M0 -427h213l-30 1216h-162zM0 1002.5q0 -106.5 106.5 -106.5t106.5 106.5t-106.5 106.5t-106.5 -106.5z" />
<glyph unicode="&#xa2;" horiz-adv-x="1109" d="M0 469v598q0 277 363 277v192h213v-192q363 0 363 -277v-171h-214v128q0 149 -256 149t-256 -149v-512q0 -149 256 -149t256 149v128h214v-171q0 -277 -363 -277v-192h-213v192q-363 0 -363 277z" />
<glyph unicode="&#xa3;" horiz-adv-x="1322" d="M0 0v171q171 0 171 201v311h-171v170h171v439q0 265 499 265q482 0 482 -265v-225h-213v167q0 153 -267 153q-288 0 -288 -158v-376h427v-170h-427v-247q0 -265 -126 -265h894v-171h-1152z" />
<glyph unicode="&#xa4;" horiz-adv-x="1280" d="M-85 555v128h85v170h-85v128h85v299q0 277 512 277t512 -277v-213h-213v170q0 149 -299 149.5t-299 -149.5v-256h470l-43 -128h-427v-170h384l-42 -128h-342v-256q0 -149 299 -149.5t299 149.5v170h213v-213q0 -277 -512 -277t-512 277v299h-85z" />
<glyph unicode="&#x20ac;" horiz-adv-x="1280" d="M-85 555v128h85v170h-85v128h85v299q0 277 512 277t512 -277v-213h-213v170q0 149 -299 149.5t-299 -149.5v-256h470l-43 -128h-427v-170h384l-42 -128h-342v-256q0 -149 299 -149.5t299 149.5v170h213v-213q0 -277 -512 -277t-512 277v299h-85z" />
<glyph unicode="&#xa5;" horiz-adv-x="1338" d="M0 1536h256l363 -768l362 768h256l-512 -981v-43h171v-85h-171v-86h171v-85h-171v-256h-213v256h-171v85h171v86h-171v85h171v43z" />
<glyph unicode="&#xa6;" horiz-adv-x="368" d="M128 -373v969h113v-969h-113zM128 946v960h113v-960h-113z" />
<glyph unicode="&#xa7;" d="M0 21h213v-42q0 -128 299 -128t299 128v85q0 111 -299 171q-512 102 -512 298v171q0 183 158 239q-158 90 -158 230v171q0 213 512 213t512 -213v-128h-213v43q0 128 -299 128t-299 -128v-86q0 -81 299 -170q512 -141 512 -299v-171q0 -183 -158 -239q162 -81 158 -230 v-171q0 -213 -512 -213t-512 213v128zM213 619q0 -154 299 -214l107 -17q192 17 192 145v86q0 124 -299 213l-98 26q-201 -26 -201 -154v-85z" />
<glyph unicode="&#xa8;" horiz-adv-x="810" d="M0 1514.5q0 106.5 106.5 106.5t106.5 -106.5t-106.5 -106.5t-106.5 106.5zM427 1514.5q0 106.5 106.5 106.5t106.5 -106.5t-106.5 -106.5t-106.5 106.5z" />
<glyph unicode="&#xa9;" horiz-adv-x="1527" d="M0 410q0 -431 640 -431t640 408v806q0 364 -640 364t-640 -408v-739zM213 406v731q0 250 427 250t427 -249v-737q0 -252 -427 -252t-427 257zM256 501q0 -245 384 -245t384 253v158h-213v-108q0 -132 -171 -132t-171 165v356q0 161 171 161t171 -161v-104l213 1v161 q0 274 -384 274t-384 -269v-510z" />
<glyph unicode="&#xaa;" horiz-adv-x="631" d="M-77 734v119h598v-119h-598zM0 1067v72q0 132 213 132q107 0 107 52v21q0 74 -107 74q-92 0 -92 -74v-43h-106v64q0 138 198 139q213 0 214 -139v-351q0 -75 42 -75h-106q-43 0 -43 75q0 -86 -132 -86q-188 1 -188 139zM107 1088q0 -74 106.5 -74t106.5 100v111 q0 -38 -106.5 -38.5t-106.5 -68.5v-30z" />
<glyph unicode="&#xab;" horiz-adv-x="1024" d="M0 730l360 -233v167l-173 102l173 98v177l-360 -225v-86zM410 730l360 -233v167l-174 102l174 98v177l-360 -225v-86z" />
<glyph unicode="&#xac;" horiz-adv-x="1284" d="M131 951v197h1024v-538h-205v341h-819z" />
<glyph unicode="&#xad;" horiz-adv-x="758" d="M123 670h512v188h-512v-188z" />
<glyph unicode="&#xae;" horiz-adv-x="1527" d="M0 410q0 -431 631 -431q649 0 649 408v806q0 364 -648 364q-632 0 -632 -408v-739zM213 406v731q0 250 419 250q434 0 435 -249v-737q0 -252 -440 -252q-414 0 -414 257zM256 341h213v299h233q108 0 109 -86v-119q0 -94 76 -94h196q-59 0 -59 93v157q0 134 -144 134 q144 0 144 153v122q0 195 -264 195h-504v-854zM469 811v213h235q107 0 107 -48v-87q0 -79 -112 -78h-230z" />
<glyph unicode="&#xaf;" horiz-adv-x="853" d="M0 1408v85h683v-85h-683z" />
<glyph unicode="&#x2c9;" horiz-adv-x="853" d="M0 1408v85h683v-85h-683z" />
<glyph unicode="&#xb0;" horiz-adv-x="853" d="M0 1067q0 -213 341.5 -213.5t341.5 213.5v256q0 213 -341.5 213t-341.5 -213v-256zM171 1109v171q0 128 170.5 128t170.5 -128v-171q0 -128 -170.5 -128t-170.5 128z" />
<glyph unicode="&#xb1;" horiz-adv-x="938" d="M0 171v170h853v-170h-853zM0 853v171h341v341h171v-341h341v-171h-341v-341h-171v341h-341z" />
<glyph unicode="&#xb2;" horiz-adv-x="853" d="M0 768v250q0 175 341 219q128 21 128 85.5t-128 64.5t-128 -64v-43h-213v85q0 192 341.5 192t341.5 -192v-85q0 -171 -342 -213q-128 -21 -128 -128h470v-171h-683z" />
<glyph unicode="&#xb3;" horiz-adv-x="896" d="M0 934q0 -187 362.5 -187t362.5 234q0 171 -148 171q148 0 148 171q0 235 -362.5 234.5t-362.5 -216.5v-69l213 -1q0 115 149.5 115.5t149.5 -85t-107 -85.5h-128v-128h128q107 0 107 -85.5t-149.5 -85.5t-149.5 96l-213 -1v-78z" />
<glyph unicode="&#xb4;" horiz-adv-x="512" d="M0 1365l107 256h234l-213 -256h-128z" />
<glyph unicode="&#x384;" horiz-adv-x="512" d="M0 1365l107 256h234l-213 -256h-128z" />
<glyph unicode="&#x2ca;" horiz-adv-x="512" d="M0 1365l107 256h234l-213 -256h-128z" />
<glyph unicode="&#xb5;" horiz-adv-x="1322" d="M0 -405v1514h213v-810q0 -149 256 -149.5t256 149.5v810h214v-853q64 -154 256 0v-213q-196 -137 -299 85q0 -149 -341.5 -149t-341.5 170v-554h-213z" />
<glyph unicode="&#x3bc;" horiz-adv-x="1322" d="M0 -405v1514h213v-810q0 -149 256 -149.5t256 149.5v810h214v-853q64 -154 256 0v-213q-196 -137 -299 85q0 -149 -341.5 -149t-341.5 170v-554h-213z" />
<glyph unicode="&#xb6;" d="M0 896v341q0 299 384 299h642l-1 -1536h-214v1365h-86v-1365h-213v597h-128q-384 0 -384 299z" />
<glyph unicode="&#xb7;" horiz-adv-x="469" d="M127 685q0 -108 105 -108t105 108q0 109 -105 109t-105 -109z" />
<glyph unicode="&#x2219;" horiz-adv-x="469" d="M127 685q0 -108 105 -108t105 108q0 109 -105 109t-105 -109z" />
<glyph unicode="&#x387;" horiz-adv-x="469" d="M127 685q0 -108 105 -108t105 108q0 109 -105 109t-105 -109z" />
<glyph unicode="&#xb8;" horiz-adv-x="554" d="M0 -239l85 1v-28q0 -54 107 -54t107 55v73q0 43 -32 43t-32 -34v-30h-86v256h86v-168q0 40 74.5 40t74.5 -95v-108q0 -96 -192 -96t-192 96v49z" />
<glyph unicode="&#xb9;" horiz-adv-x="554" d="M0 1237h171v-469h213v768h-213q0 -128 -171 -128v-171z" />
<glyph unicode="&#xba;" horiz-adv-x="648" d="M-60 734v119h598v-119h-598zM0 1067v298q0 138 234.5 138.5t234.5 -138.5v-298q0 -138 -234.5 -138t-234.5 138zM107 1088q0 -74 128 -74t128 74v256q0 74 -128 74t-128 -74v-256z" />
<glyph unicode="&#xbb;" horiz-adv-x="1024" d="M126 497v167l174 102l-174 98v177l360 -225v-86zM536 497v167l173 102l-173 98v177l360 -225v-86z" />
<glyph unicode="&#xbc;" horiz-adv-x="1493" d="M128 -43l1088 1622h149l-1088 -1622h-149zM311 1429h124v-618h107v768h-107q0 -64 -124 -64v-86zM768 107h358v-150h107v150h47v85h-47v533h-107l-358 -533v-85zM870 192l256 378v-378h-256z" />
<glyph unicode="&#xbd;" horiz-adv-x="1493" d="M128 -43l1088 1622h149l-1088 -1622h-149zM311 1429h124v-618h107v768h-107q0 -64 -124 -64v-86zM853 -68v298q0 107 205 139l103 16q98 16 98 80v85q0 74 -151 75q-148 0 -148 -75v-85h-107v107q0 138 256 138t256 -138v-128q0 -107 -204 -139l-103 -16q-98 -16 -98 -80 v-192h405v-85h-512z" />
<glyph unicode="&#xbe;" horiz-adv-x="1493" d="M128 -43l1088 1622h149l-1088 -1622h-149zM128 939v106h107v-85q0 -74 149 -74t149 74v149q0 64 -85 64h-149v86h149q85 0 85 64v106q0 74 -149 74.5t-149 -74.5v-85h-107v107q0 138 256 138t256 -138v-107q0 -128 -107 -128q107 0 107 -128v-149q0 -138 -256 -138 t-256 138zM768 107h358v-150h107v150h47v85h-47v533h-107l-358 -533v-85zM870 192l256 378v-378h-256z" />
<glyph unicode="&#xbf;" d="M0 128q0 208 207 249l185 56q78 22 77 79v128h214v-160q-4 -160 -164 -204l-190 -50q-115 -47 -116 -119v-235q0 -149 307 -149q291 0 291 149v171h213v-214q0 -277 -506 -277q-518 0 -518 277v299zM469 1002.5q0 -106.5 107 -106.5t107 106.5t-107 106.5t-107 -106.5z " />
<glyph unicode="&#xc0;" horiz-adv-x="1382" d="M0 0l521 1536h238l521 -1536h-256l-137 427h-494l-137 -427h-256zM363 1877h256l85 -256h-128zM448 597h384l-192 615z" />
<glyph unicode="&#xc1;" horiz-adv-x="1382" d="M0 0l521 1536h238l521 -1536h-256l-137 427h-494l-137 -427h-256zM448 597h384l-192 615zM576 1621l107 256h234l-213 -256h-128z" />
<glyph unicode="&#xc2;" horiz-adv-x="1382" d="M0 0l521 1536h238l521 -1536h-256l-137 427h-494l-137 -427h-256zM386 1719l238 163h32l240 -163l-80 -97l-176 128l-176 -128zM448 597h384l-192 615z" />
<glyph unicode="&#xc3;" horiz-adv-x="1382" d="M0 0l521 1536h238l521 -1536h-256l-137 427h-494l-137 -427h-256zM256 1579v42q0 213 256 214q107 0 171 -64t160 -64t96 85v43h128v-43q0 -213 -256 -213q-107 0 -171 64t-160 64t-96 -86v-42h-128zM448 597h384l-192 615z" />
<glyph unicode="&#xc4;" horiz-adv-x="1382" d="M0 0l521 1536h238l521 -1536h-256l-137 427h-494l-137 -427h-256zM320 1770.5q0 106.5 106.5 106.5t106.5 -106.5t-106.5 -106.5t-106.5 106.5zM448 597h384l-192 615zM747 1770.5q0 106.5 106.5 106.5t106.5 -106.5t-106.5 -106.5t-106.5 106.5z" />
<glyph unicode="&#x4d2;" horiz-adv-x="1382" d="M0 0l521 1536h238l521 -1536h-256l-137 427h-494l-137 -427h-256zM320 1770.5q0 106.5 106.5 106.5t106.5 -106.5t-106.5 -106.5t-106.5 106.5zM448 597h384l-192 615zM747 1770.5q0 106.5 106.5 106.5t106.5 -106.5t-106.5 -106.5t-106.5 106.5z" />
<glyph unicode="&#xc5;" horiz-adv-x="1382" d="M0 0l521 1536h238l521 -1536h-256l-137 427h-494l-137 -427h-256zM448 597h384l-192 615zM469 1685v86q0 128 171 128t171 -128v-86q0 -128 -171 -128t-171 128zM555 1707q0 -64 85 -64t85 64v42q0 64 -85 64t-85 -64v-42z" />
<glyph unicode="&#xc6;" horiz-adv-x="1800" d="M0 0l811 1536h853v-171h-640v-490h533v-171h-533v-533h640v-171h-853v299h-401l-154 -299h-256zM495 469h316v640z" />
<glyph unicode="&#x4d4;" horiz-adv-x="1800" d="M0 0l811 1536h853v-171h-640v-490h533v-171h-533v-533h640v-171h-853v299h-401l-154 -299h-256zM495 469h316v640z" />
<glyph unicode="&#xc7;" d="M0 256v1024q0 277 512 277t512 -277v-213h-213v170q0 149 -299 149.5t-299 -149.5v-938q0 -149 299 -149.5t299 149.5v170h213v-213q0 -277 -512 -277t-512 277zM299 -239l85 1v-28q0 -54 106.5 -54t106.5 55v73q0 43 -32 43t-32 -34v-30h-85v256h85v-168q0 40 75 40 t75 -95v-108q0 -96 -192 -96t-192 96v49z" />
<glyph unicode="&#xc8;" horiz-adv-x="1024" d="M0 0v1536h853v-171h-640v-490h534v-171h-534v-533h640v-171h-853zM171 1877h256l85 -256h-128z" />
<glyph unicode="&#x400;" horiz-adv-x="1024" d="M0 0v1536h853v-171h-640v-490h534v-171h-534v-533h640v-171h-853zM171 1877h256l85 -256h-128z" />
<glyph unicode="&#xc9;" horiz-adv-x="1024" d="M0 0v1536h853v-171h-640v-490h534v-171h-534v-533h640v-171h-853zM341 1621l107 256h235l-214 -256h-128z" />
<glyph unicode="&#xca;" horiz-adv-x="1024" d="M0 0v1536h853v-171h-640v-490h534v-171h-534v-533h640v-171h-853zM172 1676l238 164h33l240 -164l-81 -96l-175 128l-176 -128z" />
<glyph unicode="&#xcb;" horiz-adv-x="1024" d="M0 0v1536h853v-171h-640v-490h534v-171h-534v-533h640v-171h-853zM128 1770.5q0 106.5 106.5 106.5t106.5 -106.5t-106.5 -106.5t-106.5 106.5zM555 1770.5q0 106.5 106.5 106.5t106.5 -106.5t-106.5 -106.5t-106.5 106.5z" />
<glyph unicode="&#x401;" horiz-adv-x="1024" d="M0 0v1536h853v-171h-640v-490h534v-171h-534v-533h640v-171h-853zM128 1770.5q0 106.5 106.5 106.5t106.5 -106.5t-106.5 -106.5t-106.5 106.5zM555 1770.5q0 106.5 106.5 106.5t106.5 -106.5t-106.5 -106.5t-106.5 106.5z" />
<glyph unicode="&#xcc;" horiz-adv-x="554" d="M-85 1877h256l85 -256h-128zM0 0v171h85v1194h-85v171h384v-171h-85v-1194h85v-171h-384z" />
<glyph unicode="&#xcd;" horiz-adv-x="554" d="M0 0v171h85v1194h-85v171h384v-171h-85v-1194h85v-171h-384zM128 1621l107 256h234l-213 -256h-128z" />
<glyph unicode="&#xce;" horiz-adv-x="554" d="M-62 1676l238 164h32l240 -164l-80 -96l-176 128l-176 -128zM0 0v171h85v1194h-85v171h384v-171h-85v-1194h85v-171h-384z" />
<glyph unicode="&#xcf;" horiz-adv-x="554" d="M-128 1770.5q0 106.5 106.5 106.5t106.5 -106.5t-106.5 -106.5t-106.5 106.5zM0 0v171h85v1194h-85v171h384v-171h-85v-1194h85v-171h-384zM299 1770.5q0 106.5 106.5 106.5t106.5 -106.5t-106.5 -106.5t-106.5 106.5z" />
<glyph unicode="&#x407;" horiz-adv-x="554" d="M-128 1770.5q0 106.5 106.5 106.5t106.5 -106.5t-106.5 -106.5t-106.5 106.5zM0 0v171h85v1194h-85v171h384v-171h-85v-1194h85v-171h-384zM299 1770.5q0 106.5 106.5 106.5t106.5 -106.5t-106.5 -106.5t-106.5 106.5z" />
<glyph unicode="&#x3aa;" horiz-adv-x="554" d="M-128 1770.5q0 106.5 106.5 106.5t106.5 -106.5t-106.5 -106.5t-106.5 106.5zM0 0v171h85v1194h-85v171h384v-171h-85v-1194h85v-171h-384zM299 1770.5q0 106.5 106.5 106.5t106.5 -106.5t-106.5 -106.5t-106.5 106.5z" />
<glyph unicode="&#xd0;" horiz-adv-x="1322" d="M-171 683v170h171v683h725q299 0 299 -256v-1024q0 -256 -299 -256h-725v683h-171zM213 171h427q171 0 171 128v938q0 128 -171 128h-427v-512h171v-170h-171v-512z" />
<glyph unicode="&#x189;" horiz-adv-x="1322" d="M-171 683v170h171v683h725q299 0 299 -256v-1024q0 -256 -299 -256h-725v683h-171zM213 171h427q171 0 171 128v938q0 128 -171 128h-427v-512h171v-170h-171v-512z" />
<glyph unicode="&#x110;" horiz-adv-x="1322" d="M-171 683v170h171v683h725q299 0 299 -256v-1024q0 -256 -299 -256h-725v683h-171zM213 171h427q171 0 171 128v938q0 128 -171 128h-427v-512h171v-170h-171v-512z" />
<glyph unicode="&#xd1;" horiz-adv-x="1109" d="M0 0v1536h256l469 -1109v1109h214v-1536h-256l-470 1109v-1109h-213zM85 1579v42q0 213 256 214q107 0 171 -64t160 -64t96 85v43h128v-43q0 -213 -256 -213q-107 0 -171 64t-160 64t-96 -86v-42h-128z" />
<glyph unicode="&#xd2;" d="M0 256v1024q0 277 512 277t512 -277v-1024q0 -277 -512 -277t-512 277zM213 299q0 -149 299 -149.5t299 149.5v938q0 149 -299 149.5t-299 -149.5v-938zM256 1877h256l85 -256h-128z" />
<glyph unicode="&#xd3;" d="M0 256v1024q0 277 512 277t512 -277v-1024q0 -277 -512 -277t-512 277zM213 299q0 -149 299 -149.5t299 149.5v938q0 149 -299 149.5t-299 -149.5v-938zM427 1621l106 256h235l-213 -256h-128z" />
<glyph unicode="&#xd4;" d="M0 256v1024q0 277 512 277t512 -277v-1024q0 -277 -512 -277t-512 277zM213 299q0 -149 299 -149.5t299 149.5v938q0 149 -299 149.5t-299 -149.5v-938zM258 1676l238 164h32l240 -164l-80 -96l-176 128l-176 -128z" />
<glyph unicode="&#xd5;" d="M0 256v1024q0 277 512 277t512 -277v-1024q0 -277 -512 -277t-512 277zM128 1579v42q0 213 256 214q107 0 171 -64t160 -64t96 85v43h128v-43q0 -213 -256 -213q-107 0 -171 64t-160 64t-96 -86v-42h-128zM213 299q0 -149 299 -149.5t299 149.5v938q0 149 -299 149.5 t-299 -149.5v-938z" />
<glyph unicode="&#xd6;" d="M0 256v1024q0 277 512 277t512 -277v-1024q0 -277 -512 -277t-512 277zM192 1770.5q0 106.5 106.5 106.5t106.5 -106.5t-106.5 -106.5t-106.5 106.5zM213 299q0 -149 299 -149.5t299 149.5v938q0 149 -299 149.5t-299 -149.5v-938zM619 1770.5q0 106.5 106.5 106.5 t106.5 -106.5t-106.5 -106.5t-106.5 106.5z" />
<glyph unicode="&#x4e6;" d="M0 256v1024q0 277 512 277t512 -277v-1024q0 -277 -512 -277t-512 277zM192 1770.5q0 106.5 106.5 106.5t106.5 -106.5t-106.5 -106.5t-106.5 106.5zM213 299q0 -149 299 -149.5t299 149.5v938q0 149 -299 149.5t-299 -149.5v-938zM619 1770.5q0 106.5 106.5 106.5 t106.5 -106.5t-106.5 -106.5t-106.5 106.5z" />
<glyph unicode="&#xd7;" horiz-adv-x="1024" d="M-26 436l332 332l-332 332l121 120l332 -332l332 332l120 -120l-332 -332l332 -332l-120 -120l-332 332l-332 -332z" />
<glyph unicode="&#xd8;" d="M-149 495l149 90v695q0 277 512 277t512 -277v-111l55 30l107 -154l-162 -94v-695q0 -277 -512 -277t-512 277v102l-55 -25zM213 299q0 -149 299 -149.5t299 149.5v529l-598 -342v-187zM218 708l597 342v187q0 149 -298.5 149.5t-298.5 -149.5v-529z" />
<glyph unicode="&#xd9;" d="M0 256v1280h213v-1237q0 -149 299 -149.5t299 149.5v1237h213v-1280q0 -277 -512 -277t-512 277zM256 1877h256l85 -256h-128z" />
<glyph unicode="&#xda;" d="M0 256v1280h213v-1237q0 -149 299 -149.5t299 149.5v1237h213v-1280q0 -277 -512 -277t-512 277zM427 1621l106 256h235l-213 -256h-128z" />
<glyph unicode="&#xdb;" d="M0 256v1280h213v-1237q0 -149 299 -149.5t299 149.5v1237h213v-1280q0 -277 -512 -277t-512 277zM258 1676l238 164h32l240 -164l-80 -96l-176 128l-176 -128z" />
<glyph unicode="&#xdc;" d="M0 256v1280h213v-1237q0 -149 299 -149.5t299 149.5v1237h213v-1280q0 -277 -512 -277t-512 277zM192 1770.5q0 106.5 106.5 106.5t106.5 -106.5t-106.5 -106.5t-106.5 106.5zM619 1770.5q0 106.5 106.5 106.5t106.5 -106.5t-106.5 -106.5t-106.5 106.5z" />
<glyph unicode="&#xdd;" horiz-adv-x="1339" d="M0 1536h256l363 -768l362 768h256l-512 -981v-555h-213v555zM555 1621l106 256h235l-213 -256h-128z" />
<glyph unicode="&#xde;" d="M0 0v1536h213v-256h427q384 0 384 -299v-341q0 -299 -384 -299h-427v-341h-213zM213 512h342q256 0 256 171v256q0 171 -256 170h-342v-597z" />
<glyph unicode="&#xdf;" d="M-43 205l86 1v-206h213v1195q0 192 276 192q279 0 279 -192v-86q0 -171 -256 -170h-190l2 -171h188q256 0 256 -171v-298q0 -149 -128 -149.5t-128 149.5h-214v-43q0 -277 341.5 -277t341.5 277v384q0 213 -299 213q299 0 299 214v170q0 320 -482 320q-499 0 -499 -320 v-871h-86v-161z" />
<glyph unicode="&#xe0;" horiz-adv-x="1024" d="M0 256v145q0 265 427 265q213 0 213 102v43q0 149 -213 149q-183 0 -184 -149v-86h-213v128q0 277 397 278q427 0 426 -278v-704q0 -149 86 -149h-214q-85 0 -85 149q0 -171 -265 -170q-375 0 -375 277zM171 1451h256l85 -256h-128zM213 299q0 -149 213.5 -149.5 t213.5 201.5v221q0 -77 -213.5 -77t-213.5 -137v-59z" />
<glyph unicode="&#xe1;" horiz-adv-x="1024" d="M0 256v145q0 265 427 265q213 0 213 102v43q0 149 -213 149q-183 0 -184 -149v-86h-213v128q0 277 397 278q427 0 426 -278v-704q0 -149 86 -149h-214q-85 0 -85 149q0 -171 -265 -170q-375 0 -375 277zM213 299q0 -149 213.5 -149.5t213.5 201.5v221q0 -77 -213.5 -77 t-213.5 -137v-59zM341 1195l107 256h235l-214 -256h-128z" />
<glyph unicode="&#xe2;" horiz-adv-x="1024" d="M0 256v145q0 265 427 265q213 0 213 102v43q0 149 -213 149q-183 0 -184 -149v-86h-213v128q0 277 397 278q427 0 426 -278v-704q0 -149 86 -149h-214q-85 0 -85 149q0 -171 -265 -170q-375 0 -375 277zM172 1377l238 164h33l240 -164l-81 -96l-175 128l-176 -128z M213 299q0 -149 213.5 -149.5t213.5 201.5v221q0 -77 -213.5 -77t-213.5 -137v-59z" />
<glyph unicode="&#xe3;" horiz-adv-x="1024" d="M0 256v145q0 265 427 265q213 0 213 102v43q0 149 -213 149q-183 0 -184 -149v-86h-213v128q0 277 397 278q427 0 426 -278v-704q0 -149 86 -149h-214q-85 0 -85 149q0 -171 -265 -170q-375 0 -375 277zM43 1237v43q0 213 256 213q107 0 170.5 -64t159.5 -64t96 86v42 h128v-42q0 -213 -256 -214q-107 0 -170.5 64t-159.5 64t-96 -85v-43h-128zM213 299q0 -149 213.5 -149.5t213.5 201.5v221q0 -77 -213.5 -77t-213.5 -137v-59z" />
<glyph unicode="&#xe4;" horiz-adv-x="1024" d="M0 256v145q0 265 427 265q213 0 213 102v43q0 149 -213 149q-183 0 -184 -149v-86h-213v128q0 277 397 278q427 0 426 -278v-704q0 -149 86 -149h-214q-85 0 -85 149q0 -171 -265 -170q-375 0 -375 277zM128 1344q0 107 106.5 107t106.5 -107t-106.5 -107t-106.5 107z M213 299q0 -149 213.5 -149.5t213.5 201.5v221q0 -77 -213.5 -77t-213.5 -137v-59zM555 1344q0 107 106.5 107t106.5 -107t-106.5 -107t-106.5 107z" />
<glyph unicode="&#x4d3;" horiz-adv-x="1024" d="M0 256v145q0 265 427 265q213 0 213 102v43q0 149 -213 149q-183 0 -184 -149v-86h-213v128q0 277 397 278q427 0 426 -278v-704q0 -149 86 -149h-214q-85 0 -85 149q0 -171 -265 -170q-375 0 -375 277zM128 1344q0 107 106.5 107t106.5 -107t-106.5 -107t-106.5 107z M213 299q0 -149 213.5 -149.5t213.5 201.5v221q0 -77 -213.5 -77t-213.5 -137v-59zM555 1344q0 107 106.5 107t106.5 -107t-106.5 -107t-106.5 107z" />
<glyph unicode="&#xe5;" horiz-adv-x="1024" d="M0 256v145q0 265 427 265q213 0 213 102v43q0 149 -213 149q-183 0 -184 -149v-86h-213v128q0 277 397 278q427 0 426 -278v-704q0 -149 86 -149h-214q-85 0 -85 149q0 -171 -265 -170q-375 0 -375 277zM213 299q0 -149 213.5 -149.5t213.5 201.5v221q0 -77 -213.5 -77 t-213.5 -137v-59zM256 1301v86q0 128 170.5 128t170.5 -128v-86q0 -128 -170.5 -128t-170.5 128zM341 1323q0 -64 85.5 -64t85.5 64v42q0 64 -85.5 64t-85.5 -64v-42z" />
<glyph unicode="&#xe6;" horiz-adv-x="1749" d="M0 256v145q0 265 427 265q213 0 213 102v43q0 149 -213 149q-183 0 -184 -149v-86h-213v128q0 277 397 278q235 0 320 -107q85 107 362 107q469 0 470 -278v-384h-726v-128q0 -192 256 -192t256 150v85h214v-128q0 -277 -470 -277q-320 0 -362 170q-43 -171 -372 -170 q-375 0 -375 277zM213 299q0 -149 213.5 -149.5t213.5 201.5v221q0 -77 -213.5 -77t-213.5 -137v-59zM853 640h512v171q0 149 -256 149t-256 -149v-171z" />
<glyph unicode="&#x4d5;" horiz-adv-x="1749" d="M0 256v145q0 265 427 265q213 0 213 102v43q0 149 -213 149q-183 0 -184 -149v-86h-213v128q0 277 397 278q235 0 320 -107q85 107 362 107q469 0 470 -278v-384h-726v-128q0 -192 256 -192t256 150v85h214v-128q0 -277 -470 -277q-320 0 -362 170q-43 -171 -372 -170 q-375 0 -375 277zM213 299q0 -149 213.5 -149.5t213.5 201.5v221q0 -77 -213.5 -77t-213.5 -137v-59zM853 640h512v171q0 149 -256 149t-256 -149v-171z" />
<glyph unicode="&#xe7;" horiz-adv-x="1109" d="M0 256v597q0 277 469.5 277.5t469.5 -277.5v-170h-214v128q0 149 -256 149t-256 -149v-512q0 -149 256 -149.5t256 149.5v128h214v-171q0 -277 -469.5 -277t-469.5 277zM256 -239l85 1v-28q0 -54 107 -54t107 55v73q0 43 -32 43t-32 -34v-30h-86v256h86v-168 q0 40 74.5 40t74.5 -95v-108q0 -96 -192 -96t-192 96v49z" />
<glyph unicode="&#xe8;" horiz-adv-x="1109" d="M0 256v597q0 277 469.5 277.5t469.5 -277.5v-384h-726v-170q0 -149 256 -149.5t256 149.5v85h214v-128q0 -277 -469.5 -277t-469.5 277zM213 640h512v171q0 149 -256 149t-256 -149v-171zM213 1451h256l86 -256h-128z" />
<glyph unicode="&#x450;" horiz-adv-x="1109" d="M0 256v597q0 277 469.5 277.5t469.5 -277.5v-384h-726v-170q0 -149 256 -149.5t256 149.5v85h214v-128q0 -277 -469.5 -277t-469.5 277zM213 640h512v171q0 149 -256 149t-256 -149v-171zM213 1451h256l86 -256h-128z" />
<glyph unicode="&#xe9;" horiz-adv-x="1109" d="M0 256v597q0 277 469.5 277.5t469.5 -277.5v-384h-726v-170q0 -149 256 -149.5t256 149.5v85h214v-128q0 -277 -469.5 -277t-469.5 277zM213 640h512v171q0 149 -256 149t-256 -149v-171zM341 1195l107 256h235l-214 -256h-128z" />
<glyph unicode="&#xea;" horiz-adv-x="1109" d="M0 256v597q0 277 469.5 277.5t469.5 -277.5v-384h-726v-170q0 -149 256 -149.5t256 149.5v85h214v-128q0 -277 -469.5 -277t-469.5 277zM213 640h512v171q0 149 -256 149t-256 -149v-171zM215 1377l238 164h33l239 -164l-80 -96l-176 128l-175 -128z" />
<glyph unicode="&#xeb;" horiz-adv-x="1109" d="M0 256v597q0 277 469.5 277.5t469.5 -277.5v-384h-726v-170q0 -149 256 -149.5t256 149.5v85h214v-128q0 -277 -469.5 -277t-469.5 277zM149 1344q0 107 107 107t107 -107t-107 -107t-107 107zM213 640h512v171q0 149 -256 149t-256 -149v-171zM576 1344q0 107 106.5 107 t106.5 -107t-106.5 -107t-106.5 107z" />
<glyph unicode="&#x451;" horiz-adv-x="1109" d="M0 256v597q0 277 469.5 277.5t469.5 -277.5v-384h-726v-170q0 -149 256 -149.5t256 149.5v85h214v-128q0 -277 -469.5 -277t-469.5 277zM149 1344q0 107 107 107t107 -107t-107 -107t-107 107zM213 640h512v171q0 149 -256 149t-256 -149v-171zM576 1344q0 107 106.5 107 t106.5 -107t-106.5 -107t-106.5 107z" />
<glyph unicode="&#xec;" horiz-adv-x="384" d="M-171 1451h256l86 -256h-128zM0 0h213v1109h-213v-1109z" />
<glyph unicode="&#xed;" horiz-adv-x="384" d="M0 0h213v1109h-213v-1109zM43 1195l106 256h235l-213 -256h-128z" />
<glyph unicode="&#xee;" horiz-adv-x="384" d="M-148 1335l238 163h33l240 -163l-81 -97l-175 128l-176 -128zM0 0h213v1109h-213v-1109z" />
<glyph unicode="&#xef;" horiz-adv-x="384" d="M-213 1386.5q0 106.5 106.5 106.5t106.5 -106.5t-106.5 -106.5t-106.5 106.5zM0 0h213v1109h-213v-1109zM213 1386.5q0 106.5 107 106.5t107 -106.5t-107 -106.5t-107 106.5z" />
<glyph unicode="&#x457;" horiz-adv-x="384" d="M-213 1386.5q0 106.5 106.5 106.5t106.5 -106.5t-106.5 -106.5t-106.5 106.5zM0 0h213v1109h-213v-1109zM213 1386.5q0 106.5 107 106.5t107 -106.5t-107 -106.5t-107 106.5z" />
<glyph unicode="&#xf0;" horiz-adv-x="1237" d="M0 256v555q0 256 515 256q245 0 338 -146v146q0 77 -30 128l-183 -107l-60 98l171 92q-154 87 -408 87h-191v171h200q458 0 592 -145l127 85l60 -89l-126 -83q61 -75 62 -172v-876q0 -277 -553 -277q-514 0 -514 277zM213 341q0 -192 312 -192q329 0 328 192v384 q0 171 -336 171q-304 0 -304 -171v-384z" />
<glyph unicode="&#xf1;" horiz-adv-x="1109" d="M0 0v1109h213v-149q0 171 363 171t363 -278v-853h-214v811q0 149 -256 149t-256 -149v-811h-213zM64 1280v43q0 213 256 213q107 0 171 -64t160 -64t96 85v43h128v-43q0 -213 -256 -213q-107 0 -171 64t-160 64t-96 -85v-43h-128z" />
<glyph unicode="&#xf2;" horiz-adv-x="1109" d="M0 256v597q0 277 469.5 277.5t469.5 -277.5v-597q0 -277 -469.5 -277t-469.5 277zM213 299q0 -149 256 -149.5t256 149.5v512q0 149 -256 149t-256 -149v-512zM213 1451h256l86 -256h-128z" />
<glyph unicode="&#xf3;" horiz-adv-x="1109" d="M0 256v597q0 277 469.5 277.5t469.5 -277.5v-597q0 -277 -469.5 -277t-469.5 277zM213 299q0 -149 256 -149.5t256 149.5v512q0 149 -256 149t-256 -149v-512zM427 1195l106 256h235l-213 -256h-128z" />
<glyph unicode="&#x3cc;" horiz-adv-x="1109" d="M0 256v597q0 277 469.5 277.5t469.5 -277.5v-597q0 -277 -469.5 -277t-469.5 277zM213 299q0 -149 256 -149.5t256 149.5v512q0 149 -256 149t-256 -149v-512zM427 1195l106 256h235l-213 -256h-128z" />
<glyph unicode="&#xf4;" horiz-adv-x="1109" d="M0 256v597q0 277 469.5 277.5t469.5 -277.5v-597q0 -277 -469.5 -277t-469.5 277zM213 299q0 -149 256 -149.5t256 149.5v512q0 149 -256 149t-256 -149v-512zM215 1377l238 164h33l239 -164l-80 -96l-176 128l-175 -128z" />
<glyph unicode="&#xf5;" horiz-adv-x="1109" d="M0 256v597q0 277 469.5 277.5t469.5 -277.5v-597q0 -277 -469.5 -277t-469.5 277zM64 1280v43q0 213 256 213q107 0 171 -64t160 -64t96 85v43h128v-43q0 -213 -256 -213q-107 0 -171 64t-160 64t-96 -85v-43h-128zM213 299q0 -149 256 -149.5t256 149.5v512 q0 149 -256 149t-256 -149v-512z" />
<glyph unicode="&#xf6;" horiz-adv-x="1109" d="M0 256v597q0 277 469.5 277.5t469.5 -277.5v-597q0 -277 -469.5 -277t-469.5 277zM149 1344q0 107 107 107t107 -107t-107 -107t-107 107zM213 299q0 -149 256 -149.5t256 149.5v512q0 149 -256 149t-256 -149v-512zM576 1344q0 107 106.5 107t106.5 -107t-106.5 -107 t-106.5 107z" />
<glyph unicode="&#x4e7;" horiz-adv-x="1109" d="M0 256v597q0 277 469.5 277.5t469.5 -277.5v-597q0 -277 -469.5 -277t-469.5 277zM149 1344q0 107 107 107t107 -107t-107 -107t-107 107zM213 299q0 -149 256 -149.5t256 149.5v512q0 149 -256 149t-256 -149v-512zM576 1344q0 107 106.5 107t106.5 -107t-106.5 -107 t-106.5 107z" />
<glyph unicode="&#xf7;" horiz-adv-x="1024" d="M0 683h853v170h-853v-170zM299 427q0 -128 128 -128t128 128t-128 128t-128 -128zM299 1109q0 -128 128 -128t128 128t-128 128t-128 -128z" />
<glyph unicode="&#xf8;" horiz-adv-x="1109" d="M-102 119l102 103v631q0 277 469 278q311 -4 380 -92l56 53l145 -102l-111 -107v-627q0 -277 -470 -277q-256 0 -384 83l-51 -45zM213 427l482 465q-21 68 -226 68q-256 0 -256 -149v-384zM243 218q21 -68 226 -69q256 0 256 150v379z" />
<glyph unicode="&#xf9;" horiz-adv-x="1109" d="M0 256v853h213v-810q0 -149 256 -149.5t256 149.5v810h214v-1109h-214v149q0 -171 -362.5 -170.5t-362.5 277.5zM213 1451h256l86 -256h-128z" />
<glyph unicode="&#xfa;" horiz-adv-x="1109" d="M0 256v853h213v-810q0 -149 256 -149.5t256 149.5v810h214v-1109h-214v149q0 -171 -362.5 -170.5t-362.5 277.5zM341 1195l107 256h235l-214 -256h-128z" />
<glyph unicode="&#xfb;" horiz-adv-x="1109" d="M0 256v853h213v-810q0 -149 256 -149.5t256 149.5v810h214v-1109h-214v149q0 -171 -362.5 -170.5t-362.5 277.5zM215 1420l238 164h33l239 -164l-80 -96l-176 128l-175 -128z" />
<glyph unicode="&#xfc;" horiz-adv-x="1109" d="M0 256v853h213v-810q0 -149 256 -149.5t256 149.5v810h214v-1109h-214v149q0 -171 -362.5 -170.5t-362.5 277.5zM149 1344q0 107 107 107t107 -107t-107 -107t-107 107zM576 1344q0 107 106.5 107t106.5 -107t-106.5 -107t-106.5 107z" />
<glyph unicode="&#xfd;" d="M0 1109h256l299 -860l281 860h256l-502 -1293q-71 -221 -244 -221h-158v170h131q74 0 103 106l41 129zM469 1195l107 256h235l-214 -256h-128z" />
<glyph unicode="&#xfe;" horiz-adv-x="1109" d="M0 -405h213v554q0 -171 363 -170.5t363 277.5v597q0 277 -363 277.5t-363 -170.5v576h-213v-1941zM213 299v512q0 149 256 149t256 -149v-512q0 -149 -256 -149t-256 149z" />
<glyph unicode="&#xff;" d="M0 1109h256l299 -860l281 860h256l-502 -1293q-71 -221 -244 -221h-158v170h131q74 0 103 106l41 129zM222 1344q0 107 106.5 107t106.5 -107t-106.5 -107t-106.5 107zM649 1344q0 107 106.5 107t106.5 -107t-106.5 -107t-106.5 107z" />
<glyph unicode="&#x4f1;" d="M0 1109h256l299 -860l281 860h256l-502 -1293q-71 -221 -244 -221h-158v170h131q74 0 103 106l41 129zM222 1344q0 107 106.5 107t106.5 -107t-106.5 -107t-106.5 107zM649 1344q0 107 106.5 107t106.5 -107t-106.5 -107t-106.5 107z" />
<glyph unicode="&#x152;" horiz-adv-x="1834" d="M0 256v1024q0 277 512 277q213 0 299 -106v85h853v-171h-640v-490h533v-171h-533v-533h640v-171h-853v85q-85 -107 -299 -106q-512 0 -512 277zM213 299q0 -149 299 -149.5t299 149.5v938q0 149 -299 149.5t-299 -149.5v-938z" />
<glyph unicode="&#x153;" horiz-adv-x="1834" d="M0 256v597q0 277 469 278q277 0 363 -77q85 77 363 77q469 0 469 -278v-384h-725v-170q0 -149 256 -149.5t256 149.5v85h213v-128q0 -277 -469 -277q-277 0 -363 76q-85 -77 -363 -76q-469 0 -469 277zM213 299q0 -149 256 -149.5t256 149.5v512q0 149 -256 149 t-256 -149v-512zM939 640h512v171q0 149 -256 149t-256 -149v-171z" />
<glyph unicode="&#x178;" horiz-adv-x="1339" d="M0 1536h256l363 -768l362 768h256l-512 -981v-555h-213v555zM299 1770.5q0 106.5 106.5 106.5t106.5 -106.5t-106.5 -106.5t-106.5 106.5zM725 1770.5q0 106.5 107 106.5t107 -106.5t-107 -106.5t-107 106.5z" />
<glyph unicode="&#x3ab;" horiz-adv-x="1339" d="M0 1536h256l363 -768l362 768h256l-512 -981v-555h-213v555zM299 1770.5q0 106.5 106.5 106.5t106.5 -106.5t-106.5 -106.5t-106.5 106.5zM725 1770.5q0 106.5 107 106.5t107 -106.5t-107 -106.5t-107 106.5z" />
<glyph unicode="&#x2bb;" horiz-adv-x="384" d="M0 1301q0 -107 106.5 -106.5t106.5 107t-106 106.5q0 64 106 64v64q-213 0 -213 -235z" />
<glyph unicode="&#x2018;" horiz-adv-x="384" d="M0 1301q0 -107 106.5 -106.5t106.5 107t-106 106.5q0 64 106 64v64q-213 0 -213 -235z" />
<glyph unicode="&#x2bc;" horiz-adv-x="384" d="M0 1195q213 0 213 234q0 107 -106.5 107t-106.5 -106.5t107 -106.5q0 -64 -107 -64v-64z" />
<glyph unicode="&#x2019;" horiz-adv-x="384" d="M0 1195q213 0 213 234q0 107 -106.5 107t-106.5 -106.5t107 -106.5q0 -64 -107 -64v-64z" />
<glyph unicode="&#x2c6;" horiz-adv-x="682" d="M87 1463l238 163h33l239 -163l-80 -97l-176 128l-175 -128z" />
<glyph unicode="&#x2dc;" horiz-adv-x="981" d="M0 1323v42q0 213 256 214q107 0 171 -64t160 -64t96 85v43h128v-43q0 -213 -256 -213q-107 0 -171 64t-160 64t-96 -86v-42h-128z" />
<glyph unicode="&#x2ee;" horiz-adv-x="682" d="M0 1195q213 0 213 234q0 107 -106.5 107t-106.5 -106.5t107 -106.5q0 -64 -107 -64v-64zM299 1195q213 0 213 234q0 107 -106.5 107t-106.5 -106.5t106 -106.5q0 -64 -106 -64v-64z" />
<glyph unicode="&#x201d;" horiz-adv-x="682" d="M0 1195q213 0 213 234q0 107 -106.5 107t-106.5 -106.5t107 -106.5q0 -64 -107 -64v-64zM299 1195q213 0 213 234q0 107 -106.5 107t-106.5 -106.5t106 -106.5q0 -64 -106 -64v-64z" />
<glyph unicode="&#x2000;" horiz-adv-x="953" />
<glyph unicode="&#x2001;" horiz-adv-x="1906" />
<glyph unicode="&#x2002;" horiz-adv-x="953" />
<glyph unicode="&#x2003;" horiz-adv-x="1906" />
<glyph unicode="&#x2004;" horiz-adv-x="634" />
<glyph unicode="&#x2005;" horiz-adv-x="476" />
<glyph unicode="&#x2006;" horiz-adv-x="317" />
<glyph unicode="&#x2007;" horiz-adv-x="317" />
<glyph unicode="&#x2008;" horiz-adv-x="238" />
<glyph unicode="&#x2009;" horiz-adv-x="380" />
<glyph unicode="&#x200a;" horiz-adv-x="105" />
<glyph unicode="&#x2010;" horiz-adv-x="1024" d="M0 683v170h853v-170h-853z" />
<glyph unicode="&#x2011;" horiz-adv-x="1024" d="M0 683v170h853v-170h-853z" />
<glyph unicode="&#x2012;" horiz-adv-x="1024" d="M0 683v170h853v-170h-853z" />
<glyph unicode="&#x2013;" horiz-adv-x="1578" d="M128 683h1323v170h-1323v-170z" />
<glyph unicode="&#x2014;" horiz-adv-x="1962" d="M128 683h1707v170h-1707v-170z" />
<glyph unicode="&#x201a;" horiz-adv-x="384" d="M0 21q0 -107 106.5 -106.5t106.5 107t-106 106.5q0 64 106 64v64q-213 0 -213 -235z" />
<glyph unicode="&#x201c;" horiz-adv-x="682" d="M0 1301q0 -107 106.5 -106.5t106.5 107t-106 106.5q0 64 106 64v64q-213 0 -213 -235zM299 1301q0 -107 106.5 -106.5t106.5 107t-107 106.5q0 64 107 64v64q-213 0 -213 -235z" />
<glyph unicode="&#x201e;" horiz-adv-x="691" d="M0 21q0 -107 106.5 -106.5t106.5 107t-106 106.5q0 64 106 64v64q-213 0 -213 -235zM299 21q0 -107 106.5 -106.5t106.5 107t-107 106.5q0 64 107 64v64q-213 0 -213 -235z" />
<glyph unicode="&#x2022;" horiz-adv-x="614" d="M0 759q0 -183 177.5 -183t177.5 183q0 185 -177.5 185t-177.5 -185z" />
<glyph unicode="&#x2026;" horiz-adv-x="675" d="M127 105q0 -108 105 -108t105 108q0 109 -105 109t-105 -109zM554 105q0 -108 105 -108t105 108q0 109 -105 109t-105 -109zM980 105q0 -108 105 -108t105 108q0 109 -105 109t-105 -109z" />
<glyph unicode="&#x202f;" horiz-adv-x="380" />
<glyph unicode="&#x2039;" horiz-adv-x="529" d="M0 730l360 -233v167l-173 102l173 98v177l-360 -225v-86z" />
<glyph unicode="&#x203a;" horiz-adv-x="529" d="M-2 497v167l174 102l-174 98v177l360 -225v-86z" />
<glyph unicode="&#x205f;" horiz-adv-x="476" />
<glyph unicode="&#x2122;" horiz-adv-x="1386" d="M0 1451v85h533v-85h-213v-683h-107v683h-213zM597 768v768h150l192 -587l192 587h149v-768h-107v555l-181 -555h-106l-182 555v-555h-107z" />
<glyph unicode="&#xe000;" horiz-adv-x="1110" d="M0 1110h1110v-1110h-1110v1110z" />
<glyph unicode="&#xfb02;" horiz-adv-x="1100" d="M717 0v1579h213v-1579h-213zM0 939h119v-939h214v939h213v170h-213v171q0 128 213 128v171h-201q-225 0 -226 -256v-214h-119v-170z" />
<glyph unicode="&#xfb04;" horiz-adv-x="1817" d="M1434 0v1579h213v-1579h-213zM717 939h119v-939h214v939h213v170h-213v171q0 128 213 128v171h-201q-225 0 -226 -256v-214h-119v-170zM0 939h119v-939h214v939h213v170h-213v171q0 128 213 128v171h-201q-225 0 -226 -256v-214h-119v-170z" />
</font>
</defs>
</svg>
