<?xml version="1.0" encoding="UTF-8" standalone="no"?>
<!-- Created with Inkscape (http://www.inkscape.org/) -->

<svg
   xmlns:dc="http://purl.org/dc/elements/1.1/"
   xmlns:cc="http://creativecommons.org/ns#"
   xmlns:rdf="http://www.w3.org/1999/02/22-rdf-syntax-ns#"
   xmlns:svg="http://www.w3.org/2000/svg"
   xmlns="http://www.w3.org/2000/svg"
   version="1.0"
   width="32"
   height="32"
   viewBox="0 0 25.6 25.6"
   id="svg3184">
  <defs
     id="defs3208" />
  <metadata
     id="metadata3186">
Created by potrace 1.11, written by Peter Selinger 2001-2013
<rdf:RDF>
  <cc:Work
     rdf:about="">
    <dc:format>image/svg+xml</dc:format>
    <dc:type
       rdf:resource="http://purl.org/dc/dcmitype/StillImage" />
    <dc:title></dc:title>
  </cc:Work>
</rdf:RDF>
</metadata>
  <g
     transform="matrix(0.0056925,0,0,-0.00562388,-2.2308643,28.147526)"
     id="g3188"
     style="fill:#000000;stroke:none">
    <path
       d="m 1005,4999 c -288,-37 -535,-262 -601,-549 -5,-19 -9,-514 -11,-1100 -3,-1120 -3,-1107 42,-1234 49,-142 177,-291 315,-369 25,-14 44,-29 44,-34 -1,-4 -5,-30 -8,-58 -4,-27 -13,-93 -21,-145 -8,-52 -17,-113 -20,-135 -3,-22 -13,-85 -21,-140 -8,-55 -17,-116 -20,-135 -7,-56 -16,-113 -20,-135 -2,-11 -7,-45 -10,-75 -3,-30 -7,-57 -9,-60 -2,-3 -6,-30 -10,-60 -4,-30 -11,-77 -15,-105 -8,-50 -5,-69 8,-49 4,6 61,69 127,139 66,71 135,144 154,164 57,61 225,242 250,270 13,14 52,56 88,93 l 64,67 44,-19 c 24,-10 70,-24 101,-29 39,-7 435,-11 1195,-11 l 1137,0 64,-67 c 83,-87 189,-200 224,-238 14,-16 56,-62 93,-101 72,-77 141,-151 300,-322 58,-61 106,-110 108,-109 2,2 -4,51 -12,108 -9,57 -18,120 -20,139 -3,19 -10,62 -15,95 -5,33 -12,83 -16,110 -3,28 -8,59 -10,70 -2,11 -7,40 -10,65 -3,25 -7,56 -10,70 -2,14 -7,48 -10,75 -3,28 -9,67 -14,88 -5,22 -4,40 2,43 5,3 42,22 81,42 100,49 209,160 259,262 71,145 67,80 67,1240 0,988 -1,1049 -19,1116 -45,172 -154,311 -305,389 l -72,37 -22,81 c -64,244 -261,436 -516,503 -66,17 -144,18 -1485,19 -778,0 -1438,-2 -1465,-6 z m 2875,-203 c 209,-44 379,-216 407,-411 5,-33 8,-521 7,-1085 l -1,-1025 -22,-65 c -31,-89 -64,-141 -129,-206 -68,-68 -163,-118 -263,-140 -13,-3 -547,-5 -1187,-6 l -1163,0 -27,-28 c -15,-15 -70,-74 -123,-131 -53,-57 -112,-120 -130,-140 -200,-213 -270,-289 -292,-314 l -26,-30 0,30 c 0,17 3,48 8,70 5,22 12,65 15,95 6,50 31,220 42,280 6,33 17,130 18,154 1,15 -10,22 -47,32 -177,45 -319,194 -362,376 -20,89 -21,2059 0,2154 45,209 234,377 445,396 76,7 2797,1 2830,-6 z m 750,-598 c 74,-71 119,-148 146,-253 11,-40 14,-258 14,-1080 0,-1135 3,-1085 -63,-1209 -37,-72 -134,-172 -197,-204 -25,-12 -72,-31 -105,-41 -47,-15 -60,-23 -58,-38 8,-71 15,-125 24,-182 5,-36 12,-84 15,-106 3,-22 7,-49 9,-61 5,-22 22,-139 31,-209 3,-22 7,-47 10,-55 5,-17 -81,70 -266,270 -69,74 -153,164 -186,200 -34,36 -82,86 -106,112 l -43,48 -1170,0 c -990,0 -1177,3 -1218,15 -68,20 -68,21 -34,58 18,17 66,68 107,112 l 75,80 1120,1 c 965,1 1158,4 1220,18 52,13 82,24 155,60 69,33 102,58 175,131 73,73 99,106 133,175 80,163 75,83 78,1210 2,553 3,1013 3,1022 1,15 8,14 49,-12 26,-16 63,-44 82,-62 z"
       id="path3190" />
    <path
       d="m 1477,4083 c -6,-21 -33,-155 -56,-278 -5,-28 -13,-63 -16,-78 l -7,-27 237,0 c 267,0 299,5 356,60 91,87 68,239 -48,311 -36,23 -47,24 -250,27 -197,3 -212,2 -216,-15 z"
       id="path3192" />
    <path
       d="m 2316,4083 c -6,-19 -47,-226 -71,-355 l -5,-28 242,0 c 235,0 245,1 294,24 67,31 104,84 109,156 4,67 -42,154 -104,192 -34,21 -49,23 -248,26 -198,3 -211,3 -217,-15 z"
       id="path3194" />
    <path
       d="m 3021,3538 c -17,-90 -34,-176 -37,-192 -3,-16 -7,-33 -10,-38 -3,-4 103,-8 234,-8 266,0 301,6 358,61 55,53 68,154 30,227 -22,42 -79,89 -123,101 -21,6 -124,11 -229,11 l -190,0 -33,-162 z"
       id="path3196" />
    <path
       d="m 1369,3483 c 0,-10 -2,-25 -4,-33 -16,-70 -65,-322 -65,-335 0,-15 24,-16 253,-13 247,3 253,3 295,28 138,79 121,282 -30,350 -38,17 -67,20 -245,20 -186,0 -203,-1 -204,-17 z"
       id="path3198" />
    <path
       d="m 2197,3418 c -10,-46 -28,-136 -40,-200 l -23,-118 237,0 c 187,0 246,3 280,15 131,47 170,205 76,312 -57,65 -85,71 -312,73 l -202,1 -16,-83 z"
       id="path3200" />
    <path
       d="m 2946,3088 c -3,-11 -23,-108 -42,-208 -3,-14 -11,-57 -19,-97 -8,-40 -15,-75 -15,-78 0,-4 114,-5 253,-3 266,3 285,6 337,57 72,68 69,201 -7,278 -53,55 -93,63 -309,63 -147,0 -196,-3 -198,-12 z"
       id="path3202" />
    <path
       d="m 2106,2883 c -3,-10 -8,-34 -11,-53 -3,-19 -19,-100 -35,-179 -17,-80 -30,-146 -30,-148 0,-9 470,-2 505,8 118,32 174,163 117,275 -50,98 -100,114 -347,114 -176,0 -194,-2 -199,-17 z"
       id="path3204" />
  </g>
</svg>
