<?xml version="1.0" encoding="UTF-8" standalone="no"?>
<!-- Created with Inkscape (http://www.inkscape.org/) -->

<svg
   xmlns:dc="http://purl.org/dc/elements/1.1/"
   xmlns:cc="http://creativecommons.org/ns#"
   xmlns:rdf="http://www.w3.org/1999/02/22-rdf-syntax-ns#"
   xmlns:svg="http://www.w3.org/2000/svg"
   xmlns="http://www.w3.org/2000/svg"
   xmlns:sodipodi="http://sodipodi.sourceforge.net/DTD/sodipodi-0.dtd"
   xmlns:inkscape="http://www.inkscape.org/namespaces/inkscape"
   width="180"
   height="30"
   id="svg3838"
   version="1.1"
   inkscape:version="0.48.3.1 r9886"
   sodipodi:docname="peter_molnar_logo.svg">
  <defs
     id="defs3840">
    <pattern
       patternUnits="userSpaceOnUse"
       width="169.48007"
       height="19.336448"
       patternTransform="translate(5.2599888,1027.6939)"
       id="pattern3878">
      <g
         id="text3810"
         style="font-size:17.30270004px;font-style:normal;font-variant:normal;font-weight:normal;font-stretch:normal;line-height:125%;letter-spacing:0px;word-spacing:0px;fill:#000000;fill-opacity:1;stroke:none;font-family:Enigmatic Unicode;-inkscape-font-specification:Enigmatic Unicode"
         transform="matrix(1.3127075,0,0,0.76178433,-5.2599888,-1027.6939)">
        <path
           id="path3856"
           style="font-size:25.95405388px;font-family:gara;-inkscape-font-specification:gara"
           d="m 7.3290959,1367.8523 c -0.2422421,0.052 -0.3633609,0.2942 -0.3633568,0.7267 l 0,5.6061 c -4.1e-6,0.173 -0.086518,0.2595 -0.2595405,0.2595 l -1.4015189,0 c -0.1730293,0 -0.2595428,-0.087 -0.2595405,-0.2595 l 0,-14.0411 c -2.3e-6,-0.571 -0.034608,-0.9171 -0.1038163,-1.0382 -0.069213,-0.1211 -0.3374044,-0.3547 -0.8045756,-0.7008 -0.086515,-0.069 -0.1297715,-0.1557 -0.1297703,-0.2595 -1.2e-6,-0.1038 0.051907,-0.1817 0.1557243,-0.2336 0.1903282,-0.1038 0.4758225,-0.2422 0.8564838,-0.4153 0.5017757,-0.2595 1.0381589,-0.5709 1.6091513,-0.9343 0.069207,-0.035 0.1297664,-0.052 0.1816784,-0.052 0.1557202,0 0.2335823,0.078 0.2335865,0.2336 -4.2e-6,0.1211 -0.025958,0.3114 -0.077862,0.571 -0.03461,0.2595 -0.051912,0.4498 -0.051908,0.571 -4e-6,0.2076 0.077858,0.3201 0.2335865,0.3374 1.6091454,-0.8133 2.8203334,-1.2199 3.6335672,-1.2199 1.297694,0 2.353157,0.4759 3.166395,1.4275 0.761307,0.8997 1.141966,2.0071 1.141978,3.3221 -1.2e-5,1.8168 -0.596955,3.3048 -1.79083,4.4641 -1.193895,1.1593 -2.70788,1.7389 -4.5419588,1.7389 -0.5536919,0 -1.0295157,-0.035 -1.427473,-0.1038 m -0.3633568,-7.345 0,4.4641 c -4.1e-6,0.6575 0.2508848,1.1766 0.7526676,1.5573 0.5190757,0.3806 1.1506237,0.5709 1.8946459,0.5709 1.1419701,0 2.0157561,-0.519 2.6213591,-1.5572 0.501769,-0.8478 0.752657,-1.886 0.752668,-3.1145 -1.1e-5,-1.1247 -0.294156,-2.085 -0.882438,-2.8809 -0.657512,-0.8651 -1.531297,-1.2977 -2.6213593,-1.2977 -1.0554705,0 -1.7908346,0.2423 -2.2060946,0.7267 -0.2076367,0.2423 -0.3114528,0.7527 -0.3114487,1.5313"
           inkscape:connector-curvature="0" />
        <path
           id="path3858"
           style="font-size:25.95405388px;font-family:gara;-inkscape-font-specification:gara"
           d="m 16.673772,1362.8691 c -1e-6,-1.5918 0.467171,-2.9501 1.401519,-4.0748 0.98625,-1.1938 2.257998,-1.7908 3.815246,-1.7908 0.951641,0 1.78217,0.2682 2.491589,0.8046 0.795915,0.6056 1.193876,1.3669 1.193886,2.284 -10e-6,0.6056 -0.224944,0.9084 -0.674805,0.9083 -0.103825,1e-4 -0.268201,-0.01 -0.493127,-0.026 -0.207641,-0.017 -0.363365,-0.026 -0.467173,-0.026 l -4.8015,0 c -0.328754,0 -0.527735,0.035 -0.596943,0.1039 -0.06921,0.069 -0.103819,0.2682 -0.103817,0.5969 -2e-6,1.3669 0.372006,2.5002 1.116025,3.4 0.79592,0.9689 1.860035,1.4534 3.192348,1.4534 0.692101,0 1.280392,-0.2163 1.764876,-0.6488 0.501769,-0.4326 0.761309,-0.6489 0.778622,-0.6489 0.19032,0 0.285484,0.1038 0.285494,0.3114 -10e-6,0.6056 -0.51909,1.1766 -1.557243,1.713 -0.951656,0.4845 -1.782185,0.7267 -2.491589,0.7267 -1.453431,0 -2.630014,-0.4758 -3.529751,-1.4274 -0.88244,-0.969 -1.323658,-2.1888 -1.323657,-3.6596 m 2.05037,-2.829 c -3e-6,0.087 0.06056,0.1298 0.181678,0.1298 l 1.842738,0 c 1.591842,0 2.491582,-0.087 2.699222,-0.2595 0.103808,-0.086 0.155716,-0.2509 0.155724,-0.4932 -8e-6,-0.5363 -0.198989,-0.9429 -0.596943,-1.2198 -0.380666,-0.2768 -0.847839,-0.4152 -1.401519,-0.4153 -1.107378,10e-5 -1.972512,0.5018 -2.595405,1.5054 -0.190333,0.2768 -0.285498,0.5277 -0.285495,0.7526"
           inkscape:connector-curvature="0" />
        <path
           id="path3860"
           style="font-size:25.95405388px;font-family:gara;-inkscape-font-specification:gara"
           d="m 31.292392,1367.9561 c -1.799484,0 -2.699224,-0.9343 -2.699222,-2.803 l 0,-5.9435 c -2e-6,-0.3287 -0.02596,-0.5364 -0.07786,-0.6229 -0.03461,-0.087 -0.190332,-0.1297 -0.467173,-0.1298 -0.415266,1e-4 -0.596944,1e-4 -0.545035,0 -0.207633,-0.017 -0.311449,-0.1211 -0.311449,-0.3114 0,-0.1384 0.112467,-0.2595 0.337403,-0.3634 0.173026,-0.052 0.354704,-0.1124 0.545035,-0.1816 0.657501,-0.2942 1.193884,-0.7786 1.609152,-1.4535 0.242234,-0.3979 0.415261,-0.5969 0.519081,-0.5969 0.224931,0 0.337398,0.087 0.337402,0.2595 l 0,1.0641 c -4e-6,0.225 0.0173,0.3634 0.05191,0.4153 0.0519,0.052 0.190325,0.078 0.415264,0.078 l 2.777084,0 c 0.224928,0 0.337395,0.1903 0.337403,0.571 -8e-6,0.346 -0.103824,0.5191 -0.311449,0.519 l -2.828992,0 c -0.224939,10e-5 -0.363361,0.043 -0.415265,0.1298 -0.03461,0.069 -0.05191,0.2336 -0.05191,0.4931 l 0,4.8535 c -4e-6,0.8997 0.09516,1.5572 0.285495,1.9725 0.276838,0.6056 0.813222,0.9084 1.609151,0.9084 0.29414,0 0.588286,-0.078 0.882438,-0.2336 0.311441,-0.1731 0.475817,-0.2596 0.493127,-0.2596 0.17302,0 0.259533,0.1038 0.259541,0.3115 -8e-6,0.346 -0.380667,0.6661 -1.141979,0.9603 -0.640206,0.2422 -1.176589,0.3633 -1.609151,0.3633"
           inkscape:connector-curvature="0" />
        <path
           id="path3862"
           style="font-size:25.95405388px;font-family:gara;-inkscape-font-specification:gara"
           d="m 35.78447,1362.8691 c -10e-7,-1.5918 0.467171,-2.9501 1.401518,-4.0748 0.986251,-1.1938 2.257999,-1.7908 3.815246,-1.7908 0.951642,0 1.782171,0.2682 2.49159,0.8046 0.795914,0.6056 1.193876,1.3669 1.193886,2.284 -10e-6,0.6056 -0.224945,0.9084 -0.674805,0.9083 -0.103826,1e-4 -0.268201,-0.01 -0.493127,-0.026 -0.207641,-0.017 -0.363365,-0.026 -0.467173,-0.026 l -4.8015,0 c -0.328755,0 -0.527736,0.035 -0.596944,0.1039 -0.06921,0.069 -0.103818,0.2682 -0.103816,0.5969 -2e-6,1.3669 0.372005,2.5002 1.116025,3.4 0.795919,0.9689 1.860034,1.4534 3.192348,1.4534 0.692101,0 1.280392,-0.2163 1.764876,-0.6488 0.501769,-0.4326 0.761309,-0.6489 0.778621,-0.6489 0.19032,0 0.285485,0.1038 0.285495,0.3114 -10e-6,0.6056 -0.51909,1.1766 -1.557243,1.713 -0.951656,0.4845 -1.782185,0.7267 -2.491589,0.7267 -1.453432,0 -2.630014,-0.4758 -3.529752,-1.4274 -0.882439,-0.969 -1.323657,-2.1888 -1.323656,-3.6596 m 2.05037,-2.829 c -3e-6,0.087 0.06056,0.1298 0.181678,0.1298 l 1.842738,0 c 1.591842,0 2.491582,-0.087 2.699222,-0.2595 0.103808,-0.086 0.155716,-0.2509 0.155724,-0.4932 -8e-6,-0.5363 -0.198989,-0.9429 -0.596943,-1.2198 -0.380667,-0.2768 -0.847839,-0.4152 -1.401519,-0.4153 -1.107378,10e-5 -1.972512,0.5018 -2.595406,1.5054 -0.190332,0.2768 -0.285497,0.5277 -0.285494,0.7526"
           inkscape:connector-curvature="0" />
        <path
           id="path3864"
           style="font-size:25.95405388px;font-family:gara;-inkscape-font-specification:gara"
           d="m 49.884013,1358.3272 c -4e-6,0.1038 0.02595,0.1817 0.07786,0.2336 1.263091,-1.0382 2.214739,-1.5573 2.854946,-1.5573 0.328743,0 0.605586,0.095 0.830529,0.2855 0.224927,0.1904 0.337394,0.4412 0.337403,0.7527 -9e-6,0.3287 -0.112476,0.6142 -0.337403,0.8565 -0.20764,0.2249 -0.46718,0.3374 -0.778621,0.3374 -0.190337,0 -0.458529,-0.095 -0.804576,-0.2855 -0.34606,-0.2077 -0.648857,-0.3115 -0.908392,-0.3115 -0.847837,0 -1.271753,0.8392 -1.271749,2.5176 l 0,6.177 c -4e-6,0.1731 -0.08652,0.2596 -0.25954,0.2596 l -1.401519,0 c -0.17303,0 -0.259543,-0.086 -0.259541,-0.2596 l 0,-7.1892 c -2e-6,-0.571 -0.03461,-0.9257 -0.103816,-1.0642 -0.05191,-0.086 -0.320102,-0.3114 -0.804575,-0.6748 -0.08652,-0.069 -0.129772,-0.1557 -0.129771,-0.2595 -1e-6,-0.1038 0.06921,-0.1903 0.207633,-0.2595 0.155722,-0.069 0.39796,-0.1731 0.726713,-0.3115 0.449868,-0.2076 0.994902,-0.4845 1.635106,-0.8305 0.06921,-0.035 0.129766,-0.052 0.181678,-0.052 0.138417,0 0.207628,0.095 0.207632,0.2855 l 0,1.3496"
           inkscape:connector-curvature="0" />
        <path
           id="path3866"
           style="font-size:25.95405388px;font-family:gara;-inkscape-font-specification:gara"
           d="m 65.833181,1358.3272 c 1.263092,-0.8825 2.41372,-1.3237 3.45189,-1.3237 1.124666,0 2.041708,0.5105 2.751129,1.5313 l 0.05191,0 c 0.155714,0.017 0.692097,-0.2336 1.609152,-0.7527 0.934332,-0.519 1.773512,-0.7786 2.517543,-0.7786 0.968935,0 1.730253,0.2942 2.283957,0.8825 0.553668,0.5883 0.82186,1.3669 0.804575,2.3358 l -0.103816,7.1114 c -1.8e-5,0.1731 -0.08653,0.2596 -0.25954,0.2596 l -1.297703,0 c -0.173043,0 -0.259557,-0.086 -0.259541,-0.2596 l 0,-6.4106 c -1.6e-5,-1.7822 -0.804591,-2.6733 -2.413727,-2.6733 -0.951661,0 -1.669723,0.3028 -2.154186,0.9084 -0.259552,0.3288 -0.389322,0.8478 -0.389311,1.5572 l 0,6.6183 c -1.1e-5,0.1731 -0.08652,0.2596 -0.25954,0.2596 l -1.401519,0 c -0.173037,0 -0.25955,-0.086 -0.259541,-0.2596 l 0,-6.4106 c -9e-6,-1.7822 -0.795933,-2.6733 -2.387773,-2.6733 -0.934352,0 -1.661065,0.3115 -2.18014,0.9344 -0.259546,0.3114 -0.389316,0.8045 -0.389311,1.4793 l 0,6.6702 c -5e-6,0.1731 -0.08652,0.2596 -0.259541,0.2596 l -1.401519,0 c -0.173029,0 -0.259543,-0.086 -0.25954,-0.2596 l 0,-7.1892 c -3e-6,-0.571 -0.03461,-0.9171 -0.103816,-1.0382 -0.06921,-0.1211 -0.337405,-0.3547 -0.804576,-0.7008 -0.08651,-0.069 -0.129772,-0.1557 -0.12977,-0.2595 -2e-6,-0.1038 0.06921,-0.1817 0.207632,-0.2336 0.13842,-0.069 0.372006,-0.173 0.70076,-0.3114 0.588288,-0.2596 1.141974,-0.5451 1.661059,-0.8565 0.06921,-0.052 0.138417,-0.078 0.207632,-0.078 0.08651,0 0.138418,0.061 0.155725,0.1817 0.0346,0.1211 0.0519,0.2682 0.05191,0.4412 -0.01731,0.2769 -0.02596,0.398 -0.02595,0.3634 -5e-6,0.4325 0.09516,0.6575 0.285494,0.6748"
           inkscape:connector-curvature="0" />
        <path
           id="path3868"
           style="font-size:25.95405388px;font-family:gara;-inkscape-font-specification:gara"
           d="m 81.761673,1362.6096 c -10e-7,-1.5918 0.527731,-2.9242 1.583197,-3.9969 1.055462,-1.0728 2.370466,-1.6092 3.945016,-1.6092 1.52263,0 2.777075,0.5191 3.763338,1.5573 1.003546,1.0208 1.505324,2.2926 1.505335,3.8152 -1.1e-5,1.6265 -0.510441,2.9674 -1.531289,4.0229 -1.003566,1.0381 -2.31857,1.5572 -3.945016,1.5572 -1.557248,0 -2.837647,-0.5017 -3.8412,-1.5053 -0.986255,-1.0036 -1.479382,-2.284 -1.479381,-3.8412 m 2.232049,-0.3374 c -4e-6,1.2285 0.250885,2.3013 0.752667,3.2183 0.60559,1.1247 1.470724,1.687 2.595405,1.687 1.055458,0 1.84273,-0.4931 2.361819,-1.4794 0.415256,-0.7786 0.622888,-1.7475 0.622898,-2.9068 -1e-5,-1.2631 -0.242247,-2.3532 -0.726714,-3.2702 -0.605603,-1.1593 -1.479388,-1.7389 -2.621359,-1.739 -1.038168,1e-4 -1.82544,0.5191 -2.361819,1.5573 -0.415268,0.8132 -0.622901,1.7908 -0.622897,2.9328"
           inkscape:connector-curvature="0" />
        <path
           id="path3870"
           style="font-size:25.95405388px;font-family:gara;-inkscape-font-specification:gara"
           d="m 97.45252,1367.3332 c -4e-6,0.1731 -0.08652,0.2596 -0.25954,0.2596 l -1.427473,0 c -0.173029,0 -0.259543,-0.086 -0.259541,-0.2596 l 0,-15.0274 c -2e-6,-0.6575 -0.198983,-1.116 -0.596943,-1.3755 -0.397963,-0.2596 -0.596944,-0.4499 -0.596943,-0.571 -10e-7,-0.1211 0.06056,-0.2076 0.181678,-0.2596 0.207631,-0.069 0.51908,-0.173 0.934346,-0.3114 0.519079,-0.173 1.081416,-0.4066 1.687014,-0.7008 0.06921,-0.017 0.121115,-0.026 0.155724,-0.026 0.15572,0 0.233582,0.095 0.233587,0.2855 -5e-6,0.3287 -0.01731,0.8305 -0.05191,1.5053 -0.01731,0.6575 -0.02596,1.1593 -0.02595,1.5053 l 0.02595,14.9755"
           inkscape:connector-curvature="0" />
        <path
           id="path3872"
           style="font-size:25.95405388px;font-family:gara;-inkscape-font-specification:gara"
           d="m 103.75043,1358.3272 c 1.43612,-0.8825 2.64731,-1.3237 3.63357,-1.3237 0.96894,0 1.71296,0.2942 2.23205,0.8825 0.53637,0.571 0.80456,1.3496 0.80457,2.3358 l 0,7.1114 c -1e-5,0.1731 -0.0865,0.2596 -0.25954,0.2596 l -1.45342,0 c -0.17304,0 -0.25955,-0.086 -0.25954,-0.2596 l 0.0519,-6.5144 c 0.0173,-1.713 -0.79593,-2.5695 -2.43968,-2.5695 -1.02086,0 -1.75623,0.3028 -2.20609,0.9084 -0.25955,0.3461 -0.38932,0.8651 -0.38931,1.5572 l 0,6.6183 c -1e-5,0.1731 -0.0865,0.2596 -0.25954,0.2596 l -1.45343,0 c -0.17303,0 -0.25954,-0.086 -0.25954,-0.2596 0.0346,-4.8966 0.0519,-7.3709 0.0519,-7.4228 0,-0.4499 -0.0519,-0.7527 -0.15573,-0.9084 -0.0346,-0.052 -0.28549,-0.2509 -0.75266,-0.597 -0.0865,-0.069 -0.12978,-0.1557 -0.12977,-0.2595 -1e-5,-0.1038 0.0692,-0.1817 0.20763,-0.2336 0.13842,-0.069 0.36335,-0.173 0.6748,-0.3114 0.58829,-0.2596 1.15063,-0.5451 1.68702,-0.8565 0.0692,-0.052 0.13842,-0.078 0.20763,-0.078 0.12111,0 0.19033,0.1384 0.20763,0.4153 -0.0173,-0.571 -0.026,-0.3807 -0.0259,0.571 -1e-5,0.4325 0.0952,0.6575 0.28549,0.6748"
           inkscape:connector-curvature="0" />
        <path
           id="path3874"
           style="font-size:25.95405388px;font-family:gara;-inkscape-font-specification:gara"
           d="m 123.11094,1358.3012 0,9.032 c -1e-5,0.1731 -0.0865,0.2596 -0.25954,0.2596 l -1.37557,0 c -0.19033,0 -0.3201,-0.225 -0.38931,-0.6748 -0.98626,0.6921 -2.00712,1.0381 -3.06257,1.0381 -1.52265,0 -2.75114,-0.4758 -3.68548,-1.4274 -0.91705,-0.969 -1.37557,-2.2148 -1.37557,-3.7374 0,-1.7649 0.61425,-3.1837 1.84274,-4.2565 1.17658,-1.0208 2.65596,-1.5313 4.43815,-1.5313 0.64019,0 1.3496,0.1211 2.12823,0.3634 1.15927,0.3633 1.73891,0.6748 1.73892,0.9343 m -2.28396,7.7343 c -1e-5,-0.052 0.0173,-0.1038 0.0519,-0.1557 0.20762,-0.346 0.31144,-0.8132 0.31145,-1.4015 l 0,-4.9053 c -1e-5,-0.069 -0.0606,-0.173 -0.18168,-0.3115 -0.81323,-0.917 -1.67837,-1.3755 -2.5954,-1.3755 -1.10738,0 -1.99847,0.4325 -2.67327,1.2977 -0.6056,0.7786 -0.9084,1.7389 -0.90839,2.8809 -1e-5,1.2112 0.3893,2.258 1.16793,3.1404 0.79592,0.8651 1.79947,1.2977 3.01067,1.2977 0.60559,0 1.21118,-0.1557 1.81678,-0.4672"
           inkscape:connector-curvature="0" />
        <path
           id="path3876"
           style="font-size:25.95405388px;font-family:gara;-inkscape-font-specification:gara"
           d="m 129.01346,1358.3272 c 0,0.1038 0.0259,0.1817 0.0779,0.2336 1.2631,-1.0382 2.21474,-1.5573 2.85495,-1.5573 0.32874,0 0.60559,0.095 0.83053,0.2855 0.22493,0.1904 0.33739,0.4412 0.3374,0.7527 -1e-5,0.3287 -0.11247,0.6142 -0.3374,0.8565 -0.20764,0.2249 -0.46718,0.3374 -0.77862,0.3374 -0.19034,0 -0.45853,-0.095 -0.80458,-0.2855 -0.34606,-0.2077 -0.64886,-0.3115 -0.90839,-0.3115 -0.84784,0 -1.27175,0.8392 -1.27175,2.5176 l 0,6.177 c 0,0.1731 -0.0865,0.2596 -0.25954,0.2596 l -1.40152,0 c -0.17303,0 -0.25954,-0.086 -0.25954,-0.2596 l 0,-7.1892 c 0,-0.571 -0.0346,-0.9257 -0.10381,-1.0642 -0.0519,-0.086 -0.32011,-0.3114 -0.80458,-0.6748 -0.0865,-0.069 -0.12977,-0.1557 -0.12977,-0.2595 0,-0.1038 0.0692,-0.1903 0.20763,-0.2595 0.15572,-0.069 0.39796,-0.1731 0.72672,-0.3115 0.44986,-0.2076 0.9949,-0.4845 1.6351,-0.8305 0.0692,-0.035 0.12977,-0.052 0.18168,-0.052 0.13842,0 0.20763,0.095 0.20763,0.2855 l 0,1.3496"
           inkscape:connector-curvature="0" />
      </g>
    </pattern>
    <filter
       inkscape:collect="always"
       id="filter4988"
       x="-0.12225027"
       width="1.2445005"
       y="-0.13642009"
       height="1.2728402">
      <feGaussianBlur
         inkscape:collect="always"
         stdDeviation="0.47204193"
         id="feGaussianBlur4990" />
    </filter>
    <filter
       inkscape:collect="always"
       id="filter4992"
       x="-0.085043661"
       width="1.1700873"
       y="-0.13578242"
       height="1.2715648">
      <feGaussianBlur
         inkscape:collect="always"
         stdDeviation="0.47204193"
         id="feGaussianBlur4994" />
    </filter>
    <filter
       inkscape:collect="always"
       id="filter4996"
       x="-0.087046834"
       width="1.1740937"
       y="-0.13610868"
       height="1.2722174">
      <feGaussianBlur
         inkscape:collect="always"
         stdDeviation="0.47204193"
         id="feGaussianBlur4998" />
    </filter>
    <filter
       inkscape:collect="always"
       id="filter5000"
       x="-0.27034136"
       width="1.5406827"
       y="-0.080250237"
       height="1.1605005">
      <feGaussianBlur
         inkscape:collect="always"
         stdDeviation="0.47204193"
         id="feGaussianBlur5002" />
    </filter>
    <filter
       inkscape:collect="always"
       id="filter5004"
       x="-0.079932874"
       width="1.1598657"
       y="-0.13578242"
       height="1.2715648">
      <feGaussianBlur
         inkscape:collect="always"
         stdDeviation="0.47204193"
         id="feGaussianBlur5006" />
    </filter>
    <filter
       inkscape:collect="always"
       id="filter5008"
       x="-0.051631206"
       width="1.1032624"
       y="-0.13610868"
       height="1.2722174">
      <feGaussianBlur
         inkscape:collect="always"
         stdDeviation="0.47204193"
         id="feGaussianBlur5010" />
    </filter>
    <filter
       inkscape:collect="always"
       id="filter5012">
      <feGaussianBlur
         inkscape:collect="always"
         stdDeviation="0.47204193"
         id="feGaussianBlur5014" />
    </filter>
    <filter
       inkscape:collect="always"
       id="filter5016"
       x="-0.096944809"
       width="1.1938896"
       y="-0.13579218"
       height="1.2715844">
      <feGaussianBlur
         inkscape:collect="always"
         stdDeviation="0.47204193"
         id="feGaussianBlur5018" />
    </filter>
    <filter
       inkscape:collect="always"
       id="filter5020"
       x="-0.12453959"
       width="1.2490792"
       y="-0.11987352"
       height="1.239747">
      <feGaussianBlur
         inkscape:collect="always"
         stdDeviation="0.47204193"
         id="feGaussianBlur5022" />
    </filter>
    <filter
       inkscape:collect="always"
       id="filter5024"
       x="-0.096944809"
       width="1.1938896"
       y="-0.13579218"
       height="1.2715844">
      <feGaussianBlur
         inkscape:collect="always"
         stdDeviation="0.47204193"
         id="feGaussianBlur5026" />
    </filter>
    <filter
       inkscape:collect="always"
       id="filter5028"
       x="-0.12225023"
       width="1.2445005"
       y="-0.13642009"
       height="1.2728402">
      <feGaussianBlur
         inkscape:collect="always"
         stdDeviation="0.47204193"
         id="feGaussianBlur5030" />
    </filter>
  </defs>
  <sodipodi:namedview
     id="base"
     pagecolor="#ffffff"
     bordercolor="#666666"
     borderopacity="1.0"
     inkscape:pageopacity="0.0"
     inkscape:pageshadow="2"
     inkscape:zoom="5.6568542"
     inkscape:cx="35.174908"
     inkscape:cy="43.155222"
     inkscape:document-units="px"
     inkscape:current-layer="layer1"
     showgrid="false"
     inkscape:window-width="1391"
     inkscape:window-height="876"
     inkscape:window-x="49"
     inkscape:window-y="24"
     inkscape:window-maximized="1" />
  <metadata
     id="metadata3843">
    <rdf:RDF>
      <cc:Work
         rdf:about="">
        <dc:format>image/svg+xml</dc:format>
        <dc:type
           rdf:resource="http://purl.org/dc/dcmitype/StillImage" />
        <dc:title></dc:title>
      </cc:Work>
    </rdf:RDF>
  </metadata>
  <g
     inkscape:label="Layer 1"
     inkscape:groupmode="layer"
     id="layer1"
     transform="translate(0,-1022.3622)">
    <rect
       id="rect4480"
       y="1028.6936"
       x="6.2600002"
       height="19.336449"
       width="169.48007"
       style="fill:none;stroke:none;stroke-opacity:1" />
    <path
       d="m 10.293871,1042.6073 c -0.317993,0.04 -0.476986,0.2242 -0.476981,0.5536 l 0,4.2707 c -5e-6,0.1318 -0.1135734,0.1977 -0.340701,0.1977 l -1.8397844,0 c -0.2271368,0 -0.3407038,-0.066 -0.3407007,-0.1977 l 0,-10.6963 c -3.1e-6,-0.435 -0.04543,-0.6986 -0.1362805,-0.7909 -0.090856,-0.092 -0.4429133,-0.2702 -1.0561724,-0.5339 -0.1135689,-0.053 -0.170352,-0.1186 -0.1703504,-0.1976 -1.6e-6,-0.079 0.068139,-0.1385 0.2044204,-0.178 0.2498453,-0.079 0.6246158,-0.1845 1.1243127,-0.3164 0.6586847,-0.1976 1.362799,-0.4349 2.112345,-0.7117 0.090849,-0.027 0.1703453,-0.04 0.2384906,-0.04 0.2044157,0 0.3066257,0.059 0.3066317,0.1779 -6e-6,0.092 -0.03407,0.2373 -0.102211,0.435 -0.04543,0.1977 -0.06814,0.3427 -0.06814,0.435 -5e-6,0.1581 0.1022054,0.2438 0.306631,0.257 2.112337,-0.6195 3.702273,-0.9293 4.769811,-0.9293 1.703493,0 3.089007,0.3626 4.15655,1.0875 0.999374,0.6854 1.499068,1.529 1.499083,2.5307 -1.5e-5,1.384 -0.783627,2.5175 -2.350836,3.4007 -1.567234,0.8831 -3.554654,1.3246 -5.962263,1.3246 -0.726835,0 -1.351453,-0.027 -1.873854,-0.079 m -0.4769806,-5.5953 0,3.4006 c -6e-6,0.5009 0.3293376,0.8964 0.9880316,1.1864 0.681394,0.2899 1.510432,0.4349 2.487116,0.4349 1.499072,0 2.646098,-0.3954 3.441077,-1.1863 0.658676,-0.6458 0.988019,-1.4367 0.988033,-2.3726 -1.4e-5,-0.8567 -0.38614,-1.5883 -1.158383,-2.1946 -0.863121,-0.659 -2.010145,-0.9885 -3.441078,-0.9885 -1.385524,0 -2.350842,0.1845 -2.895956,0.5535 -0.2725666,0.1846 -0.4088466,0.5734 -0.4088406,1.1666"
       style="font-size:25.95405388000000002px;font-style:normal;font-variant:normal;font-weight:normal;font-stretch:normal;line-height:125%;letter-spacing:0px;word-spacing:0px;fill:#000000;fill-opacity:0.3764706;stroke:none;filter:url(#filter5012);font-family:gara;-inkscape-font-specification:gara"
       id="path4482"
       inkscape:connector-curvature="0" />
    <path
       d="m 22.560698,1038.8112 c -2e-6,-1.2126 0.613258,-2.2473 1.839784,-3.1041 1.294658,-0.9094 2.964091,-1.3642 5.008302,-1.3642 1.249226,0 2.339468,0.2043 3.270728,0.6129 1.044803,0.4614 1.56721,1.0413 1.567223,1.7399 -1.3e-5,0.4614 -0.295286,0.6921 -0.885822,0.692 -0.136292,10e-5 -0.352069,-0.01 -0.647331,-0.02 -0.272572,-0.013 -0.476992,-0.02 -0.613262,-0.02 l -6.302965,0 c -0.431558,0 -0.692762,0.027 -0.783611,0.079 -0.09085,0.053 -0.136284,0.2043 -0.136282,0.4547 -2e-6,1.0413 0.488335,1.9046 1.465015,2.5901 1.04481,0.7381 2.441681,1.1072 4.190619,1.1072 0.908526,0 1.68078,-0.1648 2.316766,-0.4943 0.658676,-0.3295 0.999376,-0.4943 1.022103,-0.4943 0.249834,0 0.374757,0.079 0.37477,0.2372 -1.3e-5,0.4614 -0.681414,0.8963 -2.044205,1.305 -1.249246,0.369 -2.339487,0.5535 -3.270727,0.5535 -1.90793,0 -3.452439,-0.3624 -4.633531,-1.0873 -1.158386,-0.7382 -1.737576,-1.6674 -1.737574,-2.7879 m 2.691536,-2.155 c -4e-6,0.066 0.0795,0.099 0.23849,0.099 l 2.418976,0 c 2.089623,0 3.270718,-0.066 3.543289,-0.1976 0.136269,-0.066 0.204409,-0.1912 0.20442,-0.3758 -1.1e-5,-0.4085 -0.261215,-0.7182 -0.783612,-0.9292 -0.499703,-0.2108 -1.112964,-0.3163 -1.839784,-0.3163 -1.453664,0 -2.589332,0.3822 -3.407008,1.1467 -0.249851,0.2109 -0.374775,0.402 -0.374771,0.5734"
       style="font-size:25.95405388000000002px;font-style:normal;font-variant:normal;font-weight:normal;font-stretch:normal;line-height:125%;letter-spacing:0px;word-spacing:0px;fill:#000000;fill-opacity:0.3764706;stroke:none;filter:url(#filter5016);font-family:gara;-inkscape-font-specification:gara"
       id="path4484"
       inkscape:connector-curvature="0" />
    <path
       d="m 41.75067,1042.6864 c -2.362196,0 -3.543292,-0.7117 -3.543289,-2.1353 l 0,-4.5276 c -3e-6,-0.2504 -0.03408,-0.4086 -0.102208,-0.4745 -0.04543,-0.066 -0.24985,-0.099 -0.613261,-0.099 -0.545123,10e-5 -0.783613,10e-5 -0.715472,0 -0.272561,-0.013 -0.408841,-0.092 -0.408841,-0.2372 0,-0.1055 0.147636,-0.1977 0.442911,-0.2769 0.227133,-0.04 0.465623,-0.086 0.715472,-0.1383 0.863106,-0.2241 1.56722,-0.5931 2.112346,-1.1073 0.317982,-0.3031 0.545116,-0.4547 0.681401,-0.4547 0.295269,0 0.442905,0.066 0.44291,0.1977 l 0,0.8106 c -5e-6,0.1714 0.02271,0.2769 0.06814,0.3164 0.06813,0.04 0.249841,0.059 0.54512,0.059 l 3.645499,0 c 0.295265,0 0.442901,0.145 0.442912,0.435 -1.1e-5,0.2636 -0.136291,0.3954 -0.408842,0.3954 l -3.713639,0 c -0.295279,0 -0.476987,0.033 -0.545121,0.099 -0.04543,0.053 -0.06814,0.178 -0.06814,0.3757 l 0,3.6973 c -5e-6,0.6854 0.124917,1.1862 0.374771,1.5026 0.363408,0.4613 1.067523,0.692 2.112345,0.692 0.38612,0 0.772248,-0.059 1.158383,-0.1779 0.408831,-0.1319 0.624609,-0.1978 0.647332,-0.1978 0.227124,0 0.34069,0.079 0.340701,0.2373 -1.1e-5,0.2636 -0.499704,0.5074 -1.499084,0.7315 -0.840404,0.1845 -1.544518,0.2768 -2.112345,0.2768"
       style="font-size:25.95405388000000002px;font-style:normal;font-variant:normal;font-weight:normal;font-stretch:normal;line-height:125%;letter-spacing:0px;word-spacing:0px;fill:#000000;fill-opacity:0.3764706;stroke:none;filter:url(#filter5020);font-family:gara;-inkscape-font-specification:gara"
       id="path4486"
       inkscape:connector-curvature="0" />
    <path
       d="m 47.647454,1038.8112 c -1e-6,-1.2126 0.613259,-2.2473 1.839783,-3.1041 1.294659,-0.9094 2.964093,-1.3642 5.008302,-1.3642 1.249228,0 2.33947,0.2043 3.270729,0.6129 1.044803,0.4614 1.56721,1.0413 1.567223,1.7399 -1.3e-5,0.4614 -0.295287,0.6921 -0.885821,0.692 -0.136293,10e-5 -0.35207,-0.01 -0.647332,-0.02 -0.272572,-0.013 -0.476992,-0.02 -0.613261,-0.02 l -6.302965,0 c -0.431559,0 -0.692763,0.027 -0.783613,0.079 -0.09085,0.053 -0.136283,0.2043 -0.13628,0.4547 -3e-6,1.0413 0.488334,1.9046 1.465014,2.5901 1.044809,0.7381 2.441681,1.1072 4.190619,1.1072 0.908527,0 1.680781,-0.1648 2.316766,-0.4943 0.658676,-0.3295 0.999376,-0.4943 1.022102,-0.4943 0.249834,0 0.374758,0.079 0.374771,0.2372 -1.3e-5,0.4614 -0.681413,0.8963 -2.044204,1.305 -1.249246,0.369 -2.339488,0.5535 -3.270728,0.5535 -1.907931,0 -3.452439,-0.3624 -4.633532,-1.0873 -1.158384,-0.7382 -1.737574,-1.6674 -1.737573,-2.7879 m 2.691536,-2.155 c -4e-6,0.066 0.0795,0.099 0.23849,0.099 l 2.418976,0 c 2.089623,0 3.270719,-0.066 3.543289,-0.1976 0.13627,-0.066 0.20441,-0.1912 0.20442,-0.3758 -1e-5,-0.4085 -0.261214,-0.7182 -0.783611,-0.9292 -0.499705,-0.2108 -1.112965,-0.3163 -1.839785,-0.3163 -1.453663,0 -2.589331,0.3822 -3.407009,1.1467 -0.24985,0.2109 -0.374774,0.402 -0.37477,0.5734"
       style="font-size:25.95405388000000002px;font-style:normal;font-variant:normal;font-weight:normal;font-stretch:normal;line-height:125%;letter-spacing:0px;word-spacing:0px;fill:#000000;fill-opacity:0.3764706;stroke:none;filter:url(#filter5024);font-family:gara;-inkscape-font-specification:gara"
       id="path4488"
       inkscape:connector-curvature="0" />
    <path
       d="m 66.15603,1035.3513 c -5e-6,0.079 0.03406,0.1384 0.102207,0.1779 1.658069,-0.7909 2.907305,-1.1863 3.747709,-1.1863 0.431544,0 0.794958,0.072 1.090242,0.2175 0.295263,0.145 0.4429,0.3361 0.442912,0.5734 -1.2e-5,0.2504 -0.147649,0.4679 -0.442912,0.6525 -0.272571,0.1713 -0.613271,0.257 -1.022102,0.257 -0.249856,0 -0.601914,-0.072 -1.056173,-0.2175 -0.454275,-0.1582 -0.851759,-0.2373 -1.192452,-0.2373 -1.112962,0 -1.66944,0.6393 -1.669435,1.9179 l 0,4.7055 c -5e-6,0.1319 -0.113575,0.1978 -0.3407,0.1978 l -1.839785,0 c -0.227137,0 -0.340704,-0.065 -0.340701,-0.1978 l 0,-5.4766 c -3e-6,-0.435 -0.04543,-0.7052 -0.13628,-0.8107 -0.06814,-0.066 -0.4202,-0.2372 -1.056172,-0.5141 -0.113575,-0.053 -0.170352,-0.1186 -0.170351,-0.1976 -10e-7,-0.079 0.09085,-0.145 0.272561,-0.1977 0.204418,-0.053 0.522405,-0.1319 0.953962,-0.2373 0.590545,-0.1582 1.306015,-0.3691 2.146416,-0.6327 0.09085,-0.027 0.170345,-0.04 0.23849,-0.04 0.181701,0 0.272555,0.072 0.27256,0.2175 l 0,1.0281"
       style="font-size:25.95405388000000002px;font-style:normal;font-variant:normal;font-weight:normal;font-stretch:normal;line-height:125%;letter-spacing:0px;word-spacing:0px;fill:#000000;fill-opacity:0.3764706;stroke:none;filter:url(#filter5028);font-family:gara;-inkscape-font-specification:gara"
       id="path4490"
       inkscape:connector-curvature="0" />
    <path
       d="m 87.092622,1035.3513 c 1.658071,-0.6723 3.168509,-1.0084 4.531322,-1.0084 1.476358,0 2.680166,0.3889 3.611428,1.1665 l 0.06814,0 c 0.204407,0.013 0.908521,-0.1779 2.112346,-0.5734 1.226504,-0.3953 2.328103,-0.5931 3.304802,-0.5931 1.27192,0 2.27131,0.2241 2.99816,0.6723 0.72681,0.4481 1.07887,1.0413 1.05618,1.7794 l -0.13628,5.4173 c -3e-5,0.1319 -0.11359,0.1978 -0.3407,0.1978 l -1.70351,0 c -0.22715,0 -0.34072,-0.065 -0.3407,-0.1978 l 0,-4.8835 c -2e-5,-1.3576 -1.05619,-2.0365 -3.168519,-2.0365 -1.249253,0 -2.191858,0.2307 -2.827816,0.692 -0.340716,0.2505 -0.511066,0.6459 -0.511052,1.1863 l 0,5.0417 c -1.4e-5,0.1319 -0.113575,0.1978 -0.3407,0.1978 l -1.839785,0 c -0.227146,0 -0.340713,-0.065 -0.340701,-0.1978 l 0,-4.8835 c -1.2e-5,-1.3576 -1.044827,-2.0365 -3.134447,-2.0365 -1.226531,0 -2.180493,0.2373 -2.861887,0.7118 -0.340708,0.2373 -0.511058,0.6129 -0.511051,1.127 l 0,5.0812 c -7e-6,0.1319 -0.113575,0.1978 -0.340701,0.1978 l -1.839785,0 c -0.227136,0 -0.340704,-0.065 -0.3407,-0.1978 l 0,-5.4766 c -4e-6,-0.435 -0.04543,-0.6986 -0.13628,-0.7909 -0.09085,-0.092 -0.442914,-0.2702 -1.056173,-0.5339 -0.113562,-0.053 -0.170353,-0.1186 -0.17035,-0.1976 -3e-6,-0.079 0.09085,-0.1385 0.27256,-0.178 0.181705,-0.053 0.488335,-0.1318 0.919893,-0.2372 0.77225,-0.1978 1.499078,-0.4153 2.180484,-0.6525 0.09085,-0.04 0.181702,-0.059 0.272561,-0.059 0.113562,0 0.181702,0.046 0.204421,0.1384 0.04542,0.092 0.06813,0.2043 0.06814,0.3361 -0.02272,0.211 -0.03408,0.3032 -0.03406,0.2768 -7e-6,0.3295 0.124917,0.5009 0.37477,0.5141"
       style="font-size:25.95405388000000002px;font-style:normal;font-variant:normal;font-weight:normal;font-stretch:normal;line-height:125%;letter-spacing:0px;word-spacing:0px;fill:#000000;fill-opacity:0.3764706;stroke:none;filter:url(#filter5008);font-family:gara;-inkscape-font-specification:gara"
       id="path4492"
       inkscape:connector-curvature="0" />
    <path
       d="m 108.00207,1038.6135 c 0,-1.2126 0.69276,-2.2276 2.07828,-3.0447 1.38551,-0.8173 3.11172,-1.2259 5.17865,-1.2259 1.99877,0 3.64549,0.3954 4.94016,1.1863 1.31736,0.7777 1.97605,1.7465 1.97606,2.9064 -10e-6,1.239 -0.67006,2.2605 -2.01013,3.0646 -1.31739,0.7908 -3.0436,1.1862 -5.17865,1.1862 -2.04421,0 -3.725,-0.3822 -5.04237,-1.1467 -1.29467,-0.7645 -1.942,-1.7399 -1.942,-2.9262 m 2.93003,-0.257 c -1e-5,0.9359 0.32934,1.7531 0.98803,2.4517 0.79496,0.8567 1.93063,1.2851 3.40701,1.2851 1.38551,0 2.41896,-0.3756 3.10038,-1.127 0.54511,-0.5931 0.81767,-1.3312 0.81768,-2.2143 -1e-5,-0.9623 -0.318,-1.7927 -0.95396,-2.4912 -0.79498,-0.8832 -1.94201,-1.3247 -3.44108,-1.3248 -1.36281,10e-5 -2.39627,0.3955 -3.10038,1.1864 -0.54513,0.6194 -0.81769,1.3642 -0.81768,2.2341"
       style="font-size:25.95405388000000002px;font-style:normal;font-variant:normal;font-weight:normal;font-stretch:normal;line-height:125%;letter-spacing:0px;word-spacing:0px;fill:#000000;fill-opacity:0.3764706;stroke:none;filter:url(#filter5004);font-family:gara;-inkscape-font-specification:gara"
       id="path4494"
       inkscape:connector-curvature="0" />
    <path
       d="m 128.59956,1042.2119 c 0,0.1319 -0.11357,0.1978 -0.3407,0.1978 l -1.87385,0 c -0.22714,0 -0.3407,-0.065 -0.3407,-0.1978 l 0,-11.4476 c 0,-0.5009 -0.26121,-0.8502 -0.78361,-1.0479 -0.52241,-0.1977 -0.78362,-0.3427 -0.78362,-0.4349 0,-0.092 0.0795,-0.1582 0.23849,-0.1978 0.27256,-0.053 0.68141,-0.1318 1.22653,-0.2372 0.6814,-0.1318 1.41958,-0.3098 2.21455,-0.5339 0.0909,-0.013 0.15899,-0.02 0.20442,-0.02 0.20442,0 0.30663,0.072 0.30664,0.2175 -1e-5,0.2504 -0.0227,0.6327 -0.0682,1.1467 -0.0227,0.5009 -0.0341,0.8832 -0.0341,1.1467 l 0.0341,11.4081"
       style="font-size:25.95405388000000002px;font-style:normal;font-variant:normal;font-weight:normal;font-stretch:normal;line-height:125%;letter-spacing:0px;word-spacing:0px;fill:#000000;fill-opacity:0.3764706;stroke:none;filter:url(#filter5000);font-family:gara;-inkscape-font-specification:gara"
       id="path4496"
       inkscape:connector-curvature="0" />
    <path
       d="m 136.86688,1035.3513 c 1.8852,-0.6723 3.47514,-1.0084 4.76981,-1.0084 1.27194,0 2.24862,0.2241 2.93003,0.6723 0.7041,0.435 1.05615,1.0281 1.05617,1.7794 l 0,5.4173 c -2e-5,0.1319 -0.11355,0.1978 -0.3407,0.1978 l -1.90792,0 c -0.22715,0 -0.34071,-0.065 -0.3407,-0.1978 l 0.0681,-4.9626 c 0.0227,-1.3049 -1.04482,-1.9574 -3.20259,-1.9574 -1.34009,0 -2.30541,0.2307 -2.89595,0.692 -0.34071,0.2637 -0.51106,0.6591 -0.51105,1.1863 l 0,5.0417 c -10e-6,0.1319 -0.11355,0.1978 -0.3407,0.1978 l -1.90793,0 c -0.22713,0 -0.3407,-0.065 -0.3407,-0.1978 0.0454,-3.7301 0.0681,-5.615 0.0681,-5.6546 0,-0.3427 -0.0681,-0.5734 -0.20442,-0.692 -0.0454,-0.04 -0.37477,-0.1911 -0.98803,-0.4548 -0.11355,-0.053 -0.17036,-0.1186 -0.17035,-0.1976 -1e-5,-0.079 0.0908,-0.1385 0.27256,-0.178 0.18171,-0.053 0.47697,-0.1318 0.88582,-0.2372 0.77225,-0.1978 1.51044,-0.4153 2.21456,-0.6525 0.0908,-0.04 0.1817,-0.059 0.27256,-0.059 0.15898,0 0.24984,0.1054 0.27255,0.3164 -0.0227,-0.435 -0.0341,-0.29 -0.034,0.4349 -2e-5,0.3295 0.12496,0.5009 0.37476,0.5141"
       style="font-size:25.95405388000000002px;font-style:normal;font-variant:normal;font-weight:normal;font-stretch:normal;line-height:125%;letter-spacing:0px;word-spacing:0px;fill:#000000;fill-opacity:0.3764706;stroke:none;filter:url(#filter4996);font-family:gara;-inkscape-font-specification:gara"
       id="path4498"
       inkscape:connector-curvature="0" />
    <path
       d="m 162.28156,1035.3315 0,6.8804 c -1e-5,0.1319 -0.11354,0.1978 -0.3407,0.1978 l -1.80572,0 c -0.24984,0 -0.42019,-0.1714 -0.51105,-0.5141 -1.29467,0.5272 -2.63476,0.7908 -4.02026,0.7908 -1.99879,0 -3.61144,-0.3624 -4.83795,-1.0873 -1.20382,-0.7382 -1.80572,-1.6872 -1.80572,-2.8471 0,-1.3445 0.80633,-2.4253 2.41897,-3.2426 1.54451,-0.7776 3.4865,-1.1665 5.826,-1.1665 0.84038,0 1.77163,0.092 2.79374,0.2768 1.52178,0.2768 2.28268,0.5141 2.28269,0.7118 m -2.99817,5.8918 c -1e-5,-0.04 0.0227,-0.079 0.0681,-0.1186 0.27255,-0.2635 0.40883,-0.6195 0.40885,-1.0676 l 0,-3.7368 c -2e-5,-0.053 -0.0795,-0.1318 -0.2385,-0.2373 -1.06753,-0.6985 -2.20321,-1.0478 -3.407,-1.0478 -1.45366,0 -2.62341,0.3294 -3.50922,0.9885 -0.79498,0.5932 -1.19246,1.3247 -1.19245,2.1947 -1e-5,0.9226 0.51104,1.7201 1.53315,2.3923 1.04481,0.659 2.36218,0.9885 3.95213,0.9885 0.79496,0 1.58992,-0.1186 2.3849,-0.3559"
       style="font-size:25.95405388000000002px;font-style:normal;font-variant:normal;font-weight:normal;font-stretch:normal;line-height:125%;letter-spacing:0px;word-spacing:0px;fill:#000000;fill-opacity:0.3764706;stroke:none;filter:url(#filter4992);font-family:gara;-inkscape-font-specification:gara"
       id="path4500"
       inkscape:connector-curvature="0" />
    <path
       d="m 170.02985,1035.3513 c 0,0.079 0.034,0.1384 0.10226,0.1779 1.65808,-0.7909 2.9073,-1.1863 3.74771,-1.1863 0.43154,0 0.79496,0.072 1.09024,0.2175 0.29527,0.145 0.4429,0.3361 0.44291,0.5734 -1e-5,0.2504 -0.14764,0.4679 -0.44291,0.6525 -0.27257,0.1713 -0.61327,0.257 -1.0221,0.257 -0.24986,0 -0.60191,-0.072 -1.05617,-0.2175 -0.45428,-0.1582 -0.85177,-0.2373 -1.19246,-0.2373 -1.11296,0 -1.66943,0.6393 -1.66943,1.9179 l 0,4.7055 c 0,0.1319 -0.11355,0.1978 -0.3407,0.1978 l -1.83979,0 c -0.22713,0 -0.3407,-0.065 -0.3407,-0.1978 l 0,-5.4766 c 0,-0.435 -0.0454,-0.7052 -0.13627,-0.8107 -0.0681,-0.066 -0.42021,-0.2372 -1.05618,-0.5141 -0.11355,-0.053 -0.17035,-0.1186 -0.17035,-0.1976 0,-0.079 0.0908,-0.145 0.27256,-0.1977 0.20441,-0.053 0.52241,-0.1319 0.95397,-0.2373 0.59054,-0.1582 1.30601,-0.3691 2.14641,-0.6327 0.0908,-0.027 0.17035,-0.04 0.23849,-0.04 0.18171,0 0.27256,0.072 0.27256,0.2175 l 0,1.0281"
       style="font-size:25.95405388000000002px;font-style:normal;font-variant:normal;font-weight:normal;font-stretch:normal;line-height:125%;letter-spacing:0px;word-spacing:0px;fill:#000000;fill-opacity:0.3764706;stroke:none;filter:url(#filter4988);font-family:gara;-inkscape-font-specification:gara"
       id="path4502"
       inkscape:connector-curvature="0" />
    <rect
       style="stroke:none;fill:none;fill-opacity:1;stroke-opacity:1"
       width="169.48007"
       height="19.336448"
       x="5.2599888"
       y="1027.6939"
       id="rect3892" />
    <path
       inkscape:connector-curvature="0"
       id="path4447"
       style="font-size:25.95405388000000002px;font-style:normal;font-variant:normal;font-weight:normal;font-stretch:normal;line-height:125%;letter-spacing:0px;word-spacing:0px;fill:#cccccc;fill-opacity:1;stroke:none;font-family:gara;-inkscape-font-specification:gara"
       d="m 9.6209592,1042.0084 c -0.3179931,0.04 -0.4769866,0.2242 -0.4769812,0.5536 l 0,4.2707 c -5.4e-6,0.1318 -0.1135729,0.1977 -0.3407008,0.1977 l -1.8397844,0 c -0.2271368,0 -0.3407038,-0.066 -0.3407007,-0.1977 l 0,-10.6963 c -3.1e-6,-0.435 -0.04543,-0.6986 -0.1362805,-0.7909 -0.090856,-0.092 -0.4429133,-0.2702 -1.0561724,-0.5339 -0.1135689,-0.053 -0.170352,-0.1186 -0.1703504,-0.1976 -1.6e-6,-0.079 0.068139,-0.1385 0.2044204,-0.178 0.2498453,-0.079 0.6246158,-0.1845 1.1243127,-0.3164 0.6586847,-0.1976 1.362799,-0.4349 2.112345,-0.7117 0.090849,-0.027 0.1703453,-0.04 0.2384906,-0.04 0.2044151,0 0.3066252,0.059 0.3066308,0.1779 -5.6e-6,0.092 -0.034075,0.2373 -0.1022101,0.435 -0.045433,0.1977 -0.068145,0.3427 -0.06814,0.435 -5.2e-6,0.1581 0.1022048,0.2438 0.3066308,0.257 2.112337,-0.6195 3.702273,-0.9293 4.769811,-0.9293 1.703493,0 3.089007,0.3626 4.15655,1.0875 0.999374,0.6854 1.499068,1.529 1.499083,2.5307 -1.5e-5,1.384 -0.783627,2.5175 -2.350836,3.4007 -1.567234,0.8831 -3.554654,1.3246 -5.962263,1.3246 -0.726835,0 -1.351453,-0.027 -1.8738545,-0.079 m -0.4769811,-5.5953 0,3.4006 c -5.4e-6,0.5009 0.3293383,0.8964 0.9880326,1.1864 0.681394,0.2899 1.510432,0.4349 2.487116,0.4349 1.499072,0 2.646098,-0.3954 3.441077,-1.1863 0.658676,-0.6458 0.988019,-1.4367 0.988033,-2.3726 -1.4e-5,-0.8567 -0.38614,-1.5883 -1.158383,-2.1946 -0.863121,-0.659 -2.010145,-0.9885 -3.441078,-0.9885 -1.385524,0 -2.350842,0.1845 -2.8959566,0.5535 -0.2725663,0.1846 -0.4088464,0.5734 -0.408841,1.1666" />
    <path
       inkscape:connector-curvature="0"
       id="path4449"
       style="font-size:25.95405388000000002px;font-style:normal;font-variant:normal;font-weight:normal;font-stretch:normal;line-height:125%;letter-spacing:0px;word-spacing:0px;fill:#cccccc;fill-opacity:1;stroke:none;font-family:gara;-inkscape-font-specification:gara"
       d="m 21.887786,1038.2123 c -2e-6,-1.2126 0.613258,-2.2473 1.839784,-3.1041 1.294658,-0.9094 2.964091,-1.3642 5.008302,-1.3642 1.249226,0 2.339468,0.2043 3.270728,0.6129 1.044803,0.4614 1.56721,1.0413 1.567223,1.7399 -1.3e-5,0.4614 -0.295286,0.6921 -0.885822,0.692 -0.136292,10e-5 -0.352069,-0.01 -0.647331,-0.02 -0.272572,-0.013 -0.476992,-0.02 -0.613262,-0.02 l -6.302965,0 c -0.431558,0 -0.692762,0.027 -0.783611,0.079 -0.09085,0.053 -0.136284,0.2043 -0.136282,0.4547 -2e-6,1.0413 0.488335,1.9046 1.465015,2.5901 1.04481,0.7381 2.441681,1.1072 4.190619,1.1072 0.908526,0 1.68078,-0.1648 2.316766,-0.4943 0.658676,-0.3295 0.999376,-0.4943 1.022103,-0.4943 0.249834,0 0.374757,0.079 0.37477,0.2372 -1.3e-5,0.4614 -0.681414,0.8963 -2.044205,1.305 -1.249246,0.369 -2.339487,0.5535 -3.270727,0.5535 -1.90793,0 -3.452439,-0.3624 -4.633531,-1.0873 -1.158386,-0.7382 -1.737576,-1.6674 -1.737574,-2.7879 m 2.691536,-2.155 c -4e-6,0.066 0.0795,0.099 0.23849,0.099 l 2.418976,0 c 2.089623,0 3.270718,-0.066 3.543289,-0.1976 0.136269,-0.066 0.204409,-0.1912 0.20442,-0.3758 -1.1e-5,-0.4085 -0.261215,-0.7182 -0.783612,-0.9292 -0.499703,-0.2108 -1.112964,-0.3163 -1.839784,-0.3163 -1.453664,0 -2.589332,0.3822 -3.407008,1.1467 -0.249851,0.2109 -0.374775,0.402 -0.374771,0.5734" />
    <path
       inkscape:connector-curvature="0"
       id="path4451"
       style="font-size:25.95405388000000002px;font-style:normal;font-variant:normal;font-weight:normal;font-stretch:normal;line-height:125%;letter-spacing:0px;word-spacing:0px;fill:#cccccc;fill-opacity:1;stroke:none;font-family:gara;-inkscape-font-specification:gara"
       d="m 41.077758,1042.0875 c -2.362196,0 -3.543292,-0.7117 -3.543289,-2.1353 l 0,-4.5276 c -3e-6,-0.2504 -0.03408,-0.4086 -0.102208,-0.4745 -0.04543,-0.066 -0.24985,-0.099 -0.613261,-0.099 -0.545123,10e-5 -0.783613,10e-5 -0.715472,0 -0.272561,-0.013 -0.408841,-0.092 -0.408841,-0.2372 0,-0.1055 0.147636,-0.1977 0.442911,-0.2769 0.227133,-0.04 0.465623,-0.086 0.715472,-0.1383 0.863106,-0.2241 1.56722,-0.5931 2.112346,-1.1073 0.317982,-0.3031 0.545116,-0.4547 0.681401,-0.4547 0.295269,0 0.442905,0.066 0.44291,0.1977 l 0,0.8106 c -5e-6,0.1714 0.02271,0.2769 0.06814,0.3164 0.06813,0.04 0.249841,0.059 0.54512,0.059 l 3.645499,0 c 0.295265,0 0.442901,0.145 0.442912,0.435 -1.1e-5,0.2636 -0.136291,0.3954 -0.408842,0.3954 l -3.713639,0 c -0.295279,0 -0.476987,0.033 -0.545121,0.099 -0.04543,0.053 -0.06814,0.178 -0.06814,0.3757 l 0,3.6973 c -5e-6,0.6854 0.124917,1.1862 0.374771,1.5026 0.363408,0.4613 1.067523,0.692 2.112345,0.692 0.38612,0 0.772248,-0.059 1.158383,-0.1779 0.408831,-0.1319 0.624609,-0.1978 0.647332,-0.1978 0.227124,0 0.34069,0.079 0.340701,0.2373 -1.1e-5,0.2636 -0.499704,0.5074 -1.499084,0.7315 -0.840404,0.1845 -1.544518,0.2768 -2.112345,0.2768" />
    <path
       inkscape:connector-curvature="0"
       id="path4453"
       style="font-size:25.95405388000000002px;font-style:normal;font-variant:normal;font-weight:normal;font-stretch:normal;line-height:125%;letter-spacing:0px;word-spacing:0px;fill:#cccccc;fill-opacity:1;stroke:none;font-family:gara;-inkscape-font-specification:gara"
       d="m 46.974542,1038.2123 c -10e-7,-1.2126 0.613259,-2.2473 1.839783,-3.1041 1.294659,-0.9094 2.964093,-1.3642 5.008302,-1.3642 1.249228,0 2.33947,0.2043 3.270729,0.6129 1.044803,0.4614 1.56721,1.0413 1.567223,1.7399 -1.3e-5,0.4614 -0.295287,0.6921 -0.885821,0.692 -0.136293,10e-5 -0.35207,-0.01 -0.647332,-0.02 -0.272572,-0.013 -0.476992,-0.02 -0.613261,-0.02 l -6.302965,0 c -0.431559,0 -0.692763,0.027 -0.783613,0.079 -0.09085,0.053 -0.136283,0.2043 -0.13628,0.4547 -3e-6,1.0413 0.488334,1.9046 1.465014,2.5901 1.044809,0.7381 2.441681,1.1072 4.190619,1.1072 0.908527,0 1.680781,-0.1648 2.316766,-0.4943 0.658676,-0.3295 0.999376,-0.4943 1.022102,-0.4943 0.249834,0 0.374758,0.079 0.374771,0.2372 -1.3e-5,0.4614 -0.681413,0.8963 -2.044204,1.305 -1.249246,0.369 -2.339488,0.5535 -3.270728,0.5535 -1.907931,0 -3.452439,-0.3624 -4.633532,-1.0873 -1.158384,-0.7382 -1.737574,-1.6674 -1.737573,-2.7879 m 2.691536,-2.155 c -4e-6,0.066 0.0795,0.099 0.23849,0.099 l 2.418976,0 c 2.089623,0 3.270719,-0.066 3.543289,-0.1976 0.13627,-0.066 0.20441,-0.1912 0.20442,-0.3758 -10e-6,-0.4085 -0.261214,-0.7182 -0.783611,-0.9292 -0.499705,-0.2108 -1.112965,-0.3163 -1.839785,-0.3163 -1.453663,0 -2.589331,0.3822 -3.407009,1.1467 -0.24985,0.2109 -0.374774,0.402 -0.37477,0.5734" />
    <path
       inkscape:connector-curvature="0"
       id="path4455"
       style="font-size:25.95405388000000002px;font-style:normal;font-variant:normal;font-weight:normal;font-stretch:normal;line-height:125%;letter-spacing:0px;word-spacing:0px;fill:#cccccc;fill-opacity:1;stroke:none;font-family:gara;-inkscape-font-specification:gara"
       d="m 65.483118,1034.7524 c -5e-6,0.079 0.03406,0.1384 0.102207,0.1779 1.658069,-0.7909 2.907305,-1.1863 3.747709,-1.1863 0.431544,0 0.794958,0.072 1.090242,0.2175 0.295263,0.145 0.4429,0.3361 0.442912,0.5734 -1.2e-5,0.2504 -0.147649,0.4679 -0.442912,0.6525 -0.272571,0.1713 -0.613271,0.257 -1.022102,0.257 -0.249856,0 -0.601914,-0.072 -1.056173,-0.2175 -0.454275,-0.1582 -0.851759,-0.2373 -1.192452,-0.2373 -1.112962,0 -1.66944,0.6393 -1.669435,1.9179 l 0,4.7055 c -5e-6,0.1319 -0.113575,0.1978 -0.3407,0.1978 l -1.839785,0 c -0.227137,0 -0.340704,-0.065 -0.340701,-0.1978 l 0,-5.4766 c -3e-6,-0.435 -0.04543,-0.7052 -0.13628,-0.8107 -0.06814,-0.066 -0.4202,-0.2372 -1.056172,-0.5141 -0.113575,-0.053 -0.170352,-0.1186 -0.170351,-0.1976 -10e-7,-0.079 0.09085,-0.145 0.272561,-0.1977 0.204418,-0.053 0.522405,-0.1319 0.953962,-0.2373 0.590545,-0.1582 1.306015,-0.3691 2.146416,-0.6327 0.09085,-0.027 0.170345,-0.04 0.23849,-0.04 0.181701,0 0.272555,0.072 0.27256,0.2175 l 0,1.0281" />
    <path
       inkscape:connector-curvature="0"
       id="path4457"
       style="font-size:25.95405388000000002px;font-style:normal;font-variant:normal;font-weight:normal;font-stretch:normal;line-height:125%;letter-spacing:0px;word-spacing:0px;fill:#cccccc;fill-opacity:1;stroke:none;font-family:gara;-inkscape-font-specification:gara"
       d="m 86.41971,1034.7524 c 1.658071,-0.6723 3.168509,-1.0084 4.531322,-1.0084 1.476358,0 2.680166,0.3889 3.611428,1.1665 l 0.06814,0 c 0.204407,0.013 0.908521,-0.1779 2.112346,-0.5734 1.226504,-0.3953 2.328102,-0.5931 3.304801,-0.5931 1.27192,0 2.27131,0.2241 2.99816,0.6723 0.72681,0.4481 1.07887,1.0413 1.05618,1.7794 l -0.13628,5.4173 c -3e-5,0.1319 -0.11359,0.1978 -0.3407,0.1978 l -1.70351,0 c -0.22715,0 -0.34072,-0.065 -0.3407,-0.1978 l 0,-4.8835 c -2e-5,-1.3576 -1.05619,-2.0365 -3.168518,-2.0365 -1.249253,0 -2.191858,0.2307 -2.827816,0.692 -0.340716,0.2505 -0.511066,0.6459 -0.511052,1.1863 l 0,5.0417 c -1.4e-5,0.1319 -0.113575,0.1978 -0.3407,0.1978 l -1.839785,0 c -0.227146,0 -0.340713,-0.065 -0.340701,-0.1978 l 0,-4.8835 c -1.2e-5,-1.3576 -1.044827,-2.0365 -3.134447,-2.0365 -1.226531,0 -2.180493,0.2373 -2.861887,0.7118 -0.340708,0.2373 -0.511058,0.6129 -0.511051,1.127 l 0,5.0812 c -7e-6,0.1319 -0.113575,0.1978 -0.340701,0.1978 l -1.839785,0 c -0.227136,0 -0.340704,-0.065 -0.3407,-0.1978 l 0,-5.4766 c -4e-6,-0.435 -0.04543,-0.6986 -0.13628,-0.7909 -0.09085,-0.092 -0.442914,-0.2702 -1.056173,-0.5339 -0.113562,-0.053 -0.170353,-0.1186 -0.17035,-0.1976 -3e-6,-0.079 0.09085,-0.1385 0.27256,-0.178 0.181705,-0.053 0.488335,-0.1318 0.919893,-0.2372 0.77225,-0.1978 1.499078,-0.4153 2.180484,-0.6525 0.09085,-0.04 0.181702,-0.059 0.272561,-0.059 0.113562,0 0.181702,0.046 0.204421,0.1384 0.04542,0.092 0.06813,0.2043 0.06814,0.3361 -0.02272,0.211 -0.03408,0.3032 -0.03406,0.2768 -7e-6,0.3295 0.124917,0.5009 0.37477,0.5141" />
    <path
       inkscape:connector-curvature="0"
       id="path4459"
       style="font-size:25.95405388000000002px;font-style:normal;font-variant:normal;font-weight:normal;font-stretch:normal;line-height:125%;letter-spacing:0px;word-spacing:0px;fill:#cccccc;fill-opacity:1;stroke:none;font-family:gara;-inkscape-font-specification:gara"
       d="m 107.32916,1038.0146 c 0,-1.2126 0.69276,-2.2276 2.07828,-3.0447 1.38551,-0.8173 3.11172,-1.2259 5.17865,-1.2259 1.99877,0 3.64549,0.3954 4.94016,1.1863 1.31736,0.7777 1.97605,1.7465 1.97606,2.9064 -10e-6,1.239 -0.67006,2.2605 -2.01013,3.0646 -1.31739,0.7908 -3.0436,1.1862 -5.17865,1.1862 -2.04421,0 -3.725,-0.3822 -5.04237,-1.1467 -1.29467,-0.7645 -1.942,-1.7399 -1.942,-2.9262 m 2.93003,-0.257 c -1e-5,0.9359 0.32934,1.7531 0.98803,2.4517 0.79496,0.8567 1.93063,1.2851 3.40701,1.2851 1.38551,0 2.41896,-0.3756 3.10038,-1.127 0.54511,-0.5931 0.81767,-1.3312 0.81768,-2.2143 -10e-6,-0.9623 -0.318,-1.7927 -0.95396,-2.4912 -0.79498,-0.8832 -1.94201,-1.3247 -3.44108,-1.3248 -1.36281,10e-5 -2.39627,0.3955 -3.10038,1.1864 -0.54513,0.6194 -0.81769,1.3642 -0.81768,2.2341" />
    <path
       inkscape:connector-curvature="0"
       id="path4461"
       style="font-size:25.95405388000000002px;font-style:normal;font-variant:normal;font-weight:normal;font-stretch:normal;line-height:125%;letter-spacing:0px;word-spacing:0px;fill:#cccccc;fill-opacity:1;stroke:none;font-family:gara;-inkscape-font-specification:gara"
       d="m 127.92665,1041.613 c 0,0.1319 -0.11357,0.1978 -0.3407,0.1978 l -1.87385,0 c -0.22714,0 -0.3407,-0.065 -0.3407,-0.1978 l 0,-11.4476 c 0,-0.5009 -0.26121,-0.8502 -0.78361,-1.0479 -0.52241,-0.1977 -0.78362,-0.3427 -0.78362,-0.4349 0,-0.092 0.0795,-0.1582 0.23849,-0.1978 0.27256,-0.053 0.68141,-0.1318 1.22653,-0.2372 0.6814,-0.1318 1.41958,-0.3098 2.21455,-0.5339 0.0909,-0.013 0.15899,-0.02 0.20442,-0.02 0.20442,0 0.30663,0.072 0.30664,0.2175 -1e-5,0.2504 -0.0227,0.6327 -0.0682,1.1467 -0.0227,0.5009 -0.0341,0.8832 -0.0341,1.1467 l 0.0341,11.4081" />
    <path
       inkscape:connector-curvature="0"
       id="path4463"
       style="font-size:25.95405388000000002px;font-style:normal;font-variant:normal;font-weight:normal;font-stretch:normal;line-height:125%;letter-spacing:0px;word-spacing:0px;fill:#cccccc;fill-opacity:1;stroke:none;font-family:gara;-inkscape-font-specification:gara"
       d="m 136.19397,1034.7524 c 1.8852,-0.6723 3.47514,-1.0084 4.76981,-1.0084 1.27194,0 2.24862,0.2241 2.93003,0.6723 0.7041,0.435 1.05615,1.0281 1.05617,1.7794 l 0,5.4173 c -2e-5,0.1319 -0.11355,0.1978 -0.3407,0.1978 l -1.90792,0 c -0.22715,0 -0.34071,-0.065 -0.3407,-0.1978 l 0.0681,-4.9626 c 0.0227,-1.3049 -1.04482,-1.9574 -3.20259,-1.9574 -1.34009,0 -2.30541,0.2307 -2.89595,0.692 -0.34071,0.2637 -0.51106,0.6591 -0.51105,1.1863 l 0,5.0417 c -1e-5,0.1319 -0.11355,0.1978 -0.3407,0.1978 l -1.90793,0 c -0.22713,0 -0.3407,-0.065 -0.3407,-0.1978 0.0454,-3.7301 0.0681,-5.615 0.0681,-5.6546 0,-0.3427 -0.0681,-0.5734 -0.20442,-0.692 -0.0454,-0.04 -0.37477,-0.1911 -0.98803,-0.4548 -0.11355,-0.053 -0.17036,-0.1186 -0.17035,-0.1976 -1e-5,-0.079 0.0908,-0.1385 0.27256,-0.178 0.18171,-0.053 0.47697,-0.1318 0.88582,-0.2372 0.77225,-0.1978 1.51044,-0.4153 2.21456,-0.6525 0.0908,-0.04 0.1817,-0.059 0.27256,-0.059 0.15898,0 0.24984,0.1054 0.27255,0.3164 -0.0227,-0.435 -0.0341,-0.29 -0.034,0.4349 -2e-5,0.3295 0.12496,0.5009 0.37476,0.5141" />
    <path
       inkscape:connector-curvature="0"
       id="path4465"
       style="font-size:25.95405388000000002px;font-style:normal;font-variant:normal;font-weight:normal;font-stretch:normal;line-height:125%;letter-spacing:0px;word-spacing:0px;fill:#cccccc;fill-opacity:1;stroke:none;font-family:gara;-inkscape-font-specification:gara"
       d="m 161.60865,1034.7326 0,6.8804 c -1e-5,0.1319 -0.11354,0.1978 -0.3407,0.1978 l -1.80572,0 c -0.24984,0 -0.42019,-0.1714 -0.51105,-0.5141 -1.29467,0.5272 -2.63476,0.7908 -4.02026,0.7908 -1.99879,0 -3.61144,-0.3624 -4.83795,-1.0873 -1.20382,-0.7382 -1.80572,-1.6872 -1.80572,-2.8471 0,-1.3445 0.80633,-2.4253 2.41897,-3.2426 1.54451,-0.7776 3.4865,-1.1665 5.826,-1.1665 0.84038,0 1.77163,0.092 2.79374,0.2768 1.52178,0.2768 2.28268,0.5141 2.28269,0.7118 m -2.99817,5.8918 c -1e-5,-0.04 0.0227,-0.079 0.0681,-0.1186 0.27255,-0.2635 0.40883,-0.6195 0.40885,-1.0676 l 0,-3.7368 c -2e-5,-0.053 -0.0795,-0.1318 -0.2385,-0.2373 -1.06753,-0.6985 -2.20321,-1.0478 -3.407,-1.0478 -1.45366,0 -2.62341,0.3294 -3.50922,0.9885 -0.79498,0.5932 -1.19246,1.3247 -1.19245,2.1947 -10e-6,0.9226 0.51104,1.7201 1.53315,2.3923 1.04481,0.659 2.36218,0.9885 3.95213,0.9885 0.79496,0 1.58992,-0.1186 2.3849,-0.3559" />
    <path
       inkscape:connector-curvature="0"
       id="path4467"
       style="font-size:25.95405388000000002px;font-style:normal;font-variant:normal;font-weight:normal;font-stretch:normal;line-height:125%;letter-spacing:0px;word-spacing:0px;fill:#cccccc;fill-opacity:1;stroke:none;font-family:gara;-inkscape-font-specification:gara"
       d="m 169.35694,1034.7524 c 0,0.079 0.034,0.1384 0.10226,0.1779 1.65808,-0.7909 2.9073,-1.1863 3.74771,-1.1863 0.43154,0 0.79496,0.072 1.09024,0.2175 0.29527,0.145 0.4429,0.3361 0.44291,0.5734 -1e-5,0.2504 -0.14764,0.4679 -0.44291,0.6525 -0.27257,0.1713 -0.61327,0.257 -1.0221,0.257 -0.24986,0 -0.60191,-0.072 -1.05617,-0.2175 -0.45428,-0.1582 -0.85177,-0.2373 -1.19246,-0.2373 -1.11296,0 -1.66943,0.6393 -1.66943,1.9179 l 0,4.7055 c 0,0.1319 -0.11355,0.1978 -0.3407,0.1978 l -1.83979,0 c -0.22713,0 -0.3407,-0.065 -0.3407,-0.1978 l 0,-5.4766 c 0,-0.435 -0.0454,-0.7052 -0.13627,-0.8107 -0.0681,-0.066 -0.42021,-0.2372 -1.05618,-0.5141 -0.11355,-0.053 -0.17035,-0.1186 -0.17035,-0.1976 0,-0.079 0.0908,-0.145 0.27256,-0.1977 0.20441,-0.053 0.52241,-0.1319 0.95397,-0.2373 0.59054,-0.1582 1.30601,-0.3691 2.14641,-0.6327 0.0908,-0.027 0.17035,-0.04 0.23849,-0.04 0.18171,0 0.27256,0.072 0.27256,0.2175 l 0,1.0281" />
  </g>
</svg>
