<?xml version="1.0" encoding="UTF-8" standalone="no"?>
<!-- Created with Inkscape (http://www.inkscape.org/) -->

<svg
   xmlns:dc="http://purl.org/dc/elements/1.1/"
   xmlns:cc="http://creativecommons.org/ns#"
   xmlns:rdf="http://www.w3.org/1999/02/22-rdf-syntax-ns#"
   xmlns:svg="http://www.w3.org/2000/svg"
   xmlns="http://www.w3.org/2000/svg"
   xmlns:sodipodi="http://sodipodi.sourceforge.net/DTD/sodipodi-0.dtd"
   xmlns:inkscape="http://www.inkscape.org/namespaces/inkscape"
   version="1.1"
   width="180"
   height="30"
   id="svg3825"
   inkscape:version="0.48.3.1 r9886"
   sodipodi:docname="petermolnar_logo.svg">
  <sodipodi:namedview
     pagecolor="#ffffff"
     bordercolor="#666666"
     borderopacity="1"
     objecttolerance="10"
     gridtolerance="10"
     guidetolerance="10"
     inkscape:pageopacity="0"
     inkscape:pageshadow="2"
     inkscape:window-width="1391"
     inkscape:window-height="876"
     id="namedview32"
     showgrid="false"
     inkscape:zoom="1.7777778"
     inkscape:cx="1.96875"
     inkscape:cy="15"
     inkscape:window-x="49"
     inkscape:window-y="24"
     inkscape:window-maximized="1"
     inkscape:current-layer="svg3825" />
  <defs
     id="defs3827">
    <filter
       color-interpolation-filters="sRGB"
       id="filter3867">
      <feGaussianBlur
         id="feGaussianBlur3869"
         stdDeviation="0.4662762" />
    </filter>
  </defs>
  <metadata
     id="metadata3830">
    <rdf:RDF>
      <cc:Work
         rdf:about="">
        <dc:format>image/svg+xml</dc:format>
        <dc:type
           rdf:resource="http://purl.org/dc/dcmitype/StillImage" />
        <dc:title />
      </cc:Work>
    </rdf:RDF>
  </metadata>
  <g
     transform="translate(0,-1022.3622)"
     id="layer1"
     style="fill:#999999;fill-opacity:1;stroke:none;stroke-opacity:1">
    <g
       transform="translate(0.36972348,0.54233712)"
       id="g3843"
       style="opacity:0.59999999999999998;fill:#999999;fill-opacity:1;filter:url(#filter3867);stroke:none;stroke-opacity:1">
      <path
         d="m 8.715274,1041.5789 c -0.289188,0.037 -0.433779,0.2107 -0.433774,0.5205 l 0,4.0155 c -5e-6,0.124 -0.103285,0.1859 -0.3098388,0.1859 l -1.6731288,0 c -0.206562,0 -0.309841,-0.062 -0.309839,-0.1859 l 0,-10.0573 c -2e-6,-0.409 -0.04131,-0.6569 -0.123935,-0.7436 -0.08263,-0.087 -0.402792,-0.2541 -0.9605,-0.502 -0.103281,-0.05 -0.154921,-0.1115 -0.154919,-0.1859 -2e-6,-0.074 0.06197,-0.1301 0.185903,-0.1673 0.227213,-0.074 0.568035,-0.1735 1.022468,-0.2974 0.599018,-0.1859 1.2393504,-0.409 1.9209992,-0.6693 0.08262,-0.025 0.1549144,-0.037 0.2168874,-0.037 0.185898,0 0.278849,0.056 0.278854,0.1673 -5e-6,0.087 -0.03099,0.2231 -0.09295,0.409 -0.04132,0.1859 -0.06197,0.3223 -0.06197,0.409 -4e-6,0.1487 0.09295,0.2293 0.278855,0.2417 1.920993,-0.5825 3.366905,-0.8738 4.337741,-0.8738 1.549183,0 2.809192,0.3409 3.780031,1.0225 0.908846,0.6445 1.363276,1.4377 1.36329,2.3796 -1.4e-5,1.3013 -0.712642,2.3671 -2.137887,3.1975 -1.425267,0.8304 -3.232658,1.2456 -5.422176,1.2456 -0.660995,0 -1.229032,-0.025 -1.704112,-0.074 m -0.433774,-5.2611 0,3.1976 c -5e-6,0.4709 0.299506,0.8427 0.898532,1.1154 0.619671,0.2726 1.373611,0.409 2.261822,0.409 1.363281,0 2.406403,-0.3718 3.12937,-1.1154 0.599011,-0.6073 0.898521,-1.3509 0.898533,-2.2309 -1.2e-5,-0.8056 -0.351162,-1.4934 -1.053451,-2.0635 -0.784935,-0.6197 -1.828057,-0.9295 -3.129371,-0.9295 -1.260016,0 -2.137892,0.1735 -2.633628,0.5205 -0.247876,0.1735 -0.371811,0.5391 -0.371806,1.0968"
         id="path3845"
         style="font-size:24px;font-style:normal;font-variant:normal;font-weight:normal;font-stretch:normal;line-height:125%;letter-spacing:1px;word-spacing:0px;fill:#999999;fill-opacity:1;stroke:none;filter:url(#filter3843);font-family:gara;-inkscape-font-specification:gara;stroke-opacity:1" />
      <path
         d="m 21.161912,1038.0096 c 0,-1.1403 0.557708,-2.1131 1.673128,-2.9187 1.177383,-0.8552 2.695592,-1.2828 4.554629,-1.2828 1.136067,0 2.127549,0.1921 2.974451,0.5763 0.950161,0.4338 1.425246,0.9791 1.425258,1.636 -1.2e-5,0.4338 -0.268538,0.6506 -0.805581,0.6506 -0.123948,0 -0.320177,-0.01 -0.588693,-0.019 -0.24788,-0.012 -0.433784,-0.019 -0.55771,-0.019 l -5.732015,0 c -0.392465,0 -0.630008,0.025 -0.712629,0.074 -0.08262,0.05 -0.123935,0.1921 -0.123935,0.4276 -3e-6,0.9791 0.444099,1.7909 1.332306,2.4353 0.950166,0.6941 2.220504,1.0411 3.811015,1.0411 0.826228,0 1.528529,-0.1549 2.106903,-0.4648 0.599011,-0.3098 0.90885,-0.4647 0.929516,-0.4647 0.227203,0 0.340811,0.074 0.340823,0.2231 -1.2e-5,0.4337 -0.619688,0.8427 -1.859032,1.2269 -1.136083,0.347 -2.127567,0.5206 -2.974451,0.5206 -1.735102,0 -3.139701,-0.3409 -4.213806,-1.0225 -1.053453,-0.6941 -1.580177,-1.5678 -1.580177,-2.6212 m 2.447725,-2.0264 c -3e-6,0.062 0.0723,0.093 0.216887,0.093 l 2.199855,0 c 1.900336,0 2.974443,-0.062 3.222322,-0.1859 0.123922,-0.062 0.185894,-0.1798 0.185903,-0.3533 -9e-6,-0.3842 -0.237552,-0.6754 -0.712629,-0.8737 -0.454438,-0.1983 -1.012146,-0.2975 -1.673129,-0.2975 -1.321983,0 -2.354778,0.3595 -3.098386,1.0783 -0.227218,0.1983 -0.340826,0.378 -0.340823,0.5391"
         id="path3847"
         style="font-size:24px;font-style:normal;font-variant:normal;font-weight:normal;font-stretch:normal;line-height:125%;letter-spacing:1px;word-spacing:0px;fill:#999999;fill-opacity:1;stroke:none;filter:url(#filter3843);font-family:gara;-inkscape-font-specification:gara;stroke-opacity:1" />
      <path
         d="m 39.904568,1041.6533 c -2.148218,0 -3.222324,-0.6693 -3.222322,-2.0078 l 0,-4.2572 c -2e-6,-0.2355 -0.03098,-0.3842 -0.09295,-0.4462 -0.04131,-0.062 -0.227217,-0.093 -0.55771,-0.093 -0.495743,0 -0.71263,0 -0.650661,0 -0.247871,-0.012 -0.371806,-0.087 -0.371806,-0.2231 0,-0.099 0.134263,-0.1859 0.40279,-0.2603 0.206558,-0.037 0.423445,-0.081 0.650661,-0.1301 0.784922,-0.2107 1.425255,-0.5577 1.921,-1.041 0.289179,-0.2851 0.495738,-0.4276 0.619677,-0.4276 0.268523,0 0.402786,0.062 0.40279,0.1859 l 0,0.7622 c -4e-6,0.1611 0.02066,0.2603 0.06197,0.2974 0.06197,0.037 0.22721,0.056 0.495742,0.056 l 3.315273,0 c 0.268518,0 0.402782,0.1363 0.402791,0.409 -9e-6,0.2479 -0.123949,0.3718 -0.371807,0.3718 l -3.377241,0 c -0.268532,0 -0.433779,0.031 -0.495742,0.093 -0.04131,0.05 -0.06197,0.1674 -0.06197,0.3533 l 0,3.4764 c -3e-6,0.6444 0.113608,1.1154 0.340823,1.4128 0.330489,0.4338 0.970823,0.6507 1.921,0.6507 0.351144,0 0.702293,-0.056 1.053451,-0.1673 0.371799,-0.124 0.56803,-0.1859 0.588693,-0.1859 0.206551,0 0.30983,0.074 0.309839,0.223 -9e-6,0.2479 -0.454438,0.4772 -1.36329,0.6879 -0.764275,0.1735 -1.404608,0.2603 -1.921,0.2603"
         id="path3849"
         style="font-size:24px;font-style:normal;font-variant:normal;font-weight:normal;font-stretch:normal;line-height:125%;letter-spacing:1px;word-spacing:0px;fill:#999999;fill-opacity:1;stroke:none;filter:url(#filter3843);font-family:gara;-inkscape-font-specification:gara;stroke-opacity:1" />
      <path
         d="m 46.558192,1038.0096 c 0,-1.1403 0.557708,-2.1131 1.673129,-2.9187 1.177383,-0.8552 2.695591,-1.2828 4.554628,-1.2828 1.136067,0 2.12755,0.1921 2.974451,0.5763 0.950162,0.4338 1.425246,0.9791 1.425258,1.636 -1.2e-5,0.4338 -0.268537,0.6506 -0.80558,0.6506 -0.123949,0 -0.320177,-0.01 -0.588694,-0.019 -0.24788,-0.012 -0.433783,-0.019 -0.55771,-0.019 l -5.732015,0 c -0.392465,0 -0.630007,0.025 -0.712629,0.074 -0.08262,0.05 -0.123935,0.1921 -0.123935,0.4276 -3e-6,0.9791 0.444099,1.7909 1.332306,2.4353 0.950167,0.6941 2.220504,1.0411 3.811016,1.0411 0.826227,0 1.528528,-0.1549 2.106903,-0.4648 0.599011,-0.3098 0.908849,-0.4647 0.929516,-0.4647 0.227203,0 0.34081,0.074 0.340822,0.2231 -1.2e-5,0.4337 -0.619688,0.8427 -1.859032,1.2269 -1.136083,0.347 -2.127566,0.5206 -2.974451,0.5206 -1.735102,0 -3.139701,-0.3409 -4.213806,-1.0225 -1.053452,-0.6941 -1.580177,-1.5678 -1.580177,-2.6212 m 2.447726,-2.0264 c -3e-6,0.062 0.07229,0.093 0.216887,0.093 l 2.199854,0 c 1.900336,0 2.974443,-0.062 3.222322,-0.1859 0.123923,-0.062 0.185894,-0.1798 0.185903,-0.3533 -9e-6,-0.3842 -0.237552,-0.6754 -0.712629,-0.8737 -0.454437,-0.1983 -1.012146,-0.2975 -1.673128,-0.2975 -1.321984,0 -2.354778,0.3595 -3.098387,1.0783 -0.227218,0.1983 -0.340825,0.378 -0.340822,0.5391"
         id="path3851"
         style="font-size:24px;font-style:normal;font-variant:normal;font-weight:normal;font-stretch:normal;line-height:125%;letter-spacing:1px;word-spacing:0px;fill:#999999;fill-opacity:1;stroke:none;filter:url(#filter3843);font-family:gara;-inkscape-font-specification:gara;stroke-opacity:1" />
      <path
         d="m 64.681172,1034.7562 c -6e-6,0.074 0.03098,0.1302 0.09295,0.1674 1.507875,-0.7437 2.643949,-1.1155 3.408225,-1.1155 0.392454,0 0.722948,0.068 0.991484,0.2045 0.268518,0.1364 0.402781,0.3161 0.40279,0.5392 -9e-6,0.2354 -0.134272,0.4399 -0.40279,0.6134 -0.24788,0.1611 -0.557719,0.2417 -0.929516,0.2417 -0.227223,0 -0.547389,-0.068 -0.9605,-0.2045 -0.413124,-0.1487 -0.774603,-0.2231 -1.084435,-0.2231 -1.012145,0 -1.518215,0.6011 -1.518209,1.8033 l 0,4.4245 c -6e-6,0.1239 -0.10328,0.1859 -0.309839,0.1859 l -1.673129,0 c -0.206562,0 -0.309841,-0.062 -0.309839,-0.1859 l 0,-5.1495 c -2e-6,-0.409 -0.04131,-0.6631 -0.123935,-0.7622 -0.06197,-0.062 -0.382137,-0.2231 -0.9605,-0.4834 -0.103279,-0.05 -0.15492,-0.1115 -0.154919,-0.1859 -10e-7,-0.074 0.08262,-0.1363 0.247871,-0.1859 0.185902,-0.05 0.475083,-0.1239 0.867548,-0.2231 0.537051,-0.1487 1.187711,-0.347 1.951984,-0.5949 0.08262,-0.025 0.154915,-0.037 0.216887,-0.037 0.165242,0 0.247865,0.068 0.247871,0.2044 l 0,0.9667"
         id="path3853"
         style="font-size:24px;font-style:normal;font-variant:normal;font-weight:normal;font-stretch:normal;line-height:125%;letter-spacing:1px;word-spacing:0px;fill:#999999;fill-opacity:1;stroke:none;filter:url(#filter3843);font-family:gara;-inkscape-font-specification:gara;stroke-opacity:1" />
      <path
         d="m 86.30323,1034.7562 c 1.507875,-0.632 2.881492,-0.9481 4.120854,-0.9481 1.342624,0 2.437386,0.3656 3.28429,1.0969 l 0.06197,0 c 0.185891,0.012 0.826224,-0.1673 1.921,-0.5392 1.115404,-0.3718 2.117214,-0.5577 3.005436,-0.5577 1.15671,0 2.06557,0.2107 2.72658,0.6321 0.66097,0.4214 0.98113,0.9791 0.9605,1.6731 l -0.12394,5.0938 c -2e-5,0.1239 -0.1033,0.1859 -0.30983,0.1859 l -1.5492,0 c -0.20658,0 -0.30986,-0.062 -0.30984,-0.1859 l 0,-4.5918 c -2e-5,-1.2766 -0.96051,-1.9148 -2.881496,-1.9148 -1.136091,0 -1.99331,0.2169 -2.571661,0.6506 -0.309852,0.2355 -0.464771,0.6073 -0.464758,1.1155 l 0,4.7405 c -1.3e-5,0.1239 -0.103293,0.1859 -0.309839,0.1859 l -1.673129,0 c -0.206569,0 -0.309849,-0.062 -0.309838,-0.1859 l 0,-4.5918 c -1.1e-5,-1.2766 -0.950183,-1.9148 -2.850516,-1.9148 -1.115426,0 -1.982974,0.2231 -2.602645,0.6692 -0.309844,0.2231 -0.464763,0.5763 -0.464758,1.0597 l 0,4.7777 c -5e-6,0.1239 -0.103279,0.1859 -0.309838,0.1859 l -1.673129,0 c -0.206562,0 -0.309841,-0.062 -0.309839,-0.1859 l 0,-5.1495 c -2e-6,-0.409 -0.04131,-0.6569 -0.123935,-0.7436 -0.08262,-0.087 -0.402793,-0.2541 -0.9605,-0.502 -0.10328,-0.05 -0.154921,-0.1115 -0.154919,-0.1859 -2e-6,-0.074 0.08262,-0.1301 0.247871,-0.1673 0.165246,-0.05 0.4441,-0.1239 0.836564,-0.2231 0.702298,-0.1859 1.363286,-0.3904 1.982967,-0.6135 0.08262,-0.037 0.165244,-0.056 0.247871,-0.056 0.10328,0 0.165242,0.043 0.185903,0.1301 0.04131,0.087 0.06197,0.1921 0.06197,0.316 -0.02066,0.1983 -0.03098,0.2851 -0.03098,0.2603 -5e-6,0.3098 0.113608,0.471 0.340823,0.4833"
         id="path3855"
         style="font-size:24px;font-style:normal;font-variant:normal;font-weight:normal;font-stretch:normal;line-height:125%;letter-spacing:1px;word-spacing:0px;fill:#999999;fill-opacity:1;stroke:none;filter:url(#filter3843);font-family:gara;-inkscape-font-specification:gara;stroke-opacity:1" />
      <path
         d="m 106.6096,1037.8236 c 0,-1.1402 0.63001,-2.0945 1.89002,-2.8629 1.26001,-0.7684 2.82985,-1.1526 4.70955,-1.1526 1.81771,0 3.31526,0.3718 4.49266,1.1155 1.19803,0.7312 1.79705,1.6421 1.79706,2.7327 -1e-5,1.165 -0.60936,2.1255 -1.82805,2.8815 -1.19805,0.7436 -2.7679,1.1155 -4.70954,1.1155 -1.85904,0 -3.38758,-0.3595 -4.58562,-1.0783 -1.17738,-0.7188 -1.76608,-1.6359 -1.76608,-2.7514 m 2.66462,-0.2416 c -1e-5,0.8799 0.2995,1.6483 0.89853,2.3052 0.72295,0.8056 1.75574,1.2083 3.09839,1.2083 1.26,0 2.19984,-0.3532 2.81953,-1.0596 0.49573,-0.5577 0.7436,-1.2518 0.74361,-2.0821 -1e-5,-0.9047 -0.28919,-1.6855 -0.86755,-2.3424 -0.72296,-0.8304 -1.76609,-1.2456 -3.12937,-1.2456 -1.23936,0 -2.1792,0.3719 -2.81953,1.1155 -0.49575,0.5825 -0.74362,1.2827 -0.74361,2.1007"
         id="path3857"
         style="font-size:24px;font-style:normal;font-variant:normal;font-weight:normal;font-stretch:normal;line-height:125%;letter-spacing:1px;word-spacing:0px;fill:#999999;fill-opacity:1;stroke:none;filter:url(#filter3843);font-family:gara;-inkscape-font-specification:gara;stroke-opacity:1" />
      <path
         d="m 126.63229,1041.2071 c -2e-5,0.1239 -0.10328,0.1859 -0.30985,0.1859 l -1.70411,0 c -0.20656,0 -0.30984,-0.062 -0.30984,-0.1859 l 0,-10.7638 c 0,-0.471 -0.23754,-0.7994 -0.71263,-0.9853 -0.47508,-0.1859 -0.71263,-0.3222 -0.71263,-0.409 0,-0.087 0.0723,-0.1487 0.21689,-0.1859 0.24787,-0.05 0.61968,-0.1239 1.11542,-0.2231 0.61968,-0.1239 1.29099,-0.2912 2.01395,-0.5019 0.0826,-0.012 0.14459,-0.019 0.18591,-0.019 0.18589,0 0.27884,0.068 0.27886,0.2045 -2e-5,0.2355 -0.0207,0.5949 -0.062,1.0782 -0.0207,0.471 -0.031,0.8304 -0.031,1.0783 l 0.031,10.7266"
         id="path3859"
         style="font-size:24px;font-style:normal;font-variant:normal;font-weight:normal;font-stretch:normal;line-height:125%;letter-spacing:1px;word-spacing:0px;fill:#999999;fill-opacity:1;stroke:none;filter:url(#filter3843);font-family:gara;-inkscape-font-specification:gara;stroke-opacity:1" />
      <path
         d="m 135.44171,1034.7562 c 1.71443,-0.632 3.16034,-0.9481 4.33774,-0.9481 1.15672,0 2.04492,0.2107 2.66461,0.6321 0.64032,0.409 0.96049,0.9667 0.9605,1.6731 l 0,5.0938 c -1e-5,0.1239 -0.10328,0.1859 -0.30983,0.1859 l -1.7351,0 c -0.20657,0 -0.30985,-0.062 -0.30984,-0.1859 l 0.062,-4.6662 c 0.0207,-1.2269 -0.95019,-1.8404 -2.91249,-1.8404 -1.21871,0 -2.09658,0.2169 -2.63362,0.6506 -0.30986,0.2479 -0.46478,0.6197 -0.46476,1.1155 l 0,4.7405 c -2e-5,0.1239 -0.10328,0.1859 -0.30984,0.1859 l -1.7351,0 c -0.20657,0 -0.30985,-0.062 -0.30984,-0.1859 0.0413,-3.5074 0.062,-5.2797 0.062,-5.3168 -1e-5,-0.3223 -0.062,-0.5392 -0.1859,-0.6507 -0.0413,-0.037 -0.34084,-0.1797 -0.89853,-0.4276 -0.10328,-0.05 -0.15492,-0.1115 -0.15492,-0.1859 0,-0.074 0.0826,-0.1301 0.24787,-0.1673 0.16523,-0.05 0.43376,-0.1239 0.80558,-0.2231 0.70229,-0.1859 1.3736,-0.3904 2.01395,-0.6135 0.0826,-0.037 0.16523,-0.056 0.24787,-0.056 0.14458,0 0.2272,0.099 0.24787,0.2974 -0.0206,-0.409 -0.031,-0.2726 -0.031,0.409 -2e-5,0.3098 0.11361,0.471 0.34082,0.4833"
         id="path3861"
         style="font-size:24px;font-style:normal;font-variant:normal;font-weight:normal;font-stretch:normal;line-height:125%;letter-spacing:1px;word-spacing:0px;fill:#999999;fill-opacity:1;stroke:none;filter:url(#filter3843);font-family:gara;-inkscape-font-specification:gara;stroke-opacity:1" />
      <path
         d="m 159.84521,1034.7377 0,6.4694 c -1e-5,0.1239 -0.10328,0.1859 -0.30984,0.1859 l -1.64214,0 c -0.22723,0 -0.38215,-0.1611 -0.46476,-0.4834 -1.1774,0.4958 -2.3961,0.7437 -3.6561,0.7437 -1.81772,0 -3.28429,-0.3409 -4.39971,-1.0225 -1.09476,-0.6941 -1.64214,-1.5864 -1.64214,-2.677 0,-1.2642 0.73328,-2.2804 2.19985,-3.0488 1.4046,-0.7313 3.17068,-1.0969 5.29824,-1.0969 0.76426,0 1.61115,0.087 2.54068,0.2603 1.38393,0.2603 2.07591,0.4834 2.07592,0.6693 m -2.72658,5.5399 c -1e-5,-0.037 0.0207,-0.074 0.062,-0.1116 0.24786,-0.2478 0.37179,-0.5825 0.3718,-1.0038 l 0,-3.5136 c -10e-6,-0.05 -0.0723,-0.124 -0.21688,-0.2231 -0.97084,-0.6569 -2.00364,-0.9853 -3.09839,-0.9853 -1.32198,0 -2.38576,0.3098 -3.19134,0.9295 -0.72296,0.5577 -1.08443,1.2456 -1.08443,2.0636 0,0.8675 0.46475,1.6173 1.39427,2.2494 0.95017,0.6197 2.14822,0.9295 3.59413,0.9295 0.72294,0 1.4459,-0.1115 2.16887,-0.3346"
         id="path3863"
         style="font-size:24px;font-style:normal;font-variant:normal;font-weight:normal;font-stretch:normal;line-height:125%;letter-spacing:1px;word-spacing:0px;fill:#999999;fill-opacity:1;stroke:none;filter:url(#filter3843);font-family:gara;-inkscape-font-specification:gara;stroke-opacity:1" />
      <path
         d="m 168.18262,1034.7562 c -10e-6,0.074 0.031,0.1302 0.093,0.1674 1.50787,-0.7437 2.64394,-1.1155 3.40823,-1.1155 0.39245,0 0.72294,0.068 0.99148,0.2045 0.26851,0.1364 0.40278,0.3161 0.40279,0.5392 -1e-5,0.2354 -0.13428,0.4399 -0.40279,0.6134 -0.24788,0.1611 -0.55772,0.2417 -0.92952,0.2417 -0.22722,0 -0.54739,-0.068 -0.9605,-0.2045 -0.41313,-0.1487 -0.77461,-0.2231 -1.08443,-0.2231 -1.01215,0 -1.51822,0.6011 -1.51821,1.8033 l 0,4.4245 c -1e-5,0.1239 -0.10328,0.1859 -0.30984,0.1859 l -1.67313,0 c -0.20657,0 -0.30985,-0.062 -0.30984,-0.1859 l 0,-5.1495 c -1e-5,-0.409 -0.0413,-0.6631 -0.12393,-0.7622 -0.062,-0.062 -0.38215,-0.2231 -0.9605,-0.4834 -0.10328,-0.05 -0.15492,-0.1115 -0.15492,-0.1859 0,-0.074 0.0826,-0.1363 0.24787,-0.1859 0.18589,-0.05 0.47507,-0.1239 0.86755,-0.2231 0.53704,-0.1487 1.1877,-0.347 1.95198,-0.5949 0.0826,-0.025 0.15491,-0.037 0.21689,-0.037 0.16523,0 0.24786,0.068 0.24787,0.2044 l 0,0.9667"
         id="path3865"
         style="font-size:24px;font-style:normal;font-variant:normal;font-weight:normal;font-stretch:normal;line-height:125%;letter-spacing:1px;word-spacing:0px;fill:#999999;fill-opacity:1;stroke:none;filter:url(#filter3843);font-family:gara;-inkscape-font-specification:gara;stroke-opacity:1" />
    </g>
    <g
       id="g3058"
       style="fill:#999999;fill-opacity:1;stroke:none;stroke-opacity:1">
      <path
         d="m 8.715274,1041.5789 c -0.289188,0.037 -0.433779,0.2107 -0.433774,0.5205 l 0,4.0155 c -5e-6,0.124 -0.103285,0.1859 -0.3098388,0.1859 l -1.6731288,0 c -0.206562,0 -0.309841,-0.062 -0.309839,-0.1859 l 0,-10.0573 c -2e-6,-0.409 -0.04131,-0.6569 -0.123935,-0.7436 -0.08263,-0.087 -0.402792,-0.2541 -0.9605,-0.502 -0.103281,-0.05 -0.154921,-0.1115 -0.154919,-0.1859 -2e-6,-0.074 0.06197,-0.1301 0.185903,-0.1673 0.227213,-0.074 0.568035,-0.1735 1.022468,-0.2974 0.599018,-0.1859 1.2393504,-0.409 1.9209992,-0.6693 0.08262,-0.025 0.1549144,-0.037 0.2168874,-0.037 0.185898,0 0.278849,0.056 0.278854,0.1673 -5e-6,0.087 -0.03099,0.2231 -0.09295,0.409 -0.04132,0.1859 -0.06197,0.3223 -0.06197,0.409 -4e-6,0.1487 0.09295,0.2293 0.278855,0.2417 1.920993,-0.5825 3.366905,-0.8738 4.337741,-0.8738 1.549183,0 2.809192,0.3409 3.780031,1.0225 0.908846,0.6445 1.363276,1.4377 1.36329,2.3796 -1.4e-5,1.3013 -0.712642,2.3671 -2.137887,3.1975 -1.425267,0.8304 -3.232658,1.2456 -5.422176,1.2456 -0.660995,0 -1.229032,-0.025 -1.704112,-0.074 m -0.433774,-5.2611 0,3.1976 c -5e-6,0.4709 0.299506,0.8427 0.898532,1.1154 0.619671,0.2726 1.373611,0.409 2.261822,0.409 1.363281,0 2.406403,-0.3718 3.12937,-1.1154 0.599011,-0.6073 0.898521,-1.3509 0.898533,-2.2309 -1.2e-5,-0.8056 -0.351162,-1.4934 -1.053451,-2.0635 -0.784935,-0.6197 -1.828057,-0.9295 -3.129371,-0.9295 -1.260016,0 -2.137892,0.1735 -2.633628,0.5205 -0.247876,0.1735 -0.371811,0.5391 -0.371806,1.0968"
         id="path3014"
         style="font-size:24px;font-style:normal;font-variant:normal;font-weight:normal;font-stretch:normal;line-height:125%;letter-spacing:1px;word-spacing:0px;fill:#999999;fill-opacity:1;stroke:none;filter:url(#filter3843);font-family:gara;-inkscape-font-specification:gara;stroke-opacity:1" />
      <path
         d="m 21.161912,1038.0096 c 0,-1.1403 0.557708,-2.1131 1.673128,-2.9187 1.177383,-0.8552 2.695592,-1.2828 4.554629,-1.2828 1.136067,0 2.127549,0.1921 2.974451,0.5763 0.950161,0.4338 1.425246,0.9791 1.425258,1.636 -1.2e-5,0.4338 -0.268538,0.6506 -0.805581,0.6506 -0.123948,0 -0.320177,-0.01 -0.588693,-0.019 -0.24788,-0.012 -0.433784,-0.019 -0.55771,-0.019 l -5.732015,0 c -0.392465,0 -0.630008,0.025 -0.712629,0.074 -0.08262,0.05 -0.123935,0.1921 -0.123935,0.4276 -3e-6,0.9791 0.444099,1.7909 1.332306,2.4353 0.950166,0.6941 2.220504,1.0411 3.811015,1.0411 0.826228,0 1.528529,-0.1549 2.106903,-0.4648 0.599011,-0.3098 0.90885,-0.4647 0.929516,-0.4647 0.227203,0 0.340811,0.074 0.340823,0.2231 -1.2e-5,0.4337 -0.619688,0.8427 -1.859032,1.2269 -1.136083,0.347 -2.127567,0.5206 -2.974451,0.5206 -1.735102,0 -3.139701,-0.3409 -4.213806,-1.0225 -1.053453,-0.6941 -1.580177,-1.5678 -1.580177,-2.6212 m 2.447725,-2.0264 c -3e-6,0.062 0.0723,0.093 0.216887,0.093 l 2.199855,0 c 1.900336,0 2.974443,-0.062 3.222322,-0.1859 0.123922,-0.062 0.185894,-0.1798 0.185903,-0.3533 -9e-6,-0.3842 -0.237552,-0.6754 -0.712629,-0.8737 -0.454438,-0.1983 -1.012146,-0.2975 -1.673129,-0.2975 -1.321983,0 -2.354778,0.3595 -3.098386,1.0783 -0.227218,0.1983 -0.340826,0.378 -0.340823,0.5391"
         id="path3016"
         style="font-size:24px;font-style:normal;font-variant:normal;font-weight:normal;font-stretch:normal;line-height:125%;letter-spacing:1px;word-spacing:0px;fill:#999999;fill-opacity:1;stroke:none;filter:url(#filter3843);font-family:gara;-inkscape-font-specification:gara;stroke-opacity:1" />
      <path
         d="m 39.904568,1041.6533 c -2.148218,0 -3.222324,-0.6693 -3.222322,-2.0078 l 0,-4.2572 c -2e-6,-0.2355 -0.03098,-0.3842 -0.09295,-0.4462 -0.04131,-0.062 -0.227217,-0.093 -0.55771,-0.093 -0.495743,0 -0.71263,0 -0.650661,0 -0.247871,-0.012 -0.371806,-0.087 -0.371806,-0.2231 0,-0.099 0.134263,-0.1859 0.40279,-0.2603 0.206558,-0.037 0.423445,-0.081 0.650661,-0.1301 0.784922,-0.2107 1.425255,-0.5577 1.921,-1.041 0.289179,-0.2851 0.495738,-0.4276 0.619677,-0.4276 0.268523,0 0.402786,0.062 0.40279,0.1859 l 0,0.7622 c -4e-6,0.1611 0.02066,0.2603 0.06197,0.2974 0.06197,0.037 0.22721,0.056 0.495742,0.056 l 3.315273,0 c 0.268518,0 0.402782,0.1363 0.402791,0.409 -9e-6,0.2479 -0.123949,0.3718 -0.371807,0.3718 l -3.377241,0 c -0.268532,0 -0.433779,0.031 -0.495742,0.093 -0.04131,0.05 -0.06197,0.1674 -0.06197,0.3533 l 0,3.4764 c -3e-6,0.6444 0.113608,1.1154 0.340823,1.4128 0.330489,0.4338 0.970823,0.6507 1.921,0.6507 0.351144,0 0.702293,-0.056 1.053451,-0.1673 0.371799,-0.124 0.56803,-0.1859 0.588693,-0.1859 0.206551,0 0.30983,0.074 0.309839,0.223 -9e-6,0.2479 -0.454438,0.4772 -1.36329,0.6879 -0.764275,0.1735 -1.404608,0.2603 -1.921,0.2603"
         id="path3018"
         style="font-size:24px;font-style:normal;font-variant:normal;font-weight:normal;font-stretch:normal;line-height:125%;letter-spacing:1px;word-spacing:0px;fill:#999999;fill-opacity:1;stroke:none;filter:url(#filter3843);font-family:gara;-inkscape-font-specification:gara;stroke-opacity:1" />
      <path
         d="m 46.558192,1038.0096 c 0,-1.1403 0.557708,-2.1131 1.673129,-2.9187 1.177383,-0.8552 2.695591,-1.2828 4.554628,-1.2828 1.136067,0 2.12755,0.1921 2.974451,0.5763 0.950162,0.4338 1.425246,0.9791 1.425258,1.636 -1.2e-5,0.4338 -0.268537,0.6506 -0.80558,0.6506 -0.123949,0 -0.320177,-0.01 -0.588694,-0.019 -0.24788,-0.012 -0.433783,-0.019 -0.55771,-0.019 l -5.732015,0 c -0.392465,0 -0.630007,0.025 -0.712629,0.074 -0.08262,0.05 -0.123935,0.1921 -0.123935,0.4276 -3e-6,0.9791 0.444099,1.7909 1.332306,2.4353 0.950167,0.6941 2.220504,1.0411 3.811016,1.0411 0.826227,0 1.528528,-0.1549 2.106903,-0.4648 0.599011,-0.3098 0.908849,-0.4647 0.929516,-0.4647 0.227203,0 0.34081,0.074 0.340822,0.2231 -1.2e-5,0.4337 -0.619688,0.8427 -1.859032,1.2269 -1.136083,0.347 -2.127566,0.5206 -2.974451,0.5206 -1.735102,0 -3.139701,-0.3409 -4.213806,-1.0225 -1.053452,-0.6941 -1.580177,-1.5678 -1.580177,-2.6212 m 2.447726,-2.0264 c -3e-6,0.062 0.07229,0.093 0.216887,0.093 l 2.199854,0 c 1.900336,0 2.974443,-0.062 3.222322,-0.1859 0.123923,-0.062 0.185894,-0.1798 0.185903,-0.3533 -9e-6,-0.3842 -0.237552,-0.6754 -0.712629,-0.8737 -0.454437,-0.1983 -1.012146,-0.2975 -1.673128,-0.2975 -1.321984,0 -2.354778,0.3595 -3.098387,1.0783 -0.227218,0.1983 -0.340825,0.378 -0.340822,0.5391"
         id="path3020"
         style="font-size:24px;font-style:normal;font-variant:normal;font-weight:normal;font-stretch:normal;line-height:125%;letter-spacing:1px;word-spacing:0px;fill:#999999;fill-opacity:1;stroke:none;filter:url(#filter3843);font-family:gara;-inkscape-font-specification:gara;stroke-opacity:1" />
      <path
         d="m 64.681172,1034.7562 c -6e-6,0.074 0.03098,0.1302 0.09295,0.1674 1.507875,-0.7437 2.643949,-1.1155 3.408225,-1.1155 0.392454,0 0.722948,0.068 0.991484,0.2045 0.268518,0.1364 0.402781,0.3161 0.40279,0.5392 -9e-6,0.2354 -0.134272,0.4399 -0.40279,0.6134 -0.24788,0.1611 -0.557719,0.2417 -0.929516,0.2417 -0.227223,0 -0.547389,-0.068 -0.9605,-0.2045 -0.413124,-0.1487 -0.774603,-0.2231 -1.084435,-0.2231 -1.012145,0 -1.518215,0.6011 -1.518209,1.8033 l 0,4.4245 c -6e-6,0.1239 -0.10328,0.1859 -0.309839,0.1859 l -1.673129,0 c -0.206562,0 -0.309841,-0.062 -0.309839,-0.1859 l 0,-5.1495 c -2e-6,-0.409 -0.04131,-0.6631 -0.123935,-0.7622 -0.06197,-0.062 -0.382137,-0.2231 -0.9605,-0.4834 -0.103279,-0.05 -0.15492,-0.1115 -0.154919,-0.1859 -10e-7,-0.074 0.08262,-0.1363 0.247871,-0.1859 0.185902,-0.05 0.475083,-0.1239 0.867548,-0.2231 0.537051,-0.1487 1.187711,-0.347 1.951984,-0.5949 0.08262,-0.025 0.154915,-0.037 0.216887,-0.037 0.165242,0 0.247865,0.068 0.247871,0.2044 l 0,0.9667"
         id="path3022"
         style="font-size:24px;font-style:normal;font-variant:normal;font-weight:normal;font-stretch:normal;line-height:125%;letter-spacing:1px;word-spacing:0px;fill:#999999;fill-opacity:1;stroke:none;filter:url(#filter3843);font-family:gara;-inkscape-font-specification:gara;stroke-opacity:1" />
      <path
         d="m 86.30323,1034.7562 c 1.507875,-0.632 2.881492,-0.9481 4.120854,-0.9481 1.342624,0 2.437386,0.3656 3.28429,1.0969 l 0.06197,0 c 0.185891,0.012 0.826224,-0.1673 1.921,-0.5392 1.115404,-0.3718 2.117214,-0.5577 3.005436,-0.5577 1.15671,0 2.06557,0.2107 2.72658,0.6321 0.66097,0.4214 0.98113,0.9791 0.9605,1.6731 l -0.12394,5.0938 c -2e-5,0.1239 -0.1033,0.1859 -0.30983,0.1859 l -1.5492,0 c -0.20658,0 -0.30986,-0.062 -0.30984,-0.1859 l 0,-4.5918 c -2e-5,-1.2766 -0.96051,-1.9148 -2.881496,-1.9148 -1.136091,0 -1.99331,0.2169 -2.571661,0.6506 -0.309852,0.2355 -0.464771,0.6073 -0.464758,1.1155 l 0,4.7405 c -1.3e-5,0.1239 -0.103293,0.1859 -0.309839,0.1859 l -1.673129,0 c -0.206569,0 -0.309849,-0.062 -0.309838,-0.1859 l 0,-4.5918 c -1.1e-5,-1.2766 -0.950183,-1.9148 -2.850516,-1.9148 -1.115426,0 -1.982974,0.2231 -2.602645,0.6692 -0.309844,0.2231 -0.464763,0.5763 -0.464758,1.0597 l 0,4.7777 c -5e-6,0.1239 -0.103279,0.1859 -0.309838,0.1859 l -1.673129,0 c -0.206562,0 -0.309841,-0.062 -0.309839,-0.1859 l 0,-5.1495 c -2e-6,-0.409 -0.04131,-0.6569 -0.123935,-0.7436 -0.08262,-0.087 -0.402793,-0.2541 -0.9605,-0.502 -0.10328,-0.05 -0.154921,-0.1115 -0.154919,-0.1859 -2e-6,-0.074 0.08262,-0.1301 0.247871,-0.1673 0.165246,-0.05 0.4441,-0.1239 0.836564,-0.2231 0.702298,-0.1859 1.363286,-0.3904 1.982967,-0.6135 0.08262,-0.037 0.165244,-0.056 0.247871,-0.056 0.10328,0 0.165242,0.043 0.185903,0.1301 0.04131,0.087 0.06197,0.1921 0.06197,0.316 -0.02066,0.1983 -0.03098,0.2851 -0.03098,0.2603 -5e-6,0.3098 0.113608,0.471 0.340823,0.4833"
         id="path3024"
         style="font-size:24px;font-style:normal;font-variant:normal;font-weight:normal;font-stretch:normal;line-height:125%;letter-spacing:1px;word-spacing:0px;fill:#999999;fill-opacity:1;stroke:none;filter:url(#filter3843);font-family:gara;-inkscape-font-specification:gara;stroke-opacity:1" />
      <path
         d="m 106.6096,1037.8236 c 0,-1.1402 0.63001,-2.0945 1.89002,-2.8629 1.26001,-0.7684 2.82985,-1.1526 4.70955,-1.1526 1.81771,0 3.31526,0.3718 4.49266,1.1155 1.19803,0.7312 1.79705,1.6421 1.79706,2.7327 -1e-5,1.165 -0.60936,2.1255 -1.82805,2.8815 -1.19805,0.7436 -2.7679,1.1155 -4.70954,1.1155 -1.85904,0 -3.38758,-0.3595 -4.58562,-1.0783 -1.17738,-0.7188 -1.76608,-1.6359 -1.76608,-2.7514 m 2.66462,-0.2416 c -1e-5,0.8799 0.2995,1.6483 0.89853,2.3052 0.72295,0.8056 1.75574,1.2083 3.09839,1.2083 1.26,0 2.19984,-0.3532 2.81953,-1.0596 0.49573,-0.5577 0.7436,-1.2518 0.74361,-2.0821 -1e-5,-0.9047 -0.28919,-1.6855 -0.86755,-2.3424 -0.72296,-0.8304 -1.76609,-1.2456 -3.12937,-1.2456 -1.23936,0 -2.1792,0.3719 -2.81953,1.1155 -0.49575,0.5825 -0.74362,1.2827 -0.74361,2.1007"
         id="path3026"
         style="font-size:24px;font-style:normal;font-variant:normal;font-weight:normal;font-stretch:normal;line-height:125%;letter-spacing:1px;word-spacing:0px;fill:#999999;fill-opacity:1;stroke:none;filter:url(#filter3843);font-family:gara;-inkscape-font-specification:gara;stroke-opacity:1" />
      <path
         d="m 126.63229,1041.2071 c -2e-5,0.1239 -0.10328,0.1859 -0.30985,0.1859 l -1.70411,0 c -0.20656,0 -0.30984,-0.062 -0.30984,-0.1859 l 0,-10.7638 c 0,-0.471 -0.23754,-0.7994 -0.71263,-0.9853 -0.47508,-0.1859 -0.71263,-0.3222 -0.71263,-0.409 0,-0.087 0.0723,-0.1487 0.21689,-0.1859 0.24787,-0.05 0.61968,-0.1239 1.11542,-0.2231 0.61968,-0.1239 1.29099,-0.2912 2.01395,-0.5019 0.0826,-0.012 0.14459,-0.019 0.18591,-0.019 0.18589,0 0.27884,0.068 0.27886,0.2045 -2e-5,0.2355 -0.0207,0.5949 -0.062,1.0782 -0.0207,0.471 -0.031,0.8304 -0.031,1.0783 l 0.031,10.7266"
         id="path3028"
         style="font-size:24px;font-style:normal;font-variant:normal;font-weight:normal;font-stretch:normal;line-height:125%;letter-spacing:1px;word-spacing:0px;fill:#999999;fill-opacity:1;stroke:none;filter:url(#filter3843);font-family:gara;-inkscape-font-specification:gara;stroke-opacity:1" />
      <path
         d="m 135.44171,1034.7562 c 1.71443,-0.632 3.16034,-0.9481 4.33774,-0.9481 1.15672,0 2.04492,0.2107 2.66461,0.6321 0.64032,0.409 0.96049,0.9667 0.9605,1.6731 l 0,5.0938 c -1e-5,0.1239 -0.10328,0.1859 -0.30983,0.1859 l -1.7351,0 c -0.20657,0 -0.30985,-0.062 -0.30984,-0.1859 l 0.062,-4.6662 c 0.0207,-1.2269 -0.95019,-1.8404 -2.91249,-1.8404 -1.21871,0 -2.09658,0.2169 -2.63362,0.6506 -0.30986,0.2479 -0.46478,0.6197 -0.46476,1.1155 l 0,4.7405 c -2e-5,0.1239 -0.10328,0.1859 -0.30984,0.1859 l -1.7351,0 c -0.20657,0 -0.30985,-0.062 -0.30984,-0.1859 0.0413,-3.5074 0.062,-5.2797 0.062,-5.3168 -1e-5,-0.3223 -0.062,-0.5392 -0.1859,-0.6507 -0.0413,-0.037 -0.34084,-0.1797 -0.89853,-0.4276 -0.10328,-0.05 -0.15492,-0.1115 -0.15492,-0.1859 0,-0.074 0.0826,-0.1301 0.24787,-0.1673 0.16523,-0.05 0.43376,-0.1239 0.80558,-0.2231 0.70229,-0.1859 1.3736,-0.3904 2.01395,-0.6135 0.0826,-0.037 0.16523,-0.056 0.24787,-0.056 0.14458,0 0.2272,0.099 0.24787,0.2974 -0.0206,-0.409 -0.031,-0.2726 -0.031,0.409 -2e-5,0.3098 0.11361,0.471 0.34082,0.4833"
         id="path3030"
         style="font-size:24px;font-style:normal;font-variant:normal;font-weight:normal;font-stretch:normal;line-height:125%;letter-spacing:1px;word-spacing:0px;fill:#999999;fill-opacity:1;stroke:none;filter:url(#filter3843);font-family:gara;-inkscape-font-specification:gara;stroke-opacity:1" />
      <path
         d="m 159.84521,1034.7377 0,6.4694 c -1e-5,0.1239 -0.10328,0.1859 -0.30984,0.1859 l -1.64214,0 c -0.22723,0 -0.38215,-0.1611 -0.46476,-0.4834 -1.1774,0.4958 -2.3961,0.7437 -3.6561,0.7437 -1.81772,0 -3.28429,-0.3409 -4.39971,-1.0225 -1.09476,-0.6941 -1.64214,-1.5864 -1.64214,-2.677 0,-1.2642 0.73328,-2.2804 2.19985,-3.0488 1.4046,-0.7313 3.17068,-1.0969 5.29824,-1.0969 0.76426,0 1.61115,0.087 2.54068,0.2603 1.38393,0.2603 2.07591,0.4834 2.07592,0.6693 m -2.72658,5.5399 c -1e-5,-0.037 0.0207,-0.074 0.062,-0.1116 0.24786,-0.2478 0.37179,-0.5825 0.3718,-1.0038 l 0,-3.5136 c -10e-6,-0.05 -0.0723,-0.124 -0.21688,-0.2231 -0.97084,-0.6569 -2.00364,-0.9853 -3.09839,-0.9853 -1.32198,0 -2.38576,0.3098 -3.19134,0.9295 -0.72296,0.5577 -1.08443,1.2456 -1.08443,2.0636 0,0.8675 0.46475,1.6173 1.39427,2.2494 0.95017,0.6197 2.14822,0.9295 3.59413,0.9295 0.72294,0 1.4459,-0.1115 2.16887,-0.3346"
         id="path3032"
         style="font-size:24px;font-style:normal;font-variant:normal;font-weight:normal;font-stretch:normal;line-height:125%;letter-spacing:1px;word-spacing:0px;fill:#999999;fill-opacity:1;stroke:none;filter:url(#filter3843);font-family:gara;-inkscape-font-specification:gara;stroke-opacity:1" />
      <path
         d="m 168.18262,1034.7562 c -10e-6,0.074 0.031,0.1302 0.093,0.1674 1.50787,-0.7437 2.64394,-1.1155 3.40823,-1.1155 0.39245,0 0.72294,0.068 0.99148,0.2045 0.26851,0.1364 0.40278,0.3161 0.40279,0.5392 -1e-5,0.2354 -0.13428,0.4399 -0.40279,0.6134 -0.24788,0.1611 -0.55772,0.2417 -0.92952,0.2417 -0.22722,0 -0.54739,-0.068 -0.9605,-0.2045 -0.41313,-0.1487 -0.77461,-0.2231 -1.08443,-0.2231 -1.01215,0 -1.51822,0.6011 -1.51821,1.8033 l 0,4.4245 c -1e-5,0.1239 -0.10328,0.1859 -0.30984,0.1859 l -1.67313,0 c -0.20657,0 -0.30985,-0.062 -0.30984,-0.1859 l 0,-5.1495 c -1e-5,-0.409 -0.0413,-0.6631 -0.12393,-0.7622 -0.062,-0.062 -0.38215,-0.2231 -0.9605,-0.4834 -0.10328,-0.05 -0.15492,-0.1115 -0.15492,-0.1859 0,-0.074 0.0826,-0.1363 0.24787,-0.1859 0.18589,-0.05 0.47507,-0.1239 0.86755,-0.2231 0.53704,-0.1487 1.1877,-0.347 1.95198,-0.5949 0.0826,-0.025 0.15491,-0.037 0.21689,-0.037 0.16523,0 0.24786,0.068 0.24787,0.2044 l 0,0.9667"
         id="path3034"
         style="font-size:24px;font-style:normal;font-variant:normal;font-weight:normal;font-stretch:normal;line-height:125%;letter-spacing:1px;word-spacing:0px;fill:#999999;fill-opacity:1;stroke:none;filter:url(#filter3843);font-family:gara;-inkscape-font-specification:gara;stroke-opacity:1" />
    </g>
  </g>
</svg>
