<?xml version="1.0" standalone="no"?>
<svg width="1500px" height="1500px" version="1.1" xmlns="http://www.w3.org/2000/svg">
<path transform="scale(1, -1) translate(0, -1500)" glyph-name="aperture" unicode="&#x2b57;" d="m608 407l-225 382q47 8 81 8 177 0 304-120z m-33-168l233 395q103-125 103-283 0-53-16-112l-320 0z m-96 280l-427 0q37 91 109 158t167 97z m-24-335l423 0q-37-90-108-157t-165-99z m-99 278l-234-396q-104 126-104 285 0 52 16 111l322 0z m-33-165l227-385q-48-9-86-9-172 0-302 121z" horiz-adv-x="928" />
</svg>