<?xml version="1.0" standalone="no"?>
<svg width="1500px" height="1500px" version="1.1" xmlns="http://www.w3.org/2000/svg">
<path transform="scale(1, -1) translate(0, -1500)" glyph-name="copyleft" unicode="&#x2183;" d="m488 677q-175-5-293-122t-122-293q5-176 122-293t293-122q176 5 293 122t122 293q-5 176-122 293t-293 122z m-4-85h4q141-3 234-96t96-234q-3-140-96-234t-234-96q-140 3-234 96t-96 234q3 140 95 233t231 97z m1-96q-85-2-146-52t-80-129h111q16 33 46 54t69 20q54-1 90-37t37-90q-2-54-37-90t-90-37q-39 0-69 21t-46 52h-111q19-78 80-127t146-52q99 3 165 69t68 164q-2 99-68 165t-165 69z" horiz-adv-x="1000" />
</svg>