<?xml version="1.0" standalone="no"?>
<svg width="1500px" height="1500px" version="1.1" xmlns="http://www.w3.org/2000/svg">
<path transform="scale(1, -1) translate(0, -1500)" glyph-name="copyright" unicode="&#xa9;" d="m642 251v-61q0-28-21-50t-52-34-66-18-65-6q-115 0-192 78t-76 193q0 113 76 189t189 76q19 0 42-3t52-10 51-19 39-31 15-45v-61q0-9-8-9h-66q-9 0-9 9v39q0 24-37 38t-76 13q-79 0-128-51t-49-132q0-85 51-140t130-55q38 0 77 14t39 37v39q0 4 3 6t5 3h67q3 0 6-3t3-6z m-213 456q-73 0-139-28t-114-76-76-114-29-139 29-139 76-113 114-77 139-28 138 28 114 77 76 113 29 139-29 139-76 114-114 76-138 28z m428-357q0-117-57-215t-156-156-215-58-216 58-155 156-58 215 58 215 155 156 216 58 215-58 156-156 57-215z" horiz-adv-x="857.1" />
</svg>