<?xml version="1.0" standalone="no"?>
<svg width="1500px" height="1500px" version="1.1" xmlns="http://www.w3.org/2000/svg">
<path transform="scale(1, -1) translate(0, -1500)" glyph-name="gplus" unicode="&#x67;" d="m463 170q0-42-33-62t-78-21q-23 0-45 6t-42 15-32 30-13 44q0 25 14 44t37 29 46 14 47 4q11 0 17-1 1-1 13-9t15-11 12-10 14-12 11-13 9-14 5-15 3-18z m-42 304q0-33-18-55t-51-22q-30 0-52 24t-32 53-10 60q0 34 18 58t51 24q30 0 52-25t33-57 9-60z m59 144l50 36h-148q-48 0-90-18t-71-55-29-85q0-52 36-87t88-34q13 0 24 2-7-16-7-30 0-25 22-53-97-6-143-35-26-16-42-41t-16-53q0-24 10-43t27-31 39-21 43-12 43-3q33 0 67 8t63 26 48 46 19 65q0 28-11 50t-28 38-32 26-27 25-12 24 9 24 21 22 25 24 21 33 8 46q0 33-12 55t-41 51h46z m163-250h71v35h-71v72h-36v-72h-71v-35h71v-90h36v90z m214 250v-536q0-66-47-113t-114-48h-535q-67 0-114 48t-47 113v536q0 66 47 113t114 48h535q67 0 114-48t47-113z" horiz-adv-x="857.1" />
</svg>