<?xml version="1.0" standalone="no"?>
<svg width="1500px" height="1500px" version="1.1" xmlns="http://www.w3.org/2000/svg">
<path transform="scale(1, -1) translate(0, -1500)" glyph-name="lastfm" unicode="&#x4c;" d="m799 263q0 97-130 133-20 6-30 10t-21 13-16 26q0 2-2 5t-1 7-1 4q0 20 14 33t34 13q30 0 39-8h0q11-8 21-28l52 39q-21 30-27 36-18 16-38 22t-47 5q-45 0-80-32t-34-77q0-4 1-13 9-53 36-78t83-40q16-5 27-9t25-12 22-19 7-26v-3q1-32-22-52t-56-19q-55 0-94 80-12 26-28 68t-27 70-30 61-42 54-57 33-82 14q-57 0-107-31t-81-83-28-107v0q3-61 28-111t75-83 109-31q104 0 156 61 11 15 17 29l-33 60q-24-44-55-64t-82-20q-64 0-106 48t-43 114q0 59 46 105t104 47q62 0 95-30t58-96q4-12 14-38t16-43 17-41 22-42 25-34 31-30 37-19 45-7q59 0 102 38t42 98z m58 355v-536q0-66-47-113t-114-48h-535q-67 0-114 48t-47 113v536q0 66 47 113t114 48h535q67 0 114-48t47-113z" horiz-adv-x="857.1" />
</svg>