<?xml version="1.0" standalone="no"?>
<svg width="1500px" height="1500px" version="1.1" xmlns="http://www.w3.org/2000/svg">
<path transform="scale(1, -1) translate(0, -1500)" glyph-name="linkedin" unicode="&#x6c;" d="m132 61h129v387h-129v-387z m138 507q-1 29-21 48t-51 19-53-19-21-48q0-29 20-48t52-19h0q33 0 53 19t21 48z m326-507h129v222q0 86-41 130t-108 44q-75 0-116-65h1v56h-129q2-37 0-387h129v216q0 22 4 32 8 19 25 33t41 14q65 0 65-88v-207z m261 557v-536q0-66-47-113t-114-48h-535q-67 0-114 48t-47 113v536q0 66 47 113t114 48h535q67 0 114-48t47-113z" horiz-adv-x="857.1" />
</svg>