<?xml version="1.0" standalone="no"?>
<svg width="1500px" height="1500px" version="1.1" xmlns="http://www.w3.org/2000/svg">
<path transform="scale(1, -1) translate(0, -1500)" glyph-name="mail" unicode="&#x2709;" d="m696 779q67 0 114-48t47-113v-536q0-66-47-113t-114-48h-535q-67 0-114 48t-47 113v536q0 66 47 113t114 48h535z m18-590v244q-17-20-35-31-19-12-74-48t-85-55q-55-38-91-38t-92 38q-26 18-79 52t-79 51q-7 5-19 16t-17 15v-244q0-22 16-38t37-15h465q22 0 38 15t15 38z m0 320q0 23-15 39t-38 16h-465q-22 0-37-15t-16-38q0-21 17-43t38-36q26-18 76-50t73-46q1-1 9-6t12-8 11-7 14-8 12-5 12-4 12-2 11 2 13 4 12 5 13 8 11 7 12 8 10 6l149 97q19 13 37 35t17 41z" horiz-adv-x="857.1" />
</svg>