<?xml version="1.0" standalone="no"?>
<svg width="1500px" height="1500px" version="1.1" xmlns="http://www.w3.org/2000/svg">
<path transform="scale(1, -1) translate(0, -1500)" glyph-name="phone" unicode="&#x1f4de;" d="m714 184q0 6-1 9-1 5-21 17t-50 27l-29 16q-3 2-11 8t-14 8-12 3q-10 0-26-18t-32-37-24-18q-4 0-9 2t-9 3-9 6-8 4q-56 31-95 71t-71 95q-1 2-5 8t-5 9-4 9-2 9q0 8 12 19t25 21 25 23 11 20q0 5-2 12t-9 14-7 10q-2 4-8 16t-14 25-15 27-14 23-9 10-9 1q-27 0-56-13-26-11-45-52t-19-73q0-9 1-19t3-17 5-19 6-16 7-18 6-17q33-92 121-179t178-121q4-1 17-6t19-7 16-5 18-5 17-3 19-2q32 0 73 19t53 45q12 30 12 56z m143 434v-536q0-66-47-113t-114-48h-535q-67 0-114 48t-47 113v536q0 66 47 113t114 48h535q67 0 114-48t47-113z" horiz-adv-x="857.1" />
</svg>