<?xml version="1.0" standalone="no"?>
<svg width="1500px" height="1500px" version="1.1" xmlns="http://www.w3.org/2000/svg">
<path transform="scale(1, -1) translate(0, -1500)" glyph-name="reply" unicode="&#x27a6;" d="m561 236l196 196q11 11 11 25t-11 25l-196 197q-17 17-39 7-22-9-22-32v-90q-66 0-121-11t-90-28-64-44-42-53-25-61-12-62-3-62q0-101 93-226 6-6 14-6 4 0 7 1 13 5 11 19-25 197 34 264 26 29 73 42t125 13v-89q0-24 22-33 7-3 14-3 14 0 25 11z m296 382v-536q0-66-47-113t-114-48h-535q-67 0-114 48t-47 113v536q0 66 47 113t114 48h535q67 0 114-48t47-113z" horiz-adv-x="857.1" />
</svg>