<?xml version="1.0" standalone="no"?>
<svg width="1500px" height="1500px" version="1.1" xmlns="http://www.w3.org/2000/svg">
<path transform="scale(1, -1) translate(0, -1500)" glyph-name="repost" unicode="&#x1f501;" d="m703 610q96 0 165-76t70-184-77-183-183-77q-22 0-37 15t-16 37 16 36 37 16q65 0 110 46t46 110-39 111-92 46l-108 0 66-68q15-15 15-37t-15-37-36-15-36 15l-194 194 194 193q15 15 36 15t36-15 15-37-15-37l-66-68 108 0z m-427-275q15 15 37 15t36-15l194-193-194-193q-15-15-36-15t-37 15-15 37 15 37l67 67-108 0q-96 0-166 77t-69 183 76 184 184 76q21 0 37-15t16-36-16-37-37-15q-65 0-111-46t-45-111 39-110 92-46l108 0-67 68q-15 15-15 36t15 37z" horiz-adv-x="938" />
</svg>