<?xml version="1.0" standalone="no"?>
<svg width="1500px" height="1500px" version="1.1" xmlns="http://www.w3.org/2000/svg">
<path transform="scale(1, -1) translate(0, -1500)" glyph-name="rss" unicode="&#x2980;" d="m286 136q0 29-21 50t-51 21-50-21-21-50 21-51 50-21 51 21 21 51z m196-53q-8 130-99 221t-221 99q-8 1-14-5t-5-13v-71q0-8 5-13t12-5q86-6 147-68t67-147q1-7 6-12t12-5h72q7 0 13 6t5 13z m214 0q-3 86-31 166t-78 145-115 114-145 78-166 31q-8 1-13-5-5-5-5-13v-71q0-7 5-12t12-6q114-4 211-62t156-155 62-211q0-8 5-13t13-5h71q7 0 13 6 6 5 5 13z m161 535v-536q0-66-47-113t-114-48h-535q-67 0-114 48t-47 113v536q0 66 47 113t114 48h535q67 0 114-48t47-113z" horiz-adv-x="857.1" />
</svg>