<?xml version="1.0" standalone="no"?>
<svg width="1500px" height="1500px" version="1.1" xmlns="http://www.w3.org/2000/svg">
<path transform="scale(1, -1) translate(0, -1500)" glyph-name="search" unicode="&#x1f50e;" d="m0-41q0 47 33 80l260 260q-43 82-43 176 0 154 109 265t266 110 266-110 109-266-109-265-266-109q-94 0-176 43l-260-260q-33-33-80-33-45 0-77 32t-32 77z m55 1q0-22 16-39t39-16 40 17l252 252q-45 33-78 78l-252-252q-17-17-17-40z m258 515q0-129 91-221t221-91 221 91 91 221-91 221-221 91-221-91-91-221z m93 0q0 90 65 154t154 65q16 0 16-16t-16-16q-78 0-133-54t-54-133q0-16-16-16t-16 16z" horiz-adv-x="1000" />
</svg>