<?xml version="1.0" standalone="no"?>
<svg width="1500px" height="1500px" version="1.1" xmlns="http://www.w3.org/2000/svg">
<path transform="scale(1, -1) translate(0, -1500)" glyph-name="share" unicode="&#x2928;" d="m714 183q0 49-35 84t-84 36q-46 0-80-33l-135 67q1 9 1 13t-1 13l135 67q34-33 80-33 50 0 84 36t35 84-35 84-84 35-84-35-35-84q0-4 1-13l-134-67q-35 32-81 32-49 0-84-35t-35-84 35-84 84-35q46 0 81 32l134-67q-1-9-1-13 0-49 35-84t84-35 84 35 35 84z m143 435v-536q0-66-47-113t-114-48h-535q-67 0-114 48t-47 113v536q0 66 47 113t114 48h535q67 0 114-48t47-113z" horiz-adv-x="857.1" />
</svg>