<?xml version="1.0" standalone="no"?>
<svg width="1500px" height="1500px" version="1.1" xmlns="http://www.w3.org/2000/svg">
<path transform="scale(1, -1) translate(0, -1500)" glyph-name="wordpress" unicode="&#x77;" d="m71 350q0 91 37 175l205-561q-109 53-176 157t-66 229z m719 22q0-11-2-22t-5-27-7-25-10-33-9-32l-43-143-155 461q26 2 49 4 11 1 15 11t-2 17-16 7l-114-5q-42 0-113 5-6 1-11-2t-6-9-1-10 5-9 11-5l44-4 67-183-94-281-156 464q26 1 49 4 11 1 15 11t-2 17-15 7l-115-5q-4 0-13 0t-14 0q58 90 153 142t205 52q82 0 157-30t133-83h-6q-31 0-51-22t-21-54q0-6 1-13t2-12 5-13 5-12 7-12 7-12 8-13 7-13q36-60 36-118z m-283-59l133-361q0-4 2-7-70-24-142-24-62 0-121 18z m369 243q53-97 53-206 0-117-58-215t-156-156l132 379q32 94 32 154 0 23-3 44z m-376 294q102 0 194-40t160-106 106-160 40-194-40-194-106-160-160-106-194-40-194 40-160 106-106 160-40 194 40 194 106 160 160 106 194 40z m0-977q97 0 185 38t152 102 102 152 38 185-38 185-102 152-152 102-185 38-185-38-152-102-102-152-38-185 38-185 102-152 152-102 185-38z" horiz-adv-x="1000" />
</svg>